<?xml version="1.0" standalone="no"?>
<!DOCTYPE svg PUBLIC "-//W3C//DTD SVG 1.1//EN" "http://www.w3.org/Graphics/SVG/1.1/DTD/svg11.dtd" >
<svg xmlns="http://www.w3.org/2000/svg">
<metadata>
Created by FontPrep 20130207 at Mon Jan  4 08:34:44 2016
 By Francis Nguyen
Copyright (c) 1992 Image Club Graphics, Inc.
</metadata>
<defs>
<font id="3a89bb2303b355fde93170665c23f8a6" horiz-adv-x='1024' >
  <font-face 
    font-family="Grouch"
    font-weight="5"
    font-stretch="normal"
    units-per-em="2048"
    panose-1="0 0 0 0 0 0 0 0 0 0"
    ascent="1638"
    descent="-410"
    x-height="1124"
    cap-height="1612"
    bbox="-190 -536 2543 2229"
    underline-thickness="43"
    underline-position="-268"
    unicode-range="U+0020-25CA"
  />
<missing-glyph horiz-adv-x="1612" 
d="M1412 100v1412h-1212v-1412h1212zM100 0v1612h1412v-1612h-1412z" />
    <glyph glyph-name=".notdef" horiz-adv-x="1612" 
d="M1412 100v1412h-1212v-1412h1212zM100 0v1612h1412v-1612h-1412z" />
    <glyph glyph-name=".null" unicode="&#xd7;" horiz-adv-x="0" 
 />
    <glyph glyph-name=".null" unicode="&#x141;" horiz-adv-x="0" 
 />
    <glyph glyph-name=".null" unicode="&#xfd;" horiz-adv-x="0" 
 />
    <glyph glyph-name="nonmarkingreturn" horiz-adv-x="575" 
 />
    <glyph glyph-name="space" unicode=" " horiz-adv-x="575" 
 />
    <glyph glyph-name="exclam" unicode="!" horiz-adv-x="766" 
d="M388 -44q-120 0 -185.5 73t-65.5 175t66.5 178t184.5 76t184 -76t66 -176q0 -102 -65 -176t-185 -74zM691 1236q0 -166 -77 -338q-109 -207 -167 -336l-13 -28h-96l-11 26q-83 146 -140 264q-109 226 -109 396t90 290t225 122q136 0 217 -115t81 -281z" />
    <glyph glyph-name="quotedbl" unicode="&#x22;" horiz-adv-x="647" 
d="M292 1412q0 -87 -28 -183q-57 -165 -61 -196h-35l-2 13q-33 96 -64 192q-24 96 -24 176.5t30.5 144.5t77.5 64t76.5 -62t29.5 -149zM580 1412q0 -87 -29 -183q-57 -165 -61 -196h-35l-2 13q-33 96 -63 192q-24 96 -24 176.5t30.5 144.5t77.5 64t76.5 -62t29.5 -149z" />
    <glyph glyph-name="numbersign" unicode="#" horiz-adv-x="1359" 
d="M806 924h-222l-55 -214h223zM1277 1342l-109 -418h-249l-54 -214h242l-109 -418h-244l-70 -266h-113l67 266h-222l-67 -266h-109l65 266h-231l105 418h237l59 214h-231l105 418h233l67 253h109l-63 -253h222l68 253h109l-63 -253h246z" />
    <glyph glyph-name="dollar" unicode="$" horiz-adv-x="1318" 
d="M841 265.5q0 65.5 -40.5 126.5t-85.5 83l-27 13v-416l31 9q59 17 90.5 68t31.5 116.5zM418 1328q0 -56 36 -119t93 -87l30 -13v438l-26 -9q-61 -20 -97 -87t-36 -123zM1244 514q0 -233 -200 -407q-48 -41 -136.5 -74t-173.5 -46l-39 -7v-313h-113v311h-37q-142 0 -323 57
q-74 22 -128 43l-26 11v576h82l11 -61q11 -78 55 -184q74 -177 198 -283q63 -54 124 -65l44 -9v488l-44 22q-311 124 -389.5 269t-78.5 279q0 135 71 247t184 181q75 47 220 76l32 7v320h114v-316h26q124 0 357 -74l31 -9v-483h-92l-9 52q-28 174 -100 270q-93 121 -194 151
l-24 6v-488l53 -17q123 -42 238 -106q115 -63 191 -174t76 -250z" />
    <glyph glyph-name="percent" unicode="%" horiz-adv-x="1784" 
d="M1401 476q0 263 -122 265q-68 0 -97 -74t-29 -267t13 -254q26 -120 113 -120q78 0 104 92q17 59 17 160t1 198zM651 1124v151q0 144 -17 209q-28 102 -105 102q-68 0 -97 -74t-29 -266t13 -255q26 -120 113 -120q78 0 105 92q17 59 17 161zM1719 379q0 -174 -128.5 -292
t-309.5 -118t-316 118t-135 290t133 294t314 122t311.5 -120t130.5 -294zM1253 1612l-639 -1612h-58l642 1612h55zM970 1224.5q0 -174.5 -129 -292t-310 -117.5t-315.5 117.5t-134.5 289.5t132.5 294t313.5 122t312 -119.5t131 -294z" />
    <glyph glyph-name="ampersand" unicode="&#x26;" horiz-adv-x="1921" 
d="M699 227q118 -64 223 -35l37 8q-125 186 -173 276t-102 186t-104 205l-42 -13q-76 -28 -89 -159q-9 -81 67 -243t183 -225zM976 1364q0 66 -45 117t-111 51t-104 -40.5t-38 -97.5q0 -85 88 -158t149 -57q24 7 42.5 63t18.5 122zM1839 444q0 -192 -126.5 -322.5
t-331.5 -130.5q-111 0 -183 21t-150 86l-24 17l-26 -15q-173 -120 -364 -122q-233 0 -394.5 144t-161.5 359q0 179 110 297t309 176l30 7l-35 37q-72 78 -108 146t-35 157q0 153 120.5 251.5t282.5 98.5t264 -89t102 -222q0 -70 -23 -115.5t-82 -85.5l-20 -13l27 -28
q33 -37 73 -94t119 -205q78 -148 80 -154l11 -20l13 20q37 72 37 165q1 94 -57 170t-154 75h-18v80h584v-85h-13q-41 0 -71 -22q-84 -61 -138 -213q-92 -259 -105 -281l-17 -31l22 -30q35 -52 72 -105q70 -94 145 -94t111 53.5t36 140.5v27l89 -22v-29z" />
    <glyph glyph-name="quotesingle" unicode="'" horiz-adv-x="366" 
d="M292 1412q0 -87 -28 -183q-57 -165 -61 -196h-35l-2 13q-33 96 -64 192q-24 96 -24 176.5t30.5 144.5t77.5 64t76.5 -62t29.5 -149z" />
    <glyph glyph-name="parenleft" unicode="(" horiz-adv-x="1019" 
d="M78 636q0 270 66 450t248 326q111 89 218 130.5t261 61.5l72 8v-117l-45 -7q-63 -9 -114.5 -38t-68.5 -73q-63 -153 -80.5 -316t-17.5 -444t17 -441q26 -246 107 -355q26 -35 75 -58.5t106 -23.5l28 -3v-102l-74 4q-270 0 -506 192q-160 132 -226 334t-66 472z" />
    <glyph glyph-name="parenright" unicode=")" horiz-adv-x="1039" 
d="M956 640q0 -266 -66 -470q-66 -205 -225 -336q-235 -191 -506 -191l-74 -5v103l28 2q123 0 181 82q59 82 91.5 260.5t32.5 538.5t-22.5 493.5t-75.5 263.5q-17 44 -69.5 74.5t-113.5 36.5l-50 7v113l76 -4q131 0 245.5 -48t234.5 -144q179 -144 246 -327t67 -449z" />
    <glyph glyph-name="asterisk" unicode="*" horiz-adv-x="921" 
d="M463 743q-51 0 -91.5 40.5t-31.5 101.5t72 209q-100 -152 -161 -183q-31 -13 -57 -13q-70 0 -105 58q-17 28 -17 70t28.5 82t73.5 45l196 26l-198 24q-50 9 -77 44.5t-27 80.5t30 85t91 40t87 -28q65 -69 131 -161q-55 107 -82 211q-11 44 29 89.5t98 45.5t99.5 -42.5
t30.5 -88.5q-44 -157 -74 -211q90 115 139 168q22 22 63 22q83 0 118 -59q17 -31 17 -69t-20.5 -73t-59.5 -43t-101 -16t-113 -15l192 -26q48 -7 73 -41t25 -72t-11 -64q-33 -74 -120 -74q-57 0 -92 42t-117 148q88 -163 92 -233q0 -46 -39.5 -83t-90.5 -37z" />
    <glyph glyph-name="plus" unicode="+" horiz-adv-x="1320" 
d="M1242 473h-495v-477h-194v477h-481l2 194h479v510h199v-512h490v-192z" />
    <glyph glyph-name="comma" unicode="," horiz-adv-x="647" 
d="M81 226q0 96 70.5 169t179.5 73t177 -98t69 -236q0 -140 -99 -255.5t-238 -139.5l-64 -11l-13 89l31 4q41 7 59 17q69 40 120 127q9 31 19 59q-83 -24 -126 -24q-78 0 -131.5 65t-53.5 161z" />
    <glyph glyph-name="hyphen" unicode="-" horiz-adv-x="721" 
d="M647 547h-577v205h577v-205z" />
    <glyph glyph-name="period" unicode="." horiz-adv-x="644" 
d="M321 -33q-119 0 -185 75.5t-66 177.5t64 176.5t185 74.5q121 -1 187 -75t67 -176q0 -102 -66.5 -177.5t-185.5 -75.5z" />
    <glyph glyph-name="slash" unicode="/" horiz-adv-x="1098" 
d="M1011 1614l-837 -2050h-87l837 2050h87z" />
    <glyph glyph-name="zero" unicode="0" horiz-adv-x="1625" 
d="M1028 954q0 13 3 70q0 309 -53.5 410.5t-158 101.5t-157.5 -107q-59 -122 -58 -457v-155l-3 -194q-1 -327 55 -435t160 -110q104 0 160 114q55 114 55 444l-3 168v150zM820 1628q318 0 528 -239t210 -570t-212 -579t-528 -247q-317 0 -533.5 245.5t-216.5 574.5t217 572
t535 243z" />
    <glyph glyph-name="one" unicode="1" horiz-adv-x="1000" 
d="M312 1020q0 52 -9 75t-37 47t-170 117l-20 13q108 50 200 100t196 106q104 55 301 171v-1342q0 -98 7 -147t41 -68q15 -9 47 -15.5t45 -6.5h15v-70h-802v70h16q74 0 113 26t49 56.5t10 80.5l-2 74v713z" />
    <glyph glyph-name="two" unicode="2" horiz-adv-x="1416" 
d="M76 0v52l26 22q157 130 241 212t189 225t128 188q70 129 70 275t-78 249q-78 104 -208 104q-165 0 -261 -137l-20 -29l-52 33l13 28q89 192 250.5 303t366.5 111t357.5 -135t152.5 -338q1 -115 -63 -226t-279 -286q-127 -102 -290 -207l-35 -21h50l211 -3q129 0 214.5 9
t169.5 76q31 27 63 90l50 -22l-203 -573h-1063z" />
    <glyph glyph-name="three" unicode="3" horiz-adv-x="1490" 
d="M1416 532q0 -248 -216 -396t-483 -149q-266 0 -438 83q-205 98 -205 274q0 78 51 131.5t123 53.5t126 -51q55 -51 68 -108q37 -162 87 -228q51 -66 171 -66t176 103q46 81 46 229t-112.5 260t-280.5 112h-39v78h31q115 0 191.5 72t76.5 174t-70 174.5t-158 72.5t-146 -25
t-108 -88l-17 -22l-55 41l33 48q214 316 575 316q190 -1 326 -101t136 -278t-192 -281l-37 -20l37 -13q139 -50 221 -152t82 -244z" />
    <glyph glyph-name="four" unicode="4" horiz-adv-x="1581" 
d="M791 525v530l-501 -486l11 -44h490zM1261 373v-68q0 -96 8 -145t41 -69.5t106 -20.5h15v-70h-821v70h15q71 0 109 26q37 26 47 49t10 52v173h-669l-41 138q118 114 206 202t210 206t272 263q150 146 488 464l26 -11l-22 -105v-1002h236l-31 -152h-205z" />
    <glyph glyph-name="five" unicode="5" horiz-adv-x="1363" 
d="M1290 568q0 -250 -179 -411t-435 -161t-419 78q-192 94 -192 270q0 78 51.5 136t122.5 58t129.5 -56.5t65.5 -111.5q24 -155 84 -220t159 -65t164 59t65 168q0 192 -263 276q-176 57 -432 57l-52 -4l107 971h808l87 79l48 -18l-117 -475h-763l-17 -122l122 11q78 5 95 5
q296 0 515 -129q246 -145 246 -395z" />
    <glyph glyph-name="six" unicode="6" horiz-adv-x="1529" 
d="M1024 504q0 379 -235 376q-87 0 -138 -32t-67 -62q-16 -28 -23.5 -78t-7.5 -214t46 -274q59 -144 185 -144q13 2 22 2q135 13 185 140q33 86 33 286zM1464 566q0 -255 -196 -418t-476 -163t-497 203.5t-217 491.5q0 353 258 623q235 246 594 342l90 24l21 -57l-43 -26
q-133 -83 -240 -231q-72 -100 -111 -188.5t-59 -203.5l-8 -48l43 31q96 65 172 92t183 27q200 0 343 -147t143 -352z" />
    <glyph glyph-name="seven" unicode="7" horiz-adv-x="1379" 
d="M919 1207q-465 0 -527.5 -22t-123.5 -41q-59 -26 -111 -92l-26 -32l-53 35l218 557h1050l-21 -39q-100 -179 -196.5 -355.5t-174.5 -375.5t-126 -373.5t-96 -424.5l-9 -44h-540l13 39q55 171 336 567q61 87 210 271t225 273l48 57h-96z" />
    <glyph glyph-name="eight" unicode="8" horiz-adv-x="1451" 
d="M915 329q0 176 -240 285q-126 54 -250 109l-22 11l-15 -22q-83 -122 -83 -269t92.5 -256t251.5 -109q105 0 185.5 73t80.5 178zM636 1314q0 -88 87 -155q35 -26 321 -146l26 -11l13 20q52 82 52 202q-1 120 -67 206t-210 86q-85 0 -153.5 -57t-68.5 -145zM1379 538
q-1 -266 -191 -411t-476 -145t-456 120q-171 118 -171 340q1 106 63 198t135 136l39 24l-19 21q-135 153 -135 308q0 216 180.5 354t407.5 138t375 -94q172 -109 172 -305q1 -63 -27 -138t-91 -125l-22 -18l22 -15q94 -64 144 -178t50 -210z" />
    <glyph glyph-name="nine" unicode="9" horiz-adv-x="1440" 
d="M926 1056q0 471 -211 471q-22 0 -33 -2q-126 -20 -163 -144q-22 -73 -22 -255t41 -272q57 -124 201 -124q100 0 143 43q12 11 28 38q16 28 16 245zM1377 926q0 -344 -299 -617q-246 -224 -586 -322l-89 -26l-28 56l43 27q89 52 145 99t124.5 131.5t106.5 157.5t71 185
l13 43l-59 -26q-108 -46 -273 -46q-166 0 -318 138t-152 333q0 255 181 409t429 153q294 0 492.5 -190.5t198.5 -504.5z" />
    <glyph glyph-name="colon" unicode=":" horiz-adv-x="651" 
d="M323 -20q-119 0 -185 76t-66 178t64 176t185 74t187 -74t67 -177q0 -102 -66.5 -177.5t-185.5 -75.5zM323 627q-119 0 -185 75.5t-66 177.5t64 176.5t185 74.5q121 -1 187 -75t67 -176q0 -102 -66.5 -177.5t-185.5 -75.5z" />
    <glyph glyph-name="semicolon" unicode=";" horiz-adv-x="644" 
d="M78 271q0 97 71 170t180 73t177 -98t69 -238q0 -140 -99 -255t-239 -139l-63 -11l-13 90l31 4q118 20 189 166q4 17 9 37q-83 -24 -126 -24q-78 0 -132 64t-54 161zM321 1131q117 0 181 -72t64 -173t-64 -173t-180 -72t-181 73t-65 173t64 172t181 72z" />
    <glyph glyph-name="less" unicode="&#x3c;" horiz-adv-x="1296" 
d="M1220 -2l-1144 494v196l1142 486v-207l-913 -374l915 -397v-198z" />
    <glyph glyph-name="equal" unicode="=" horiz-adv-x="1296" 
d="M1257 270h-1185v192h1185v-192zM1257 712h-1185v192h1185v-192z" />
    <glyph glyph-name="greater" unicode="&#x3e;" horiz-adv-x="1296" 
d="M1222 492l-1144 -494v198l915 397l-912 374v207l1141 -486v-196z" />
    <glyph glyph-name="question" unicode="?" horiz-adv-x="1416" 
d="M579.5 440q115.5 0 177.5 -70t62 -168q0 -100 -62 -170t-175 -69q-113 0 -177.5 70.5t-64.5 168.5t62 168t177.5 70zM1351 1179q0 -256 -294 -353q-50 -17 -168 -27t-200.5 -62.5t-82.5 -146.5v-52h-94l-2 11l-11 111q0 78 36 162t75 126q113 109 229 218q43 65 43 162
t-66.5 152.5t-170.5 55.5q-137 0 -181 -94q-31 -65 -30 -239q0 -76 -49 -123t-123 -47t-130 53t-56 130q17 205 194 322q159 107 402 107t441 -111q238 -133 238 -355z" />
    <glyph glyph-name="at" unicode="@" horiz-adv-x="1597" 
d="M970 861q0 78 -32 129t-90 51q-100 0 -196 -168.5t-96 -332.5q0 -70 33.5 -120t105.5 -50q99 0 187 177t88 314zM1098 359q124 0 232 167t108 350q0 236 -178 372t-430 136t-438.5 -187t-186.5 -455t190.5 -462.5t464.5 -194.5t436 148q54 48 109 148h135
q-31 -52 -58 -102q-85 -118 -214 -192q-181 -105 -416 -104q-314 0 -536 221.5t-222 533.5t218 532t514 220t510 -168t213 -429q0 -229 -147 -409.5t-345 -180.5q-85 0 -127 83q-13 26 -24 85l-63 -70q-76 -89 -196 -89t-198.5 95.5t-78.5 224.5q0 190 153 326t294 136
t170 -94l22 -59l39 129l176 4l-159 -590q-7 -26 -6 -59q0 -66 39 -66z" />
    <glyph glyph-name="A" unicode="A" horiz-adv-x="1897" 
d="M935 634l-188 536l-189 -536h377zM1819 0h-908v74h32q41 0 65 6t44 36t20 64t-15 81l-96 266h-445l-65 -174q-15 -52 -15 -106q0 -114 57 -147t100 -26v-74h-519v70h18q119 0 178 106.5t83 185.5l342 943l-68 137l489 255l503 -1436l13 -43q8 -28 32 -70q42 -74 129 -74
h26v-74z" />
    <glyph glyph-name="B" unicode="B" horiz-adv-x="1751" 
d="M1163 488q0 227 -98 320q-83 81 -255 81h-28v-582q0 -203 150 -205q231 0 231 386zM819 983q148 0 205 72q57 71 57 201t-72 192t-185 62h-42v-527h37zM1662 465q0 -210 -152.5 -337.5t-439.5 -127.5h-989v74h15q69 0 110 30t50.5 61t9.5 75v1139q0 80 -34 111t-42 32
l-105 12v78h898q246 0 384 -91.5t138 -272.5q0 -92 -62 -171t-158 -112l-37 -13l33 -11q176 -57 264 -146q117 -120 117 -330z" />
    <glyph glyph-name="C" unicode="C" horiz-adv-x="1644" 
d="M970 -28q-397 0 -642 241t-245 589t260.5 587t623.5 239q131 0 239 -22t217 -46l74 2l35 5v-530h-79l-9 48q-33 183 -158 321t-287 137q-295 0 -345 -397q-16 -114 -16 -338t13 -329q53 -412 347 -414q172 -1 314 161t165 349l7 52h91l2 -573h-65l-296 -54
q-159 -28 -246 -28z" />
    <glyph glyph-name="D" unicode="D" horiz-adv-x="1858" 
d="M1255 784q-1 398 -105 564q-104 164 -296 164h-57v-1205q0 -94 31 -144q39 -65 139 -65q133 0 203 131q85 157 85 555zM1797 817q1 -385 -227 -601t-574 -216h-911v74h15q81 0 119 29.5t48 61t10 75.5v1139q0 80 -34 111t-43 32l-108 12v78h899q325 0 565.5 -234
t240.5 -561z" />
    <glyph glyph-name="E" unicode="E" horiz-adv-x="1666" 
d="M841 1514h-57v-553q63 -15 141.5 0t119 41t58 62t23.5 89h79v-521h-85q-7 68 -24.5 100.5t-66.5 71t-119 52.5t-95 12q-24 -2 -31 -1v-560q0 -87 46 -141t187 -55q140 1 273 101t200 246l24 50l74 -40l-126 -468h-1397v74h16q68 0 109 30t51 61t10 75v1139q0 80 -34 111
t-43 32l-104 12v78h813q281 0 307 2.5t56.5 11t45.5 17t54 35.5q48 -227 129 -425l-70 -37q-37 65 -109 136q-72 70 -148 102t-130 46t-177 14z" />
    <glyph glyph-name="F" unicode="F" horiz-adv-x="1544" 
d="M843 1514h-56v-553q62 -15 141 0t119 41t57.5 62t24.5 89h78v-521h-85q-7 68 -24 100.5t-66 71t-120 52.5t-95 12t-30 -1v-584q0 -134 52 -174q22 -15 61 -25t56 -10h16v-74h-904v74h15q68 0 109 30t51 61t10 75v1139q0 80 -34 111t-43 32l-104 12v78h813q281 0 307 2.5
t56.5 11t45.5 17t55 35.5q49 -232 128 -425l-70 -37q-37 65 -109 136q-72 70 -148 102t-130 46t-177 14z" />
    <glyph glyph-name="G" unicode="G" horiz-adv-x="1742" 
d="M1100 203q0 25 -6 85q0 190 -42 226t-117 35h-22v87h754v-80h-9q-30 -7 -57 -27q-26 -21 -26 -89v-316l-54 -26q-142 -68 -293 -99t-269 -32q-395 0 -639 242t-244 593t261.5 592.5t623.5 241.5q159 0 300 -32q167 -50 205.5 -54.5t62.5 -4.5l44 4v-503h-83l-8 39
q-37 174 -185.5 320t-285.5 146q-174 0 -268 -146q-115 -179 -116 -588q0 -325 55 -497q81 -257 288 -257q130 0 130 140z" />
    <glyph glyph-name="H" unicode="H" horiz-adv-x="1960" 
d="M1880 1532h-17q-95 0 -134.5 -35t-39.5 -118v-1072q0 -100 13 -140.5t53.5 -66.5t96.5 -26h15v-74h-856v74h15q24 0 76 28q33 24 44 54.5t11 78.5q-2 48 -2 72v556h-368v-556q0 -89 8.5 -144.5t54 -72t69.5 -16.5h16v-74h-859v74h16q68 0 110 30t53 65.5t11 76.5v1120
q0 88 -52 137q-20 17 -44 20t-89 11v78h860v-80h-17q-44 0 -56 -4t-46.5 -36t-34.5 -113v-414h368v445q0 66 -24.5 88t-32.5 28t-52 6h-18v80h852v-80z" />
    <glyph glyph-name="I" unicode="I" horiz-adv-x="1037" 
d="M972 0h-904v74h15q68 0 109 30t51 61t10 75v1139q0 80 -34 111t-43 32l-108 12v78h904v-80h-18q-48 0 -74 -4.5t-59.5 -35.5t-33.5 -113v-1072q0 -98 13 -138t37 -57.5t63 -27.5t56 -10h16v-74z" />
    <glyph glyph-name="J" unicode="J" horiz-adv-x="1418" 
d="M534 61q68 0 93 85q17 59 18 163v1070q0 135 -23 138l-151 17v78h869v-80h-18q-48 0 -71.5 -4.5t-57.5 -36t-34 -112.5v-854q0 -122 -12.5 -179.5t-66.5 -145.5t-206.5 -160.5t-328.5 -72.5q-177 1 -323 93t-146 254q0 92 48 141.5t126 49.5t131 -55.5t53 -133.5
q-2 -37 -3 -61q0 -194 103 -194z" />
    <glyph glyph-name="K" unicode="K" horiz-adv-x="1917" 
d="M1843 0h-871v74h15q31 0 66.5 25.5t35.5 100.5q-1 129 -93 324t-218 300l-26 21v-538q0 -98 13 -138t50 -67.5t63 -27.5h15v-74h-825v74h15q53 0 94 30t50.5 60t8.5 75t-1 68v1072q0 130 -54.5 141.5t-84.5 11.5h-18v80h841v-80h-17q-41 0 -64 -4.5t-54.5 -32.5
t-31.5 -116v-403l61 46q105 76 209 208t102 204q0 33 -19.5 56.5t-30.5 30.5t-72 13v78h621v-80h-17q-64 0 -111 -16q-113 -39 -242 -161q-113 -124 -124 -137l-35 -37l59 -50q81 -65 150 -148q93 -107 151 -214t147 -371t118 -282t109 -42h15v-74z" />
    <glyph glyph-name="L" unicode="L" horiz-adv-x="1618" 
d="M81 0v74h15q69 0 110 30t50.5 61t9.5 75v1139q0 80 -34 111t-42 32l-105 12v78h887v-80h-18q-48 0 -72 -4.5t-57.5 -36.5t-33.5 -112v-1072q0 -81 41.5 -136.5t128.5 -55.5q181 0 355 181q133 137 157 225l6 22l72 -35l-144 -508h-1326z" />
    <glyph glyph-name="M" unicode="M" horiz-adv-x="2185" 
d="M248 1529h-21v83h675l200 -714l220 714h687v-80h-18q-79 0 -119 -35.5t-40 -117.5l66 -1072q0 -63 20.5 -117.5t57.5 -80.5q17 -13 55.5 -24t66.5 -11h15v-74h-908v74h15q71 0 106.5 27.5t44 54.5t8.5 62l-4 104l-63 898l-390 -1281l-451 1294l-68 -906q0 -183 55 -218
t106 -35h22v-74h-508v74h14q52 0 84.5 16.5t61 53.5t42.5 91.5t14 82.5l76 924l5 83q0 110 -26.5 148.5t-46 47t-54.5 8.5z" />
    <glyph glyph-name="N" unicode="N" horiz-adv-x="1843" 
d="M1771 1534h-21q-39 0 -59 -5.5t-59 -35.5t-39 -173v-1320h-240l-904 1248v-902q0 -76 23.5 -143t53.5 -87q65 -41 132 -42h15v-74h-547v74h16q177 0 190.5 108t13.5 164v1033q0 25 -15 41t-74 68q-22 20 -72 33t-100 13h-17v78h808l608 -854v562q0 61 -17.5 112.5
t-55.5 76.5t-126 25h-15v78h501v-78z" />
    <glyph glyph-name="O" unicode="O" horiz-adv-x="1862" 
d="M1251 730q0 288 -11 392q-20 190 -79 285q-74 122 -218 122q-198 0 -270 -193q-48 -131 -48 -408v-118q0 -237 9 -329q17 -192 78 -287q76 -122 231 -122q216 0 277 248q31 122 31 410zM1793 810q1 -379 -253 -614t-601 -235t-606 239.5t-259 589.5t254 603.5t600 253.5
t605.5 -248.5t259.5 -588.5z" />
    <glyph glyph-name="P" unicode="P" horiz-adv-x="1616" 
d="M1048 1156q0 182 -66.5 268t-216.5 86h-24v-734h61q144 0 202 113q44 85 44 267zM1011 649q-108 0 -244 20h-24v-362q0 -81 8.5 -127t36.5 -66q56 -39 105 -40h16v-74h-841v74h15q58 0 94 37t45 78.5t9 117.5v1072q0 127 -51 140t-88 13h-18v80h763q296 0 466 -87
q222 -113 244 -379q-1 -227 -159 -362t-377 -135z" />
    <glyph glyph-name="Q" unicode="Q" horiz-adv-x="1888" 
d="M878 570q0 62 -35 115.5t-99 53.5t-112 -64q-11 -35 -2.5 -154t48.5 -279q24 -74 80 -124l20 -18l6 39q6 41 50 205t44 226zM1272 800q0 233 -13 342q-24 194 -87 289q-81 120 -235 120q-209 0 -277 -209q-37 -115 -37 -412l-2 -93v-27l28 14q83 32 152 32t147 -32
q114 -46 164 -160t49 -257l-17 -252v-46l19 17q109 96 109 674zM1817 813q1 -317 -161 -541t-473 -298l-35 -9l5 -15q30 -107 172 -107q78 0 121.5 51.5t43.5 125.5v19h111v-41q0 -146 -111 -255t-281 -109q-357 0 -422 298l-7 29l-33 6q-305 52 -490 268t-185 521
q0 373 249.5 636.5t632.5 263.5q340 0 602 -246t261 -597z" />
    <glyph glyph-name="R" unicode="R" horiz-adv-x="1954" 
d="M1059 1262q1 126 -75 187t-193 61h-24v-508l46 -2q107 0 176.5 68t69.5 194zM246 1379q0 155 -141 155h-18v78h861q248 0 377 -59q163 -76 200 -265q4 -16 4 -30v-27q0 -98 -58.5 -172t-154.5 -105l-26 -8l104 -104t108 -142q54 -86 148 -328t147 -272q28 -15 33 -16
l55 -8v-76h-857v74q118 26 118 148q0 220 -133 442t-229 221h-17v-578q0 -98 13 -138t37 -57.5t63 -27.5t57 -10h15v-74h-865v74h15q46 0 86 30t49 61t9 75v1139z" />
    <glyph glyph-name="S" unicode="S" horiz-adv-x="1357" 
d="M652 -39q-132 0 -283 31.5t-181 30.5t-77 -19l-24 -8v662h83l6 -31q50 -240 170 -396q135 -179 316 -179q96 0 160 68t63 133q0 118 -101 196q-57 44 -218 113l-80 35q-192 83 -288 181q-120 124 -120 294q0 235 172.5 398.5t424.5 163.5q68 0 217 -23t174 -23t45 7l22 9
v-532h-78l-9 39q-31 143 -104 247q-74 104 -138 144t-156 41q-92 0 -148 -64.5t-56 -160.5q0 -191 334 -281l39 -11q126 -35 236 -100.5t158 -141.5q78 -126 79 -272q0 -205 -153 -368q-87 -92 -220 -137.5t-265 -45.5z" />
    <glyph glyph-name="T" unicode="T" horiz-adv-x="1623" 
d="M1074 307q0 -100 20.5 -166.5t149.5 -66.5h15v-74h-904v74h15q71 0 111 30t49.5 61t9.5 75v1263l-24 -4q-106 -21 -178 -83q-72 -61 -115.5 -133t-56.5 -133l-83 16l109 481l69 -24q29 -11 77 -11h961q33 0 47 4t29 7l65 20l100 -490l-69 -14q-13 52 -64 132t-95 120
q-81 74 -212 106l-26 6v-1196z" />
    <glyph glyph-name="U" unicode="U" horiz-adv-x="1634" 
d="M1569 1540h-31q-34 0 -64 -37t-35 -61t-5 -58v-51l56 -714q0 -312 -113 -466q-139 -192 -471 -192q-405 0 -588 176q-157 150 -157 436v38q0 38 5 71l65 697q0 57 -7.5 82t-34.5 49t-93 24h-20v78h880v-76h-17q-76 0 -111 -33q-63 -57 -63 -124l-48 -832q0 -172 67 -266
q85 -115 282 -115t276 156q50 98 50 253l-54 763q0 111 -59 156q-59 44 -120 44h-35v74h445v-72z" />
    <glyph glyph-name="V" unicode="V" horiz-adv-x="1827" 
d="M1436 1425q0 104 -120 104h-22v83h471v-76l-29 -4q-75 -9 -141 -86q-40 -47 -72 -134l-560 -1397l-673 1464q-26 61 -62 93.5t-58.5 43.5t-82.5 18v78h915v-80q-25 -4 -58 -5.5t-54 -21t-21 -55.5t16 -71l281 -708l235 601q35 85 35 153z" />
    <glyph glyph-name="W" unicode="W" horiz-adv-x="2475" 
d="M78 1612h935v-76q-15 -1 -75 -8.5t-60 -85.5q0 -41 24 -100l248 -575l316 902l366 -889l194 492q33 84 33 140q-1 56 -17 79q-27 38 -116 38h-22v83h497v-76l-28 -4q-31 -4 -61 -9t-54 -22q-62 -47 -116 -189l-517 -1343l-344 859l-301 -865l-679 1416q-33 66 -75 105
t-148 50v78z" />
    <glyph glyph-name="X" unicode="X" horiz-adv-x="1976" 
d="M978 1532q-63 0 -63 -55q-2 -24 9 -50q20 -33 28 -48l137 -229l116 177q43 71 43 117t-28.5 68t-103.5 22l-22 2v76h551v-76h-20q-48 0 -75 -7t-64 -27t-109 -104t-92 -117l-143 -220l438 -734q87 -152 174 -203q78 -50 120 -50h15v-74h-1009v74h15q55 0 93 38t38 72
t-23 72t-29 51l-192 327l-196 -294q-44 -70 -44 -137t35 -93.5t72 -31.5l33 -4v-74h-610v74l35 7q49 9 79 23t96 56t112 93q46 50 105 139l229 342l-355 606q-38 70 -140 163q-20 17 -51 21t-82 10v78h896v-80h-18z" />
    <glyph glyph-name="Y" unicode="Y" horiz-adv-x="1777" 
d="M76 1612h957v-80h-18q-44 0 -58 -4t-36.5 -25t-22.5 -56t13 -68l218 -394l176 327q48 89 48 131q0 41 -21.5 65t-91.5 24h-16l-2 80h488v-76h-21q-57 0 -106 -28q-99 -55 -258 -355l-125 -234v-612q0 -98 13.5 -138t37.5 -57.5t59.5 -27.5t55.5 -10h15v-74h-893v74h15
q82 0 117.5 28.5t45 58t9.5 68.5l-2 78v484l-331 545l-44 78q-58 87 -110.5 100t-111.5 20v78z" />
    <glyph glyph-name="Z" unicode="Z" horiz-adv-x="1514" 
d="M364 1612h1015l-675 -1499h39q126 0 198 32q71 31 161 101t160 186t78 187l11 50h85l-37 -669h-1318l666 1503l-54 5q-164 0 -283 -70q-78 -48 -142 -138t-74 -147l-9 -40l-87 11l61 541q82 -53 205 -53z" />
    <glyph glyph-name="bracketleft" unicode="[" horiz-adv-x="825" 
d="M758 -436h-682v2048h673v-113h-270v-1821h279v-114z" />
    <glyph glyph-name="backslash" unicode="\" horiz-adv-x="936" 
d="M854 -11h-87l-667 1625h87z" />
    <glyph glyph-name="bracketright" unicode="]" horiz-adv-x="832" 
d="M756 -436h-682v114h279v1821h-270v113h673v-2048z" />
    <glyph glyph-name="asciicircum" unicode="^" horiz-adv-x="1000" 
d="M932 1150l-23 -26l-414 166l-393 -168l-17 26l414 460z" />
    <glyph glyph-name="underscore" unicode="_" horiz-adv-x="1418" 
d="M1429 -264h-1429v135h1429v-135z" />
    <glyph glyph-name="grave" unicode="`" horiz-adv-x="581" 
d="M505 1181l-21 -24l-22 13q-157 87 -312 174q-68 41 -68 118t46 113q44 35 106 35t91 -34t83 -157q54 -124 89 -219z" />
    <glyph glyph-name="a" unicode="a" horiz-adv-x="1374" 
d="M647 174q92 0 92 172v329l-29 -15q-86 -46 -132 -145t-46 -169t30.5 -121t84.5 -51zM390 -37q-142 0 -224.5 78.5t-82.5 201.5q1 123 79 203t237 160q4 2 309 141l28 13v118q0 100 -24 144t-107 46q-137 0 -135 -146q0 -54 1 -66q7 -81 -35 -143t-116 -62t-116.5 53.5
t-42.5 125.5q13 139 169 237.5t337 98.5q248 0 384 -108t136 -315v-410q-2 -39 -2 -71t13.5 -66.5t73.5 -34.5q17 0 35 7v-72l-28 -26q-95 -87 -249 -87q-70 0 -135 26q-87 35 -115 111l-15 39l-42 -44q-70 -74 -162.5 -113t-170.5 -39z" />
    <glyph glyph-name="b" unicode="b" horiz-adv-x="1549" 
d="M839 70q81 0 109 113q20 76 20 174v103l-1 130q0 181 -19 264q-31 129 -120 129q-105 0 -135 -164q-15 -81 -15 -305l-3 -107q0 -196 41.5 -266.5t122.5 -70.5zM237 1128q0 37 -11.5 68t-40.5 58.5t-59 45.5t-65 40l-35 22q279 76 639 279v-632l32 30q63 59 121 84
t141 25q192 0 331 -172t139 -405t-156.5 -417.5t-374.5 -184.5q-138 0 -235 57t-182 157l-23 28l-142 -211h-111q32 80 32 187l-2 105v771q2 28 2 65z" />
    <glyph glyph-name="c" unicode="c" horiz-adv-x="1204" 
d="M475 749q0 -211 135 -376.5t309 -165.5q54 0 102.5 15t72.5 39l45 46v-111l-39 -41q-92 -98 -192 -145t-233 -47q-244 0 -422.5 167.5t-178.5 408.5t183 429.5t399 188.5q174 0 311 -79q155 -87 155 -226q0 -96 -46 -158t-117 -62q-70 0 -123.5 36t-61 70.5t-7.5 48.5
l11 137q0 62 -28 98t-114 37q-161 0 -161 -310z" />
    <glyph glyph-name="d" unicode="d" horiz-adv-x="1518" 
d="M839 455v325q0 96 -29 155q-37 76 -115 76q-113 0 -133 -231q-6 -78 -6 -164v-92v-49q0 -200 28 -268t87 -68q11 0 33 5q92 24 120 120q15 52 15 191zM1455 0h-533l-55 -17v161l-48 -50q-99 -116 -259 -116q-161 0 -294 120q-172 157 -172 449q0 244 135 427t359 183
q116 0 222 -87l27 -22v35q2 37 2 67q0 79 -42 118.5t-119 88.5l-44 31q157 42 241 74t172.5 67.5t253.5 117.5v-1340q0 -102 16 -147t51 -58l72 -24l15 -4v-74z" />
    <glyph glyph-name="e" unicode="e" horiz-adv-x="1198" 
d="M802 848q0 230 -151 230q-100 0 -146 -87q-37 -70 -37 -181l3 -50l41 -11q33 -9 96 -9t128.5 31t65.5 77zM661 -37q-243 0 -416 169t-173 417t173 428t378 180t353 -126t148 -292l-2 -83h-645l9 -59q22 -159 151.5 -270t261.5 -111t177 45l46 46v-111l-39 -41
q-179 -192 -422 -192z" />
    <glyph glyph-name="f" unicode="f" horiz-adv-x="1098" 
d="M1089 1407q0 -59 -42.5 -110t-90.5 -51q-126 0 -202 128.5t-166 128.5q-66 0 -80 -100q-11 -57 45 -120q75 -71 85 -85q9 -13 18 -39l9 -26h217v-109h-213v-717q0 -105 12 -149t45 -64q33 -21 102 -20h15v-74h-773v74h15q52 0 90 24q37 24 47.5 55.5t9.5 80.5t-1 73v719
h-120v68l18 17q47 47 56 61q196 272 209 286q170 174 397 174q105 0 201 -62t97 -163z" />
    <glyph glyph-name="g" unicode="g" horiz-adv-x="1372" 
d="M963 -229q1 48 -31 84t-90 36t-204 -39t-221 -39t-123 24l-6 -20q-4 -17 -5 -26q0 -78 120.5 -142.5t246.5 -64.5t208 39q105 50 105 148zM850 774q0 148 -18 202q-32 102 -138 102t-136 -87q-20 -54 -20 -212t18 -223q33 -122 135 -122t137 117q22 75 22 223zM1296 1206
q0 -54 -36 -92t-80 -38t-108 44q-63 44 -94 38t-39 -14l-13 -15l22 -9q109 -31 192.5 -125.5t83.5 -221.5q0 -220 -178 -331q-139 -87 -334 -87q-124 0 -161 6.5t-139 43.5l-24 9l-26 -7q-37 -9 -61 -39t-24 -72t41 -74t89 -26q9 2 290 94q113 37 198 37q150 0 269 -95
t119 -260q0 -232 -173 -358t-451 -126t-430 81q-122 65 -122 174q0 65 61 126l19 20l-17 17q-98 98 -98 251q0 205 218 301l19 8l-19 15q-133 105 -133 282q1 179 165 291t375 112q33 0 76.5 -9t54.5 -9l22 -2l13 22q103 176 255 176q78 0 128 -42t50 -96z" />
    <glyph glyph-name="h" unicode="h" horiz-adv-x="1605" 
d="M1532 74v-74h-678v74h15l35 2q55 12 55 129l-3 102v421q0 17 3 37q0 187 -107 187q-76 0 -112 -74t-36 -170v-401q0 -98 4 -151.5t42.5 -67.5t42.5 -14h15v-74h-666v74h15q20 0 65.5 15t45.5 133l-2 85v771q2 31 2 57q0 68 -42 114q-73 78 -150 130q107 35 271 107
q163 72 212 97t132 66v-686l21 24q150 163 332 163q20 -2 30 -2q216 -22 279 -144q39 -76 39 -287v-410q0 -196 59 -218l65 -15h16z" />
    <glyph glyph-name="i" unicode="i" horiz-adv-x="917" 
d="M255 627q2 39 2 98t-24 79q-35 26 -72 56.5t-63 48.5l-24 17q325 97 625 251v-870q0 -100 4.5 -152.5t41.5 -65.5q52 -15 79 -15h15v-74h-717v74h15q20 0 57 11t50 48t13 100l-2 74v320zM483 1198q-117 0 -182.5 74t-65.5 176q-1 102 65 175q66 74 183.5 74t183 -74
t65.5 -175q0 -102 -66 -176t-183 -74z" />
    <glyph glyph-name="j" unicode="j" horiz-adv-x="871" 
d="M734 174q0 -109 -16 -256t-175.5 -290.5t-337.5 -161.5q-15 -2 -27 -2h-17q-139 0 -245 68t-106 189q0 74 50.5 120t124.5 46t196 -229q54 -102 115 -89q48 9 75.5 51t21 94.5t-53.5 146t-52.5 140.5t-5.5 103v523q0 127 -30.5 157.5t-59 57.5t-73.5 49l-35 18
q71 19 255 94t252 108t144 70v-1007zM505 1198q-117 0 -182.5 74t-65.5 176q-1 102 65 175q66 74 183.5 74t183 -74t65.5 -175q0 -102 -66 -176t-183 -74z" />
    <glyph glyph-name="k" unicode="k" horiz-adv-x="1677" 
d="M268 1132q0 54 -40 94q-40 42 -57.5 55t-74.5 44l-20 11q219 69 421 182.5t218 122.5v-1033l28 19q247 169 270 338q11 78 -100 79h-20v80h602v-78h-31q-126 0 -189 -40t-116 -89q-43 -45 -120 -122l327 -555q89 -164 207 -164l28 -2v-74h-618l-268 521v-214
q0 -100 4 -152.5t41 -65.5l72 -15h16v-74h-709v74q23 0 41 1q68 4 84 84q4 24 4 65l-2 83v771q2 32 2 54z" />
    <glyph glyph-name="l" unicode="l" horiz-adv-x="939" 
d="M861 74v-74h-708v74h15q13 0 59 20q35 20 44.5 50t9.5 85l-2 78v771q0 94 -46 139t-64 57t-91 62q311 116 650 307v-1336q0 -100 4 -152.5t41 -65.5l72 -15h16z" />
    <glyph glyph-name="m" unicode="m" horiz-adv-x="2313" 
d="M1669 795q0 181 -118 181q-61 0 -99 -51t-38 -119v-499q0 -209 59 -222q35 -7 72 -11h15v-74h-721v74h15q35 0 72 13q35 15 44.5 48t9.5 89l-2 83v440q2 28 2 53q0 176 -122 176q-70 0 -100 -59t-30 -137v-780h-589v74h16q48 0 89 15.5t41 132.5l-2 85v351q0 72 -36 108
t-84 64t-85 52q26 9 193 80t417 210v-192l24 24q146 146 339 146t324 -146l19 -21l24 28q120 142 314 142q194 -1 290 -103t96 -266v-477q0 -100 4 -152.5t41 -65.5l72 -15h16v-74h-582v795z" />
    <glyph glyph-name="n" unicode="n" horiz-adv-x="1629" 
d="M281 658q0 72 -36 108t-84 64t-85 52q26 9 193 80t417 210v-192l24 24q146 146 336 146q148 0 257 -100t109 -244v-499q0 -209 59 -222q35 -7 72 -11h15v-74h-721v74h15q33 0 72 13q35 15 44.5 48t9.5 89l-2 83v440q2 28 2 53q0 176 -122 176q-70 0 -100 -59t-30 -137
v-780h-589v74h16q48 0 89 15.5t41 132.5l-2 85v351z" />
    <glyph glyph-name="o" unicode="o" horiz-adv-x="1444" 
d="M730 1092q-86 0 -130 -86t-44 -333v-192q0 -205 24 -289q38 -140 144 -140t145 109q28 78 29 244l-3 172q0 242 -17 334q-35 181 -148 181zM726 1168q256 0 452 -168t195 -424q1 -256 -195 -432t-452 -177q-256 0 -452 181.5t-196 433.5t196 419t452 167z" />
    <glyph glyph-name="p" unicode="p" horiz-adv-x="1555" 
d="M1013 633q0 11 1 103t-23 159q-33 94 -122 94q-109 0 -137 -237q-11 -94 -11 -233l-2 -160q0 -139 24 -202q35 -92 124 -92t124 83q26 63 26 194l-4 181v110zM1011 1129q219 0 347 -171q128 -172 128 -412t-126 -393t-390 -177q-12 -2 -28 -2h-25q-96 0 -154 22l-42 17
v-137q0 -100 4.5 -152.5t41.5 -65.5q4 -2 45.5 -8.5t52.5 -6.5h15v-74h-767v74h16q65 0 95 15t40.5 48t10.5 89l-3 81v771q5 70 -13.5 116t-171.5 130l-17 11q250 74 439.5 164.5t205.5 97.5v-173l15 16q68 68 131 94t150 26z" />
    <glyph glyph-name="q" unicode="q" horiz-adv-x="1494" 
d="M696 1041q-78 1 -118 -59t-40 -241v-61q0 -61 2 -100l-2 -140q0 -200 40 -268t120 -67q78 0 108 95q22 68 22 214l-2 166l4 174q0 133 -24 198q-32 89 -110 89zM81 514q0 270 158 447.5t399 177.5q81 0 147.5 -20.5t234.5 -116.5l26 -15l19 11q42 19 111 80.5t96 93.5
v-1296q0 -124 10 -181t121 -57h15v-74h-747v74h49q28 0 57 12q55 23 55 141l-2 85v192l-52 -33q-109 -65 -222 -66q-203 0 -339 164.5t-136 380.5z" />
    <glyph glyph-name="r" unicode="r" horiz-adv-x="1183" 
d="M242 680q0 61 -7 100t-111 118l-52 30q155 58 342 135l244 109v-205l17 26q108 162 247 162q74 0 131.5 -49.5t57.5 -117.5t-44.5 -117.5t-95.5 -49.5t-97 33q-102 72 -114 72q-26 0 -49 -44.5t-23 -110.5l3 -464q0 -100 4 -152.5t41 -65.5q7 -2 47.5 -8.5t46.5 -6.5h15
v-74h-767v74h16q68 0 109 22.5t41 130.5l-2 80v373z" />
    <glyph glyph-name="s" unicode="s" horiz-adv-x="1143" 
d="M1068 401q0 -207 -175 -333q-150 -109 -350 -109q-103 -1 -163 11t-150 35t-94 23h-58v397h83l2 -20q15 -144 149 -257t235 -113q63 0 104.5 34.5t41.5 88.5q-1 54 -43 100t-166 91l-101 37q-296 108 -296 363q0 187 166 308q144 105 327 104q122 -1 211 -19t146 -18
l24 5v-338h-76l-7 19q-37 112 -118 196t-207 83q-48 0 -89 -32.5t-41 -78.5q0 -89 93 -137q17 -9 168 -57l65 -21q147 -49 233 -139t86 -223z" />
    <glyph glyph-name="t" unicode="t" 
d="M678 1011v-595q0 -142 38 -198t105 -57q15 0 43.5 10t37.5 12l15 7v-75l-19 -17q-72 -62 -176 -92t-184 -30q-114 11 -170 48q-56 36 -88 76q-50 61 -51 436v473h-151l255 244l345 320v-468l139 4l146 17l-31 -115h-254z" />
    <glyph glyph-name="u" unicode="u" horiz-adv-x="1634" 
d="M675 349q0 -74 34 -131t96 -57t99 43.5t37 102.5v362q0 94 -51 141t-108 83l-22 16q84 28 353 141l264 122v-865q0 -100 4.5 -152.5t41.5 -65.5q4 -2 44.5 -8.5t51.5 -6.5h15v-74h-501l-61 -26l-11 172l-18 -17q-87 -87 -167.5 -128.5t-187.5 -41.5q-168 0 -256 101
t-88 297l15 242q0 63 -13.5 106.5t-59.5 85.5t-53 46t-61 37l-22 13l303 133q39 16 136 66t186 95v-832z" />
    <glyph glyph-name="v" unicode="v" horiz-adv-x="1529" 
d="M1444 1046q-37 0 -88.5 -11.5t-128.5 -191.5l-447 -902l-473 876q-26 50 -51.5 101.5t-61.5 87.5t-100 35h-16v83h800v-83h-15q-65 0 -84 -12t-19 -35t13.5 -53t26.5 -59l167 -359l164 320q30 56 30 102t-18 70t-102 24h-19v85h422v-78z" />
    <glyph glyph-name="w" unicode="w" horiz-adv-x="2095" 
d="M2024 1048h-20q-20 0 -42.5 -1.5t-61.5 -46.5q-40 -45 -83 -139l-412 -887l-350 630l-319 -632l-472 943q-10 21 -36 55t-49.5 56t-84.5 22h-11v76h778v-74q-80 -12 -93.5 -24t-13.5 -48t33 -102l152 -318l301 605l329 -605l139 305q22 44 22 87t-16.5 65t-40.5 27.5
t-59 5.5h-15v76h425v-76z" />
    <glyph glyph-name="x" unicode="x" horiz-adv-x="1673" 
d="M1601 0h-893v74h15l59 7q52 9 52 48q0 29 -32 82l-142 214l-104 -140q-53 -67 -53 -119q0 -92 114 -92h19v-74h-551v74l22 2q52 0 76 12q111 56 168 110q57 55 87 94l172 209l-220 342q-24 41 -68 93q-88 107 -191 105h-22v83h821v-78q-54 -6 -66 -24t-12 -38t26 -60
l118 -161l87 111q37 44 37 78t-20 64q-20 28 -61 28h-15v80h449v-83h-15q-68 0 -125 -33q-56 -33 -126 -121l-166 -194l279 -386q52 -73 102 -139t79 -76q58 -18 85 -18h15v-74z" />
    <glyph glyph-name="y" unicode="y" horiz-adv-x="1474" 
d="M1403 1041h-15q-22 0 -36 -5t-52.5 -28t-68.5 -81t-59 -125l-318 -671q-81 -170 -176.5 -286.5t-195.5 -175.5t-220 -59q-118 0 -195.5 62t-77.5 150t54.5 128.5t124.5 40.5t207 -100q65 -48 115 -48q139 0 175 216q2 11 2 57t-59 176l-286 551q-63 134 -122 166t-104 32
h-22v83h800v-83h-20q-46 0 -65 -26q-11 -13 -11 -33t26 -80l159 -320l137 292q22 52 22 78t-21 59t-90 33h-15v80h407v-83z" />
    <glyph glyph-name="z" unicode="z" horiz-adv-x="1333" 
d="M665 81q85 -1 159 33t156 92t134 139.5t63 164.5l4 33h76v-543h-1181l608 1031l-35 2q-105 0 -212.5 -67.5t-151.5 -133.5t-76 -154h-74l70 446h1054l-616 -1043h22z" />
    <glyph glyph-name="braceleft" unicode="{" horiz-adv-x="930" 
d="M340 -148v497q0 124 -85 181.5t-194 57.5q139 17 227 87q37 37 47.5 71t10.5 74v487q0 85 23 140.5t88.5 97t132 53.5t162.5 12l90 2q-40 -2 -84 -43q-7 -7 -43 -55q-63 -85 -64 -194v-451q0 -109 -85 -200q-44 -46 -45 -48q-26 -20 -79 -31q54 -7 74 -21q26 -31 53 -53
q55 -41 69 -88t13 -127v-480q0 -89 59 -144.5t63 -59.5q46 -40 79 -44l-94 -2q-133 0 -248.5 43.5t-141.5 104.5q-28 90 -28 133zM842 1612h3h-3z" />
    <glyph glyph-name="bar" unicode="|" horiz-adv-x="265" 
d="M198 -436h-122v2048h122v-2048z" />
    <glyph glyph-name="braceright" unicode="}" horiz-adv-x="908" 
d="M584 349v-497q0 -47 -28 -133q-24 -57 -143 -102.5t-247 -45.5l-94 2q33 4 76 41q4 2 64 60t60 147v480q0 85 12 128.5t71 86.5q31 28 63 57q24 13 63 17q-54 11 -78 29q-28 31 -46 50q-85 92 -85 200v451q0 109 -54 180t-82 91q-30 20 -54 21l90 -2q109 0 167 -11
t125.5 -53t90.5 -98t22 -141v-433q0 -83 8 -120t51 -79q85 -69 227 -87q-112 0 -195.5 -58.5t-83.5 -180.5zM82 1612h-4h4z" />
    <glyph glyph-name="asciitilde" unicode="~" horiz-adv-x="1058" 
d="M752 1268q-72 0 -235.5 67.5t-226.5 67.5t-111 -26t-61 -76l-9 -31h-37l4 37q13 113 63 196q67 111 207 107q105 0 262.5 -68.5t203.5 -68.5t81 26t48 74l7 22h30l-4 -33q-13 -107 -62 -190.5t-115 -99.5q-15 -4 -45 -4z" />
    <glyph glyph-name="nonbreakingspace" unicode="&#xa0;" horiz-adv-x="1150" 
 />
    <glyph glyph-name="exclamdown" unicode="&#xa1;" horiz-adv-x="766" 
d="M693 24q1 -170 -89 -290t-226 -122q-136 0 -216.5 115t-80.5 281t76 338q109 207 168 336l13 28h96l10 -26q83 -146 140 -264q109 -226 109 -396zM383 787q-119 0 -184.5 72.5t-65.5 174.5t66.5 178t184.5 76t184 -76t66 -176q0 -101 -66 -175t-185 -74z" />
    <glyph glyph-name="cent" unicode="&#xa2;" horiz-adv-x="1237" 
d="M473 967q0 -205 99 -346t245 -172l20 -5l-288 807q-48 -48 -62 -112.5t-14 -171.5zM76 750q0 234 135 394q135 161 301 207l-89 261h87l89 -244l59 7q13 2 44 2q153 1 288 -89t134 -220q0 -94 -39 -154t-106 -60t-124.5 37t-70.5 87q-4 30 -4 42v126q0 46 -36 96t-93 50
l-26 -9l307 -858q72 1 114 17t85 53l30 26v-107l-98 -92q-20 -15 -37 -28t-41 -24l137 -390h-83l-128 353q-113 -52 -233 -52q-244 0 -423 167.5t-179 401.5z" />
    <glyph glyph-name="sterling" unicode="&#xa3;" horiz-adv-x="1516" 
d="M380 312q-49 0 -81.5 -33t-32.5 -87t43.5 -85t102.5 -31t112 28.5t88 69.5l13 16l-19 19q-46 48 -111.5 75.5t-114.5 27.5zM813 1529q-109 0 -181 -67.5t-72 -163.5t67 -202q78 -107 101 -140l13 -19h242v-113h-201q17 -53 30 -84q33 -74 33 -208l-2 -24l20 -11
q240 -131 290 -131q99 0 143 58t44 142q0 26 -2 40l-5 30l107 -39v-181q-17 -196 -116.5 -319t-262.5 -123q-98 0 -169 26t-153 92l-22 17l-18 -17q-57 -57 -135 -90t-141 -33q-133 0 -229 81q-96 82 -96 220t117.5 233.5t270.5 95.5q92 0 170 -24l26 -9l-17 35
q-13 24 -45 49.5t-56 43.5t-154 74t-153 75q-85 63 -129 135t-45 170q0 233 242 371q207 117 453 117t401 -87q190 -107 189 -318q0 -81 -36 -143t-114 -62t-127.5 45t-49.5 106l5 89q0 263 -233 263z" />
    <glyph glyph-name="yen" unicode="&#xa5;" horiz-adv-x="1784" 
d="M673 416h-233v153h233v202h-233v155h150l-248 410l-44 78q-58 87 -110.5 100t-111.5 20v78h957v-80h-18q-44 0 -58 -4t-36.5 -25t-22.5 -56t13 -68l218 -394l176 327q48 89 48 131q0 41 -21.5 65t-91.5 24h-16l-2 80h488v-76h-21q-57 0 -106 -28q-99 -55 -258 -355
l-122 -227h233v-155h-236v-202h236v-153h-236v-109q0 -98 13.5 -138t37.5 -57.5t59.5 -27.5t55.5 -10h15v-74h-893v74h15q82 0 117.5 28.5t45 58t9.5 68.5l-2 78v109z" />
    <glyph glyph-name="section" unicode="&#xa7;" horiz-adv-x="1198" 
d="M394 876q-119 -68 -119 -171t111 -180l368 -244l48 28q115 70 115 174q0 103 -98 166l-383 249zM1126 500q0 -112 -45.5 -185t-141.5 -139l-70 -45q135 -101 135 -257t-114 -257t-294 -101t-297.5 125.5t-117.5 308.5h194q-2 -14 -2 -44q1 -66 69 -127q68 -62 153 -62
q113 0 176 91q39 52 39 105q0 85 -100 150l-473 314q-159 103 -159 331q0 190 186 305l56 35q-115 102 -115 255t119.5 248.5t290.5 95.5t284.5 -120t113.5 -303h-194q2 16 2 64q0 114 -126 165q-49 20 -101 20t-102 -35t-68 -82t-17 -79q0 -115 133 -194l338 -209
q248 -151 248 -374z" />
    <glyph glyph-name="dieresis" unicode="&#xa8;" horiz-adv-x="915" 
d="M252 1253q-80 0 -124.5 51t-44.5 121t44.5 121t124.5 51t124 -51t44 -121t-44 -121t-124 -51zM670 1253q-80 0 -124.5 51t-44.5 121t44.5 121t124.5 51t124 -51t44.5 -121t-44 -121t-124.5 -51z" />
    <glyph glyph-name="copyright" unicode="&#xa9;" horiz-adv-x="1764" 
d="M863 298q-207 0 -312 157q-87 133 -87 344t112 363t317 152q139 0 246 -73t129 -202l4 -37h-93l-9 31q-20 92 -98.5 143t-180.5 51q-170 0 -257 -133q-74 -113 -74 -296t52 -284q70 -135 240 -135q33 -2 41 -2q102 0 187.5 76t109.5 190h93q-28 -157 -141.5 -251
t-278.5 -94zM886 85q341 0 541 224q181 203 181 496t-179 496q-200 227 -541 227q-340 0 -530 -216q-190 -214 -190 -508t178 -495q199 -224 540 -224zM888 0q-380 0 -605 251q-203 227 -203 555t201 554q224 253 605.5 252.5t605.5 -250.5q203 -227 203 -554t-203 -555
q-224 -253 -604 -253z" />
    <glyph glyph-name="ordfeminine" unicode="&#xaa;" horiz-adv-x="777" 
d="M362 1150q45 0 45 90v167q-45 -21 -74 -68q-30 -47 -30 -93q0 -96 59 -96zM272 1501q0 -104 -82 -104q-33 0 -55 26t-22 59q0 74 82 126t193 52t180.5 -54.5t69.5 -163.5v-235q0 -33 3 -39q4 -17 24 -22q17 -7 34 2v-37l-15 -15q-53 -44 -128 -44q-34 0 -73 16t-54 54
l-6 20l-22 -22q-79 -79 -187 -79q-56 0 -99 40.5t-43 110.5q0 94 144 170l191 89v61q0 46 -2 55q-11 44 -65 43q-70 0 -70 -78q2 -22 2 -31zM699 895h-610v72h610v-72z" />
    <glyph glyph-name="guillemotleft" unicode="&#xab;" horiz-adv-x="1193" 
d="M536 871l-333 -239l326 -231v-242l-464 362v231l471 348v-229zM1126 871l-333 -239l327 -231v-242l-464 362v231l470 348v-229z" />
    <glyph glyph-name="logicalnot" unicode="&#xac;" horiz-adv-x="1762" 
d="M1689 0h-133v562h-1482v124h1615v-686z" />
    <glyph glyph-name="registered" unicode="&#xae;" horiz-adv-x="1769" 
d="M926 830q251 0 251 185q0 99 -71 141t-176 42h-276v-368h272zM973 747h-319v-438h-94v970h355q355 0 355 -253q0 -174 -161 -242q20 -11 48 -27t52 -64t24 -118l-4 -107q0 -59 22 -122l21 -37h-100l-9 3q-20 39 -24 205.5t-80 208.5q-39 21 -86 21zM886 85q341 0 541 224
q181 203 181 496t-179 496q-200 227 -541 227q-340 0 -530 -216q-190 -214 -190 -508t178 -495q199 -224 540 -224zM888 0q-380 0 -605 251q-203 227 -203 555t201 554q224 253 605.5 252.5t605.5 -250.5q203 -227 203 -554t-203 -555q-224 -253 -604 -253z" />
    <glyph glyph-name="degree" unicode="&#xb0;" horiz-adv-x="620" 
d="M320.5 1231q69.5 0 108.5 43.5t39 105.5t-37 105.5t-109 43.5t-111 -43.5t-39 -105.5t39.5 -105.5t109 -43.5zM318 1144q-111 0 -172 68.5t-61 163.5t62 165.5t172 70.5t171 -69.5t61 -164.5q0 -94 -61 -164t-172 -70z" />
    <glyph glyph-name="plusminus" unicode="&#xb1;" horiz-adv-x="1021" 
d="M939 0h-865v124h865v-124zM946 608h-369v-355h-141v355h-344v139h344v373h144v-373h366v-139z" />
    <glyph glyph-name="acute" unicode="&#xb4;" horiz-adv-x="568" 
d="M501 1462q0 -76 -64 -116.5t-157 -88.5t-158 -87l-22 -13l-22 24l9 19q39 110 91 224t80 150q30 36 101 36q28 0 85 -20t57 -128z" />
    <glyph glyph-name="mu" unicode="&#xb5;" horiz-adv-x="1320" 
d="M425 -33q-61 0 -137 32t-120 97v-83q0 -65 39 -170t39 -177t-30.5 -117.5t-80.5 -45.5t-80.5 40.5t-30.5 102.5t17 119q50 163 53 174l6 61v1124h190v-778q0 -98 57 -168.5t147 -70.5q90 1 186 73t96 164v780h185v-878q0 -72 39 -134t98 -49q78 15 98 98l20 59h39
l-13 -67q-17 -81 -97.5 -136.5t-160.5 -55.5t-147.5 67.5t-67.5 150.5l-57 -61q-65 -65 -145.5 -108t-141.5 -43z" />
    <glyph glyph-name="paragraph" unicode="&#xb6;" horiz-adv-x="1209" 
d="M1133 -414h-233v1874h-153v-1874h-231v1153q-176 0 -304.5 126t-128.5 307t127.5 310.5t316.5 129.5h606v-2026z" />
    <glyph glyph-name="periodcentered" unicode="&#xb7;" horiz-adv-x="644" 
d="M321 612q-119 0 -185 76t-66 178t64 176t185 74t187 -74t67 -177q0 -102 -66.5 -177.5t-185.5 -75.5z" />
    <glyph glyph-name="periodcentered" unicode="&#x2219;" horiz-adv-x="644" 
d="M321 612q-119 0 -185 76t-66 178t64 176t185 74t187 -74t67 -177q0 -102 -66.5 -177.5t-185.5 -75.5z" />
    <glyph glyph-name="ordmasculine" unicode="&#xba;" horiz-adv-x="830" 
d="M510 1401q0 135 -21 181t-71 46t-67.5 -59t-17.5 -123v-137q0 -105 16.5 -165.5t72.5 -60.5t73 50t17 135l-2 89v44zM760 1358q0 -132 -102 -226.5t-236 -94.5t-235.5 95t-101.5 228t103.5 221t235.5 88t234 -89.5t102 -221.5zM719 895h-610v72h610v-72z" />
    <glyph glyph-name="guillemotright" unicode="&#xbb;" horiz-adv-x="1200" 
d="M547 521l-464 -362v242l329 231l-336 239v229l471 -348v-231zM1137 521l-464 -362v242l327 231l-333 239v229l470 -348v-231z" />
    <glyph glyph-name="questiondown" unicode="&#xbf;" horiz-adv-x="1446" 
d="M1373 7q0 -203 -181 -321t-428 -117q-247 0 -450 113q-242 135 -242 364q0 259 301 359q50 17 169.5 27t204.5 64t85 147v56h96l2 -13l11 -113q0 -76 -38 -164.5t-75 -127.5q-118 -113 -233 -224q-46 -68 -46 -166t67.5 -154.5t174.5 -56.5q142 0 185 96q31 65 31 244
q0 76 51 125t126 49t132 -54.5t57 -132.5zM1105 1042q-1 -101 -65 -173t-180 -72t-181 73t-65 173t64 172t181 72.5t181 -71.5t65 -174z" />
    <glyph glyph-name="Agrave" unicode="&#xc0;" horiz-adv-x="1880" 
d="M935 634l-188 536l-189 -536h377zM1819 0h-908v74h32q41 0 65 6t44 36t20 67t-15 78l-96 266h-445l-65 -174q-17 -59 -16 -109q2 -112 73 -152q42 -25 85 -18v-74h-519v70h18q119 0 202 150q35 63 59 142l342 943l-68 137l489 255l503 -1436l13 -43q8 -28 32 -70
q42 -74 129 -74h26v-74zM625 2050q1 76 45 113q44 35 106 35t92 -34q28 -34 82 -157q54 -124 89 -218l9 -20l-22 -24l-22 13q-157 87 -311 175q-68 41 -68 117z" />
    <glyph glyph-name="Aacute" unicode="&#xc1;" horiz-adv-x="1882" 
d="M935 634l-188 536l-189 -536h377zM1819 0h-908v74h32q41 0 65 6t44 36t20 67t-15 78l-96 266h-445l-65 -174q-17 -59 -16 -109q2 -112 73 -152q42 -25 85 -18v-74h-519v70h18q119 0 202 150q35 63 59 142l342 943l-68 137l489 255l503 -1436l13 -43q8 -28 32 -70
q42 -74 129 -74h26v-74zM1109 2050q0 -76 -64 -116t-157 -88t-158 -88l-22 -13l-22 24l9 20q39 109 91 223t80 151q29 36 101 35q28 0 53 -8q89 -34 89 -140z" />
    <glyph glyph-name="Acircumflex" unicode="&#xc2;" horiz-adv-x="1875" 
d="M935 634l-188 536l-189 -536h377zM1819 0h-908v74h32q41 0 65 6t44 36t20 67t-15 78l-96 266h-445l-65 -174q-17 -59 -16 -109q2 -112 73 -152q42 -25 85 -18v-74h-519v70h18q119 0 202 150q35 63 59 142l342 943l-68 137l489 255l503 -1436l13 -43q8 -28 32 -70
q42 -74 129 -74h26v-74zM1351 1771l-24 -26l-414 166l-392 -168l-18 26l414 460z" />
    <glyph glyph-name="Atilde" unicode="&#xc3;" horiz-adv-x="1886" 
d="M935 634l-188 536l-189 -536h377zM1819 0h-908v74h32q41 0 65 6t44 36t20 67t-15 78l-96 266h-445l-65 -174q-17 -59 -16 -109q2 -112 73 -152q42 -25 85 -18v-74h-519v70h18q119 0 202 150q35 63 59 142l342 943l-68 137l489 255l503 -1436l13 -43q8 -28 32 -70
q42 -74 129 -74h26v-74zM1150 1767q-72 -1 -235 67t-227 68t-111 -26q-48 -26 -61 -76l-8 -31h-37l4 37q13 113 63 196t133 100q39 7 74 7q105 0 262 -69q157 -68 203 -68t82 26q35 26 48 74l6 22h31l-4 -33q-13 -107 -62 -191t-115 -99q-15 -4 -46 -4z" />
    <glyph glyph-name="Adieresis" unicode="&#xc4;" horiz-adv-x="1899" 
d="M747.5 1745q-69.5 0 -109 44.5t-39.5 106.5t39.5 108t109 46t108.5 -44.5t39 -106.5t-39 -108t-108.5 -46zM1115.5 1745q-69.5 0 -109 44.5t-39.5 106.5t39.5 108t109 46t109 -44.5t39.5 -106.5t-39.5 -108t-109 -46zM935 634l-188 536l-189 -536h377zM1819 0h-908v74h32
q41 0 65 6t44 36t20 64t-15 81l-96 266h-445l-65 -174q-15 -52 -15 -106q0 -114 57 -147t100 -26v-74h-519v70h18q119 0 178 106.5t83 185.5l342 943l-68 137l489 255l503 -1436l13 -43q8 -28 32 -70q42 -74 129 -74h26v-74z" />
    <glyph glyph-name="Aring" unicode="&#xc5;" horiz-adv-x="1886" 
d="M944 1824q62 0 97 39t35 93.5t-35 93.5t-97 39t-96.5 -39t-34.5 -93.5t34.5 -93.5t96.5 -39zM1148 1952q0 -85 -54 -146t-151 -61q-98 0 -152.5 62t-54.5 146t53.5 146t151.5 62t152.5 -62t54.5 -147zM935 634l-188 536l-189 -536h377zM1819 0h-908v74h32q41 0 65 6
t44 36t20 64t-15 81l-96 266h-445l-65 -174q-15 -52 -15 -106q0 -114 57 -147t100 -26v-74h-519v70h18q119 0 178 106.5t83 185.5l342 943l-68 137l489 255l503 -1436l13 -43q8 -28 32 -70q42 -74 129 -74h26v-74z" />
    <glyph glyph-name="AE" unicode="&#xc6;" horiz-adv-x="2607" 
d="M1174 634v536l-379 -536h379zM1795 1514h-56v-553q62 -15 141 0t119 41t57.5 62t24.5 89h78v-521h-85q-7 68 -24 100.5t-66 71t-120 52.5q-70 14 -94 12t-31 -1v-560q0 -87 46 -142t187 -54q140 1 272 101t201 246l23 50l75 -40l-127 -468h-1494l26 74h32q41 0 66.5 5
t57.5 37q74 74 73 145v266h-462l-127 -174q-22 -28 -45.5 -94.5t-23.5 -104.5t33 -62.5t78 -17.5l-26 -74h-515l26 70h16q63 0 140 50q76 50 145 135q65 89 79 107l675 943l35 74q0 80 -34 111t-43 32l-104 12v78h813q281 0 332 5t132 61q49 -232 128 -425l-69 -37
q-37 65 -110 136q-72 70 -148 102t-130 46t-177 14z" />
    <glyph glyph-name="Ccedilla" unicode="&#xc7;" horiz-adv-x="1653" 
d="M821 -403q88 0 88 69t-90 81q-52 -3 -74 -6l57 246q-320 48 -523 279t-203 563t259.5 565.5t625.5 233.5q131 0 238.5 -22t216.5 -46l74 2l35 5v-530h-78l-9 48q-32 183 -158 321t-288 137q-293 0 -345 -397q-15 -114 -15 -338t13 -329q53 -412 346 -414q173 -1 315 161
t165 349l6 52h92l2 -573h-66l-296 -54q-159 -28 -217 -28h-68q-21 0 -72 6l9 -107h17q152 0 183 -55.5t31 -103.5t-40 -94t-102.5 -68.5t-143 -22.5t-124.5 15q-83 28 -107 112q-7 20 18.5 50t64.5 24t72 -68.5t91 -62.5z" />
    <glyph glyph-name="Egrave" unicode="&#xc8;" horiz-adv-x="1653" 
d="M841 1514h-57v-553q63 -15 141 0q141 27 177 103q17 36 24 89h79v-521h-85q-7 68 -24 100q-16 32 -66 72q-50 38 -120 52t-95 12q-24 -2 -31 -1v-560q0 -87 46 -141t187 -55q140 1 273 101t200 246l24 50l74 -40l-126 -468h-1397v74h16q70 0 110 30t50 60q10 32 10 76
v1139q0 82 -45 121q-23 21 -57 25l-79 9v78h813q281 0 307 2t56 11t46 18q15 9 54 35q48 -227 129 -425l-70 -37q-37 65 -109 136q-72 70 -148 102t-130 46t-177 14zM481 2050q0 76 45 113q45 35 107 35q63 0 91 -34t82 -157q54 -124 89 -218l9 -20l-22 -24l-21 13
q-157 87 -312 175q-68 41 -68 117z" />
    <glyph glyph-name="Eacute" unicode="&#xc9;" horiz-adv-x="1692" 
d="M861 1514h-57v-553q63 -15 141 0q138 26 177 103q17 36 24 89h78v-521h-85q-7 68 -23 100t-66 72q-50 38 -121 52t-95 12t-30 -1v-560q0 -87 46 -142t187 -54q140 1 273 101t200 246l24 50l74 -40l-126 -468h-1397v74h15q69 0 110 30q40 30 50 60q10 32 10 76v1139
q0 82 -45 121q-23 21 -50 24t-86 10v78h813q282 0 308 2t56 11q31 9 46 18t54 35q48 -227 129 -425l-70 -37q-37 65 -110 136q-73 70 -149 102t-128 46q-54 14 -177 14zM1076 2032q0 -76 -64 -116t-157 -88t-158 -87l-22 -13l-21 24l8 19q38 109 90 223t82 151q30 36 101 36
q28 0 52 -9q89 -34 89 -140z" />
    <glyph glyph-name="Ecircumflex" unicode="&#xca;" horiz-adv-x="1647" 
d="M841 1514h-57v-553q63 -15 141 0q141 27 177 103q17 36 24 89h79v-521h-85q-7 68 -24 100q-16 32 -66 72q-50 38 -120 52t-95 12q-24 -2 -31 -1v-560q0 -87 46 -141t187 -55q140 1 273 101t200 246l24 50l74 -40l-126 -468h-1397v74h16q70 0 110 30t50 60q10 32 10 76
v1139q0 82 -45 121q-23 21 -57 25l-79 9v78h813q281 0 307 2t56 11t46 18q15 9 54 35q48 -227 129 -425l-70 -37q-37 65 -109 136q-72 70 -148 102t-130 46t-177 14zM1148 1771l-24 -26l-414 166l-392 -168l-17 26l414 460z" />
    <glyph glyph-name="Edieresis" unicode="&#xcb;" horiz-adv-x="1647" 
d="M841 1514h-57v-553q63 -15 141 0q141 27 177 103q17 36 24 89h79v-521h-85q-7 68 -24 100q-16 32 -66 72q-50 38 -120 52t-95 12q-24 -2 -31 -1v-560q0 -87 46 -141t187 -55q140 1 273 101t200 246l24 50l74 -40l-126 -468h-1397v74h16q70 0 110 30t50 60q10 32 10 76
v1139q0 82 -45 121q-23 21 -57 25l-79 9v78h813q281 0 307 2t56 11t46 18q15 9 54 35q48 -227 129 -425l-70 -37q-37 65 -109 136q-72 70 -148 102t-130 46t-177 14zM486 1743q-80 0 -124 51t-44 121t45 121t124 51t123 -51t46 -121q0 -70 -45 -121t-125 -51zM904 1743
q-80 0 -124 51t-44 121t45 121t124 51t124 -51t45 -121t-45 -121t-125 -51z" />
    <glyph glyph-name="Igrave" unicode="&#xcc;" 
d="M972 0h-904v74h15q70 0 110 30t50 60q10 32 10 76v1139q0 82 -45 121q-23 21 -59 25l-81 9v78h904v-80h-18q-48 0 -74 -4q-58 -10 -81 -81q-12 -35 -12 -68v-1072q0 -98 13 -138q13 -39 37 -57t63 -28t56 -10h16v-74zM344 2050q0 76 44 113q44 35 108 35q62 0 90 -34
t83 -157q54 -124 89 -218l9 -20l-22 -24l-22 13q-157 87 -311 175q-68 41 -68 117z" />
    <glyph glyph-name="Iacute" unicode="&#xcd;" 
d="M972 0h-904v74h15q70 0 110 30t50 60q10 32 10 76v1139q0 82 -45 121q-23 21 -59 25l-81 9v78h904v-80h-18q-48 0 -74 -4q-58 -10 -81 -81q-12 -35 -12 -68v-1072q0 -98 13 -138q13 -39 37 -57t63 -28t56 -10h16v-74zM789 2050q-1 -76 -65 -116t-156 -88t-158 -88
l-22 -13l-22 24l9 20q39 109 90 223t81 151q30 36 101 35q28 0 52 -8q90 -33 90 -140z" />
    <glyph glyph-name="Icircumflex" unicode="&#xce;" 
d="M972 0h-904v74h15q70 0 110 30t50 60q10 32 10 76v1139q0 82 -45 121q-23 21 -59 25l-81 9v78h904v-80h-18q-48 0 -74 -4q-58 -10 -81 -81q-12 -35 -12 -68v-1072q0 -98 13 -138q13 -39 37 -57t63 -28t56 -10h16v-74zM972 1771l-24 -26l-414 166l-392 -168l-18 26
l414 460z" />
    <glyph glyph-name="Idieresis" unicode="&#xcf;" 
d="M972 0h-904v74h15q70 0 110 30t50 60q10 32 10 76v1139q0 82 -45 121q-23 21 -59 25l-81 9v78h904v-80h-18q-48 0 -74 -4q-58 -10 -81 -81q-12 -35 -12 -68v-1072q0 -98 13 -138q13 -39 37 -57t63 -28t56 -10h16v-74zM148 1909q0 71 45 121t124 50t123 -50
q44 -52 46 -122q0 -70 -45 -120q-45 -52 -125 -52t-124 52t-44 121zM566 1909q0 71 45 121t124 50t124 -50q45 -52 45 -122t-45 -120q-45 -52 -125 -52t-124 52t-44 121z" />
    <glyph glyph-name="Ntilde" unicode="&#xd1;" horiz-adv-x="1843" 
d="M1771 1534h-21q-39 0 -59 -6t-48 -27q-50 -39 -50 -181v-1320h-240l-904 1248v-902q0 -76 23 -144q24 -68 54 -86q65 -41 132 -42h15v-74h-547v74h16q177 0 196 147q9 69 8 125v1033q0 25 -15 41t-74 68q-22 20 -72 33t-100 13h-17v78h808l608 -854v562q0 60 -18 112
t-53 76q-36 24 -128 26h-15v78h501v-78zM1190 1756q-72 0 -236 68t-226 68q-64 0 -112 -27q-48 -26 -60 -76l-9 -31h-37l4 37q13 113 63 196q67 111 207 107q105 0 262 -69q158 -69 204 -69t81 27q35 26 48 74l7 22h30l-4 -33q-13 -106 -62 -190t-115 -100q-15 -4 -45 -4z
" />
    <glyph glyph-name="Ograve" unicode="&#xd2;" horiz-adv-x="1856" 
d="M1251 730q0 288 -11 392q-20 190 -79 285q-74 122 -218 122q-198 0 -270 -193q-48 -131 -48 -408v-118q0 -237 9 -329q17 -192 78 -287q76 -122 231 -122q216 0 277 248q31 122 31 410zM1793 810q1 -379 -253 -614t-601 -235q-347 -1 -606 239t-259 590t254 603
q254 254 600 254q346 -1 606 -249q259 -248 259 -588zM710 2050q0 76 44 113q44 35 108 35q62 0 90 -34t83 -157q54 -124 89 -218l9 -20l-22 -24l-22 13q-157 87 -311 175q-68 41 -68 117z" />
    <glyph glyph-name="Oacute" unicode="&#xd3;" horiz-adv-x="1849" 
d="M1251 730q0 288 -11 392q-20 190 -79 285q-74 122 -218 122q-198 0 -270 -193q-48 -131 -48 -408v-118q0 -237 9 -329q17 -192 78 -287q76 -122 231 -122q216 0 277 248q31 122 31 410zM1793 810q1 -379 -253 -614t-601 -235q-347 -1 -606 239t-259 590t254 603
q254 254 600 254q346 -1 606 -249q259 -248 259 -588zM1122 2050q0 -76 -64 -116t-157 -88t-158 -88l-22 -13l-22 24l9 20q38 109 90 223t81 151q29 36 101 35q28 0 53 -8q89 -34 89 -140z" />
    <glyph glyph-name="Ocircumflex" unicode="&#xd4;" horiz-adv-x="1849" 
d="M1251 730q0 288 -11 392q-20 190 -79 285q-74 122 -218 122q-198 0 -270 -193q-48 -131 -48 -408v-118q0 -237 9 -329q17 -192 78 -287q76 -122 231 -122q216 0 277 248q31 122 31 410zM1793 810q1 -379 -253 -614t-601 -235q-347 -1 -606 239t-259 590t254 603
q254 254 600 254q346 -1 606 -249q259 -248 259 -588zM1325 1771l-24 -26l-414 166l-392 -168l-18 26l414 460z" />
    <glyph glyph-name="Otilde" unicode="&#xd5;" horiz-adv-x="1862" 
d="M1251 730q0 288 -11 392q-20 190 -79 285q-74 122 -218 122q-198 0 -270 -193q-48 -131 -48 -408v-118q0 -237 9 -329q17 -192 78 -287q76 -122 231 -122q216 0 277 248q31 122 31 410zM1793 810q1 -379 -253 -614t-601 -235q-347 -1 -606 239t-259 590t254 603
q254 254 600 254q346 -1 606 -249q259 -248 259 -588zM1137 1739q-72 -1 -235 67q-162 68 -226 68t-112 -26t-61 -77l-8 -30h-37l4 37q13 114 63 196t133 100q39 7 74 7q106 0 262 -69t203 -69q47 1 82 27t48 74l6 21h31l-4 -32q-12 -107 -62 -191t-115 -99q-15 -4 -46 -4z
" />
    <glyph glyph-name="Odieresis" unicode="&#xd6;" horiz-adv-x="1862" 
d="M754 1745q-70 0 -109 43.5t-39 105.5t39 108t108 46t108 -46t39 -107t-38 -105.5t-108 -44.5zM1120 1745q-70 0 -109 43.5t-39 105.5t39 108t108 46t108 -46t39 -107t-38 -105.5t-108 -44.5zM1251 730q0 288 -11 392q-20 190 -79 285q-74 122 -218 122q-198 0 -270 -193
q-48 -131 -48 -408v-118q0 -237 9 -329q17 -192 78 -287q76 -122 231 -122q216 0 277 248q31 122 31 410zM1793 810q1 -379 -253 -614t-601 -235t-606 239.5t-259 589.5t254 603.5t600 253.5t605.5 -248.5t259.5 -588.5z" />
    <glyph glyph-name="Oslash" unicode="&#xd8;" horiz-adv-x="1875" 
d="M1251 709q0 267 -9 391t-44 222l-470 -1152q74 -98 215 -98q216 0 277 248q31 122 31 389zM625 928v-118q0 -218 8 -330t47 -216l470 1157q-70 109 -207 108q-198 0 -270 -193q-48 -131 -48 -408zM937 1647q141 0 285 -52l94 229h87l-107 -262q220 -105 358.5 -307.5
t138.5 -444.5q1 -379 -253 -614t-597 -235q-146 0 -283 43l-94 -231h-87l107 260q-228 101 -370 303t-142 448q0 355 254 609t609 254z" />
    <glyph glyph-name="Ugrave" unicode="&#xd9;" horiz-adv-x="1640" 
d="M1569 1540h-31q-34 0 -64 -36t-35 -62q-5 -24 -5 -58v-51l56 -714q0 -312 -113 -466q-139 -192 -471 -192q-405 0 -588 176q-157 150 -157 436v51q0 25 5 58l65 697q0 57 -8 82q-22 70 -127 73h-20v78h880v-76h-17q-71 0 -111 -33q-63 -57 -63 -124l-48 -832
q0 -172 67 -266q85 -115 282 -115t276 156q50 98 50 253l-54 763q0 111 -59 155q-59 45 -120 45h-35v74h445v-72zM1068 1769l-22 -24l-22 13q-157 87 -312 175q-68 41 -68 117t46 113q44 35 106 35t91 -34t83 -157q54 -124 89 -218z" />
    <glyph glyph-name="Uacute" unicode="&#xda;" horiz-adv-x="1640" 
d="M1569 1540h-31q-34 0 -64 -36t-35 -62q-5 -24 -5 -58v-51l56 -714q0 -312 -113 -466q-139 -192 -471 -192q-405 0 -588 176q-157 150 -157 436v51q0 25 5 58l65 697q0 57 -8 82q-22 70 -127 73h-20v78h880v-76h-17q-71 0 -111 -33q-63 -57 -63 -124l-48 -832
q0 -172 67 -266q85 -115 282 -115t276 156q50 98 50 253l-54 763q0 111 -59 155q-59 45 -120 45h-35v74h445v-72zM702 1789q39 109 90 223q50 114 80 151q30 35 94 35t107 -36t43 -112t-64 -116t-158 -88q-93 -48 -158 -88l-21 -13l-22 24z" />
    <glyph glyph-name="Ucircumflex" unicode="&#xdb;" horiz-adv-x="1640" 
d="M1569 1540h-31q-34 0 -64 -36t-35 -62q-5 -24 -5 -58v-51l56 -714q0 -312 -113 -466q-139 -192 -471 -192q-405 0 -588 176q-157 150 -157 436v51q0 25 5 58l65 697q0 57 -8 82q-22 70 -127 73h-20v78h880v-76h-17q-71 0 -111 -33q-63 -57 -63 -124l-48 -832
q0 -172 67 -266q85 -115 282 -115t276 156q50 98 50 253l-54 763q0 111 -59 155q-59 45 -120 45h-35v74h445v-72zM1285 1771l-24 -26l-413 166l-393 -168l-17 26l414 460z" />
    <glyph glyph-name="Udieresis" unicode="&#xdc;" horiz-adv-x="1638" 
d="M760.5 1745q-69.5 0 -109 44.5t-39.5 106.5t39.5 108t109 46t109 -44.5t39.5 -106.5t-39.5 -108t-109 -46zM1128.5 1745q-69.5 0 -109 44.5t-39.5 106.5t39.5 108t109 46t109 -44.5t39.5 -106.5t-39.5 -108t-109 -46zM1569 1540h-31q-34 0 -64 -37t-35 -61t-5 -58v-51
l56 -714q0 -312 -113 -466q-139 -192 -471 -192q-405 0 -588 176q-157 150 -157 436v38q0 38 5 71l65 697q0 57 -7.5 82t-34.5 49t-93 24h-20v78h880v-76h-17q-76 0 -111 -33q-63 -57 -63 -124l-48 -832q0 -172 67 -266q85 -115 282 -115t276 156q50 98 50 253l-54 763
q0 111 -59 156q-59 44 -120 44h-35v74h445v-72z" />
    <glyph glyph-name="germandbls" unicode="&#xdf;" horiz-adv-x="1583" 
d="M272 726q0 28 -19 70t-41 62t-55 40.5t-59 38.5l-28 19l37 22q57 31 119 82t133 156q174 251 190 266q70 72 171 114t206 42q162 0 280 -96t119 -274q0 -92 -78.5 -179t-187.5 -119l-35 -11l33 -3q100 0 175 -34.5t147 -104.5q133 -129 133 -345t-83 -350
q-127 -209 -351 -379t-409 -170q-131 1 -225 53t-95 156q0 61 42.5 105.5t103.5 44.5q83 0 217 -152q59 -68 127 -59q142 17 196 122t54 317t-71.5 460.5t-127.5 284.5t-77 43l-26 6l32 11q81 26 96 35q68 41 68 184t-49 241t-154 98q-72 0 -116.5 -65.5t-44.5 -153.5
t17.5 -146t49.5 -119t30 -82q-1 -21 -1 -33v-615q0 -83 8.5 -134t36.5 -69q53 -33 103 -32h15v-74h-767v74h51q28 0 58 12q54 21 55 132l-3 78v430z" />
    <glyph glyph-name="agrave" unicode="&#xe0;" horiz-adv-x="1379" 
d="M516 1585q0 73 42 108t102 35q58 0 90 -38t80 -156t81 -198l8 -20l-21 -22l-20 11q-40 24 -132 73t-161 91.5t-69 115.5zM647 174q92 0 92 172v329l-29 -15q-86 -46 -132 -145t-46 -169t30.5 -121t84.5 -51zM390 -37q-142 0 -224.5 78.5t-82.5 201.5q1 123 79 203
t237 160q4 2 309 141l28 13v118q0 100 -24 144t-107 46q-137 0 -135 -146q0 -54 1 -66q7 -81 -35 -143t-116 -62t-116.5 53.5t-42.5 125.5q13 139 169 237.5t337 98.5q248 0 384 -108t136 -315v-410q-2 -39 -2 -71t13.5 -66.5t73.5 -34.5q17 0 35 7v-72l-28 -26
q-95 -87 -249 -87q-70 0 -135 26q-87 35 -115 111l-15 39l-42 -44q-70 -74 -162.5 -113t-170.5 -39z" />
    <glyph glyph-name="aacute" unicode="&#xe1;" horiz-adv-x="1379" 
d="M739 1730q59 0 91 -24q58 -44 57 -118q0 -74 -66 -113q-52 -33 -163 -93t-133 -75l-22 -13l-22 24l71 169q72 169 100 206t87 37zM647 174q92 0 92 172v329l-29 -15q-86 -46 -132 -145t-46 -169t30.5 -121t84.5 -51zM390 -37q-142 0 -224.5 78.5t-82.5 201.5
q1 123 79 203t237 160q4 2 309 141l28 13v118q0 100 -24 144t-107 46q-137 0 -135 -146q0 -54 1 -66q7 -81 -35 -143t-116 -62t-116.5 53.5t-42.5 125.5q13 139 169 237.5t337 98.5q248 0 384 -108t136 -315v-410q-2 -39 -2 -71t13.5 -66.5t73.5 -34.5q17 0 35 7v-72
l-28 -26q-95 -87 -249 -87q-70 0 -135 26q-87 35 -115 111l-15 39l-42 -44q-70 -74 -162.5 -113t-170.5 -39z" />
    <glyph glyph-name="acircumflex" unicode="&#xe2;" horiz-adv-x="1376" 
d="M647 174q92 0 92 172v329l-29 -15q-86 -46 -132 -145t-46 -169t30 -121q31 -51 85 -51zM1185 262q0 -102 87 -101q17 0 35 7v-72l-28 -26q-48 -44 -113 -66q-141 -48 -271 5q-87 35 -115 111l-15 39l-42 -44q-71 -74 -163 -113t-170 -39q-142 0 -224 78q-82 77 -83 201
q1 124 79 204t237 160q4 2 309 141l28 13v118q0 100 -24 144t-107 46q-137 0 -135 -146q0 -54 1 -66q7 -80 -35 -142t-116 -62t-116 52q-42 54 -43 126q13 140 169 238t337 98q248 0 384 -108t136 -315v-410q-2 -39 -2 -71zM1116 1320l-24 -26l-414 166l-393 -168l-17 26
l414 460z" />
    <glyph glyph-name="atilde" unicode="&#xe3;" horiz-adv-x="1376" 
d="M895 1303q-68 0 -218 63t-210 63t-103.5 -25t-56.5 -71l-9 -28h-32l2 35q13 105 60 182t123 92q37 7 96 7t157 -39q224 -89 244 -90q96 0 124 94l6 20h29l-5 -29q-16 -101 -60 -179t-103 -91q-31 -4 -44 -4zM647 174q92 0 92 172v329l-29 -15q-86 -46 -132 -145t-46 -169
t30.5 -121t84.5 -51zM390 -37q-142 0 -224.5 78.5t-82.5 201.5q1 123 79 203t237 160q4 2 309 141l28 13v118q0 100 -24 144t-107 46q-137 0 -135 -146q0 -54 1 -66q7 -81 -35 -143t-116 -62t-116.5 53.5t-42.5 125.5q13 139 169 237.5t337 98.5q248 0 384 -108t136 -315
v-410q-2 -39 -2 -71t13.5 -66.5t73.5 -34.5q17 0 35 7v-72l-28 -26q-95 -87 -249 -87q-70 0 -135 26q-87 35 -115 111l-15 39l-42 -44q-70 -74 -162.5 -113t-170.5 -39z" />
    <glyph glyph-name="adieresis" unicode="&#xe4;" horiz-adv-x="1370" 
d="M505.5 1294q-69.5 0 -109 43.5t-39.5 105.5t39.5 108t107.5 46t107.5 -46t39.5 -107t-38 -105.5t-107.5 -44.5zM871.5 1294q-69.5 0 -109 43.5t-39.5 105.5t39.5 108t107.5 46t107.5 -46t39.5 -107t-38 -105.5t-107.5 -44.5zM647 174q92 0 92 172v329l-29 -15
q-86 -46 -132 -145t-46 -169t30.5 -121t84.5 -51zM390 -37q-142 0 -224.5 78.5t-82.5 201.5q1 123 79 203t237 160q4 2 309 141l28 13v118q0 100 -24 144t-107 46q-137 0 -135 -146q0 -54 1 -66q7 -81 -35 -143t-116 -62t-116.5 53.5t-42.5 125.5q13 139 169 237.5t337 98.5
q248 0 384 -108t136 -315v-410q-2 -39 -2 -71t13.5 -66.5t73.5 -34.5q17 0 35 7v-72l-28 -26q-95 -87 -249 -87q-70 0 -135 26q-87 35 -115 111l-15 39l-42 -44q-70 -74 -162.5 -113t-170.5 -39z" />
    <glyph glyph-name="aring" unicode="&#xe5;" horiz-adv-x="1376" 
d="M674 1364q56 0 85.5 33.5t29.5 81.5t-29.5 83t-85.5 35t-86 -35t-30 -82t30 -81.5t86 -34.5zM673 1296q-87 0 -135 54.5t-48 128.5t48 128.5t133 54.5t133 -54.5t48 -129.5t-46 -128.5t-133 -53.5zM647 174q92 0 92 172v329l-29 -15q-86 -46 -132 -145t-46 -169
t30.5 -121t84.5 -51zM390 -37q-142 0 -224.5 78.5t-82.5 201.5q1 123 79 203t237 160q4 2 309 141l28 13v118q0 100 -24 144t-107 46q-137 0 -135 -146q0 -54 1 -66q7 -81 -35 -143t-116 -62t-116.5 53.5t-42.5 125.5q13 139 169 237.5t337 98.5q248 0 384 -108t136 -315
v-410q-2 -39 -2 -71t13.5 -66.5t73.5 -34.5q17 0 35 7v-72l-28 -26q-95 -87 -249 -87q-70 0 -135 26q-87 35 -115 111l-15 39l-42 -44q-70 -74 -162.5 -113t-170.5 -39z" />
    <glyph glyph-name="ae" unicode="&#xe6;" horiz-adv-x="1906" 
d="M647 174q92 0 92 172v329l-29 -15q-86 -46 -132 -145t-46 -169t30.5 -121t84.5 -51zM1475 848q0 230 -150 230q-100 0 -146 -87q-37 -70 -37 -181l2 -50l41 -11q33 -9 96 -9t128.5 31t65.5 77zM1331 -37q-284 0 -483 266l-59 -87q-52 -78 -176.5 -128.5t-222.5 -50.5
q-142 0 -224.5 78.5t-82.5 201.5q1 123 79 203t237 160q4 2 309 141l28 13v118q0 100 -24 144t-107 46q-137 0 -135 -146q0 -54 1 -66q7 -81 -35 -143t-116 -62t-116.5 53.5t-42.5 125.5q13 139 169 237.5t337 98.5q124 0 196 -25t146 -86q145 102 319 102t321.5 -126
t147.5 -292l-2 -83h-645l9 -59q22 -159 151.5 -270t260.5 -111t179 45l45 46v-111l-39 -41q-179 -192 -425 -192z" />
    <glyph glyph-name="ccedilla" unicode="&#xe7;" horiz-adv-x="1200" 
d="M468 749q0 -211 135.5 -376.5t309.5 -165.5q120 0 174 54l46 46v-111l-39 -41q-92 -98 -192 -145t-233 -47q-29 -2 -43 -2t-46 6l24 -135h17q153 0 183 -55.5t30 -103.5q0 -47 -40 -93t-102 -69t-143 -23t-124 15q-83 28 -107 111q-7 20 18.5 51t64.5 25t71.5 -69
t91.5 -63q87 0 87 68t-89 82q-52 -3 -74 -6l63 270q-231 54 -357 206.5t-126 357.5q0 244 183 432.5t398 188.5q174 0 312 -79q155 -87 155 -226q0 -94 -46 -157t-117 -63t-124 36t-61 70.5t-8 48.5l11 137q-1 62 -29 98t-121 36t-129 -102q-24 -68 -24 -207z" />
    <glyph glyph-name="egrave" unicode="&#xe8;" horiz-adv-x="1193" 
d="M602 1730q62 0 93 -44q44 -51 157 -350l9 -18l-22 -24l-20 13q-150 83 -298 168q-65 45 -65 115t42 105t104 35zM802 848q0 230 -151 230q-100 0 -146 -87q-37 -70 -37 -181l3 -50l41 -11q33 -9 96 -9t128.5 31t65.5 77zM661 -37q-243 0 -416 169t-173 417t173 428
t378 180t353 -126t148 -292l-2 -83h-645l9 -59q22 -159 151.5 -270t261.5 -111t177 45l46 46v-111l-39 -41q-179 -192 -422 -192z" />
    <glyph glyph-name="eacute" unicode="&#xe9;" horiz-adv-x="1193" 
d="M874 1592q0 -76 -66 -115q-46 -29 -164 -93t-139 -77l-19 -13l-22 24l9 20q109 294 150.5 346t103.5 52q61 0 91 -23q56 -45 56 -121zM802 848q0 230 -151 230q-100 0 -146 -87q-37 -70 -37 -181l3 -50l41 -11q33 -9 96 -9t128.5 31t65.5 77zM661 -37q-243 0 -416 169
t-173 417t173 428t378 180t353 -126t148 -292l-2 -83h-645l9 -59q22 -159 151.5 -270t261.5 -111t177 45l46 46v-111l-39 -41q-179 -192 -422 -192z" />
    <glyph glyph-name="ecircumflex" unicode="&#xea;" horiz-adv-x="1196" 
d="M802 848q0 230 -151 230q-100 0 -146 -87q-37 -70 -37 -181l3 -50l41 -11q33 -9 96 -9q62 0 128 32q66 30 66 76zM661 -37q-243 0 -416 169t-173 417t173 428t378 180t353 -126t148 -292l-2 -83h-645l9 -59q22 -159 152 -270t261 -111q132 0 177 45l46 46v-111l-39 -41
q-179 -192 -422 -192zM1070 1320l-24 -26l-414 166l-392 -168l-18 26l414 460z" />
    <glyph glyph-name="edieresis" unicode="&#xeb;" horiz-adv-x="1207" 
d="M486 1294q-70 0 -109 45t-39 107t39 107.5t109 45.5t109 -44.5t39 -106.5t-39 -108t-109 -46zM854 1294q-70 0 -109 45t-39 107t39 107.5t109 45.5t109 -44.5t39 -106.5t-39 -108t-109 -46zM815 848q0 230 -150 230q-100 0 -146 -87q-37 -70 -38 -181l3 -50l41 -11
q33 -9 96 -9t128.5 31t65.5 77zM674 -37q-243 0 -416 169t-173 417t173 428t378 180t353 -126t148 -292l-2 -83h-645l9 -59q22 -159 151.5 -270t261.5 -111t177 45l46 46v-111l-39 -41q-179 -192 -422 -192z" />
    <glyph glyph-name="igrave" unicode="&#xec;" horiz-adv-x="908" 
d="M432 1726q62 0 94 -45q33 -45 156 -350l9 -19l-22 -22l-20 11q-150 83 -298 167q-65 44 -65 116t42 106q42 36 104 36zM255 627q2 39 2 98t-24 79q-35 26 -72 56.5t-63 48.5l-24 17q325 97 625 251v-870q0 -100 4.5 -152.5t41.5 -65.5q52 -15 79 -15h15v-74h-717v74h15
q20 0 57 11t50 48t13 100l-2 74v320z" />
    <glyph glyph-name="iacute" unicode="&#xed;" horiz-adv-x="899" 
d="M550 1730q58 0 90 -24q58 -44 57 -118t-59 -110t-169 -96t-133 -75l-22 -13l-22 24l71 169q71 169 99 206q30 37 88 37zM693 307q0 -100 4.5 -152.5t41.5 -65.5q52 -15 78 -15h15v-74h-717v74h16q20 0 56.5 11t50 48t13.5 100l-3 74v320q8 152 -21 177q-35 26 -72 56.5
t-63 48.5l-24 17q325 97 625 251v-870z" />
    <glyph glyph-name="icircumflex" unicode="&#xee;" horiz-adv-x="980" 
d="M926 1320l-24 -26l-414 166l-392 -168l-18 26l414 460zM294 627q2 39 2 98t-30 82t-66.5 53.5t-62.5 48.5l-24 17q327 98 626 251v-870q0 -100 4 -152.5t41 -65.5q52 -15 79 -15h15v-74h-717v74h15q20 0 57 11t50 48t13 100l-2 74v320z" />
    <glyph glyph-name="idieresis" unicode="&#xef;" horiz-adv-x="930" 
d="M303 1294q-70 0 -109 45t-39 107t39 107.5t109 45.5t109 -44.5t39 -106.5t-39 -108t-109 -46zM671 1294q-70 0 -109 45t-39 107t39 107.5t109 45.5t109 -44.5t39 -106.5t-39 -108t-109 -46zM706 307q0 -100 4.5 -152.5t41.5 -65.5q52 -15 78 -15h15v-74h-716v74h15
q20 0 56.5 11t50 48t13.5 100l-3 74v320q8 152 -21 177q-35 26 -72 56.5t-63 48.5l-24 17q325 97 625 251v-870z" />
    <glyph glyph-name="ntilde" unicode="&#xf1;" horiz-adv-x="1634" 
d="M578 1421q-56 0 -98 -24t-55 -70l-9 -28h-33l5 34q30 275 244 275q78 0 178 -39q218 -85 240 -85q94 0 122 89l5 20h28l-5 -29q-13 -96 -56.5 -173t-102.5 -90q-26 -4 -41 -5q-68 0 -217 62.5t-205 62.5zM281 658q0 72 -36 108t-84 64t-85 52q26 9 193 80t417 210v-192
l24 24q146 146 336 146q148 0 257 -100t109 -244v-499q0 -209 59 -222q35 -7 72 -11h15v-74h-721v74h15q33 0 72 13q35 15 44.5 48t9.5 89l-2 83v440q2 28 2 53q0 176 -122 176q-70 0 -100 -59t-30 -137v-780h-589v74h16q48 0 89 15.5t41 132.5l-2 85v351z" />
    <glyph glyph-name="ograve" unicode="&#xf2;" horiz-adv-x="1437" 
d="M525 1586q1 70 43 105t102 35t93 -44q26 -31 66 -129t88 -215l7 -20l-20 -22l-19 11q-148 83 -295 166q-65 43 -65 113zM730 1092q-86 0 -130 -86t-44 -333v-192q0 -205 24 -289q38 -140 144 -140t145 109q28 78 29 244l-3 172q0 242 -17 334q-35 181 -148 181zM726 1168
q256 0 452 -168t195 -424q1 -256 -195 -432t-452 -177q-256 0 -452 181.5t-196 433.5t196 419t452 167z" />
    <glyph glyph-name="oacute" unicode="&#xf3;" horiz-adv-x="1444" 
d="M798 1730q58 0 90 -24q58 -44 58 -118t-66 -113q-52 -33 -163 -93t-133 -75l-22 -13l-22 24l71 169q71 169 99 206t88 37zM730 1092q-86 0 -130 -86t-44 -333v-192q0 -205 24 -289q38 -140 144 -140t145 109q28 78 29 244l-3 172q0 242 -17 334q-35 181 -148 181z
M726 1168q256 0 452 -168t195 -424q1 -256 -195 -432t-452 -177q-256 0 -452 181.5t-196 433.5t196 419t452 167z" />
    <glyph glyph-name="ocircumflex" unicode="&#xf4;" horiz-adv-x="1451" 
d="M730 1092q-86 0 -130 -86t-44 -333v-192q0 -205 24 -289q38 -140 144 -140t145 109q28 78 29 244l-3 172q0 242 -17 334q-35 181 -148 181zM1373 576q1 -256 -195 -432t-452 -177q-256 0 -452 181q-196 182 -196 434t196 419t452 167t452 -168t195 -424zM1155 1320
l-24 -26l-414 166l-392 -168l-18 26l414 460z" />
    <glyph glyph-name="otilde" unicode="&#xf5;" horiz-adv-x="1444" 
d="M930 1288q-68 0 -217 62t-205 62t-99 -24t-56 -70l-7 -28h-34l4 35q11 100 57.5 178.5t121.5 93.5q37 7 93 7t217 -64q162 -64 180 -63q96 0 122 92l4 19h28l-4 -30q-13 -100 -56.5 -176.5t-104.5 -89.5q-15 -4 -44 -4zM730 1092q-86 0 -130 -86t-44 -333v-192
q0 -205 24 -289q38 -140 144 -140t145 109q28 78 29 244l-3 172q0 242 -17 334q-35 181 -148 181zM726 1168q256 0 452 -168t195 -424q1 -256 -195 -432t-452 -177q-256 0 -452 181.5t-196 433.5t196 419t452 167z" />
    <glyph glyph-name="odieresis" unicode="&#xf6;" horiz-adv-x="1451" 
d="M551 1294q-70 0 -109 45t-39 107t39 107.5t109 45.5t109 -44.5t39 -106.5t-39 -108t-109 -46zM919.5 1294q-69.5 0 -109 45t-39.5 107t39.5 107.5t109 45.5t109 -44.5t39.5 -106.5t-39.5 -108t-109 -46zM730 1092q-86 0 -130 -86t-44 -333v-192q0 -205 24 -289
q38 -140 144 -140t145 109q28 78 29 244l-3 172q0 242 -17 334q-35 181 -148 181zM726 1168q256 0 452 -168t195 -424q1 -256 -195 -432t-452 -177q-256 0 -452 181.5t-196 433.5t196 419t452 167z" />
    <glyph glyph-name="divide" unicode="&#xf7;" horiz-adv-x="1518" 
d="M928 305q0 -72 -52 -124t-126 -52t-122 52t-48 126t50 124t122 50t124 -52t52 -124zM1449 562h-1364v196h1364v-196zM930 1016q0 -73 -52 -125t-126 -52t-123 54.5t-49 126.5t52 122t124 50t123 -51.5t51 -124.5z" />
    <glyph glyph-name="oslash" unicode="&#xf8;" horiz-adv-x="1437" 
d="M898 405l-3 172l-2 199l-303 -621q40 -103 140 -103t139 109q28 78 29 244zM556 673v-80l-3 -164q0 -60 11 -168l314 650q-32 179 -148 181q-86 0 -130 -86t-44 -333zM1373 586q1 -266 -195 -442t-442 -177q-118 0 -220 35l-109 -222h-78l122 248q-168 76 -270.5 225.5
t-102.5 332.5q0 248 196.5 415t459.5 167q124 0 244 -48l107 218h81l-120 -249q142 -78 234.5 -212t92.5 -291z" />
    <glyph glyph-name="ugrave" unicode="&#xf9;" horiz-adv-x="1631" 
d="M772 1730q62 0 93 -44q44 -51 157 -350l9 -18l-22 -24l-20 13q-150 83 -298 168q-65 45 -65 115t42 105t104 35zM675 349q0 -74 34 -131t96 -57t99 43.5t37 102.5v362q0 94 -51 141t-108 83l-22 16q84 28 353 141l264 122v-865q0 -100 4.5 -152.5t41.5 -65.5
q4 -2 44.5 -8.5t51.5 -6.5h15v-74h-501l-61 -26l-11 172l-18 -17q-87 -87 -167.5 -128.5t-187.5 -41.5q-168 0 -256 101t-88 297l15 242q0 63 -13.5 106.5t-59.5 85.5t-53 46t-61 37l-22 13l303 133q39 16 136 66t186 95v-832z" />
    <glyph glyph-name="uacute" unicode="&#xfa;" horiz-adv-x="1620" 
d="M935 1730q59 0 91 -24q58 -44 57 -118q0 -74 -66 -113q-52 -33 -163 -93t-133 -75l-22 -13l-21 24l8 18q41 115 87.5 217.5t74.5 139.5t87 37zM675 349q0 -74 34 -131t96 -57t99 43.5t37 102.5v362q0 94 -51 141t-108 83l-22 16q84 28 353 141l264 122v-865
q0 -100 4.5 -152.5t41.5 -65.5q4 -2 44.5 -8.5t51.5 -6.5h15v-74h-501l-61 -26l-11 172l-18 -17q-87 -87 -167.5 -128.5t-187.5 -41.5q-168 0 -256 101t-88 297l15 242q0 63 -13.5 106.5t-59.5 85.5t-53 46t-61 37l-22 13l303 133q39 16 136 66t186 95v-832z" />
    <glyph glyph-name="ucircumflex" unicode="&#xfb;" horiz-adv-x="1627" 
d="M675 349q0 -74 34 -131t96 -57t99 44t37 102v362q0 94 -51 141t-108 83l-22 16q84 28 353 141l264 122v-865q0 -100 4 -152t42 -66q4 -3 44 -9t52 -6h15v-74h-501l-61 -26l-11 172l-18 -17q-87 -87 -167 -129t-188 -41q-168 0 -256 101t-88 297l15 242q0 63 -14 107
q-13 44 -59 86t-53 45q-7 4 -61 37l-22 13l303 133q39 16 136 66t186 95v-832zM1227 1320l-24 -26l-414 166l-392 -168l-18 26l414 460z" />
    <glyph glyph-name="udieresis" unicode="&#xfc;" horiz-adv-x="1627" 
d="M669 1294q-70 0 -109 43.5t-39 105.5t39 108t108 46t108 -46t39 -107t-38 -105.5t-108 -44.5zM1035 1294q-70 0 -109 43.5t-39 105.5t39 108t108 46t108 -46t39 -107t-38 -105.5t-108 -44.5zM675 349q0 -74 34 -131t96 -57t99 43.5t37 102.5v362q0 94 -51 141t-108 83
l-22 16q84 28 353 141l264 122v-865q0 -100 4.5 -152.5t41.5 -65.5q4 -2 44.5 -8.5t51.5 -6.5h15v-74h-501l-61 -26l-11 172l-18 -17q-87 -87 -167.5 -128.5t-187.5 -41.5q-168 0 -256 101t-88 297l15 242q0 63 -13.5 106.5t-59.5 85.5t-53 46t-61 37l-22 13l303 133
q39 16 136 66t186 95v-832z" />
    <glyph glyph-name="ydieresis" unicode="&#xff;" horiz-adv-x="1477" 
d="M727.5 1294q-69.5 0 -108.5 45t-39 107t39 107.5t108.5 45.5t109 -44.5t39.5 -106.5t-39.5 -108t-109 -46zM1096 1294q-70 0 -109 45t-39 107t39 107.5t109 45.5t109 -44.5t39 -106.5t-39 -108t-109 -46zM1410 1041h-16q-22 0 -35 -5t-52 -28t-69 -81t-59 -125l-318 -671
q-80 -167 -176.5 -285t-196.5 -177t-219 -59t-196 62t-77 150t54 128.5t124 40.5t207 -100q65 -48 116 -48q140 0 174 216q2 11 2 60t-59 173l-285 551q-63 133 -121.5 165.5t-105.5 32.5h-21v83h799v-83h-19q-45 1 -61 -19t-16 -40t26 -80l160 -320l137 292q22 52 22 78
t-21.5 59t-90.5 33h-15v80h408v-83z" />
    <glyph glyph-name="OE" unicode="&#x152;" horiz-adv-x="2562" 
d="M1159 229v1150q-1 41 -59 95t-157 55q-198 0 -270 -193q-48 -131 -48 -408v-118q0 -237 9 -329q17 -192 78 -287q76 -122 231 -122q100 0 158 47t58 110zM74 788q0 350 254 604.5t609 254.5q159 0 224 -35h675q236 0 287 5t132 61q52 -243 129 -425l-70 -37
q-37 65 -110 136q-72 70 -148 102t-130 46t-176 14h-57v-553q63 -15 141.5 0t119 41t57.5 62t24 89h78v-521h-85q-7 68 -24 100.5t-66 71t-120 52.5q-70 14 -94 12t-31 -1v-560q0 -87 46 -142t187 -54q140 1 273 101t200 246l24 50l74 -40l-127 -468h-1154
q-189 -40 -273 -39q-357 0 -613 238.5t-256 588.5z" />
    <glyph glyph-name="oe" unicode="&#x153;" horiz-adv-x="2082" 
d="M730 1092q-86 0 -130 -86t-44 -333v-192q0 -205 24 -289q38 -140 144 -140t145 109q28 78 29 244l-3 172q0 242 -17 334q-35 181 -148 181zM1702 854q0 231 -151 231q-100 0 -146 -87q-37 -70 -37 -181l2 -50l42 -11q33 -9 96 -9t128.5 30.5t65.5 76.5zM726 1168
q255 0 442 -164q166 159 363 159t345 -126t148 -292l-2 -83h-645l9 -58q22 -159 151 -270.5t261 -111.5t178 46l46 46v-111l-39 -42q-179 -192 -416 -192t-410 155q-195 -157 -421 -157q-266 0 -462 181.5t-196 433.5t196.5 419t451.5 167z" />
    <glyph glyph-name="Ydieresis" unicode="&#x178;" horiz-adv-x="1784" 
d="M503 74q176 0 172 155l-2 78v484l-331 545l-44 78q-57 86 -135 107q-21 6 -87 13v78h957v-80h-18q-44 0 -58 -4q-15 -4 -37 -26q-22 -21 -22 -55t13 -68l218 -394l176 327q48 89 48 131q0 41 -16 59t-38 24q-22 5 -59 6h-16l-2 80h488v-76h-21q-57 0 -106 -28
q-99 -55 -258 -355l-125 -234v-612q0 -98 14 -138q14 -39 37 -57q24 -18 60 -28t55 -10h15v-74h-893v74h15zM766 1743q-80 0 -124 51t-45 121q0 70 45 121t124 51q80 0 124 -51t44 -121t-44 -121t-124 -51zM1184 1743q-80 0 -124 51t-45 121q0 70 45 121t124 51t124 -51
t45 -121t-45 -121q-44 -51 -124 -51z" />
    <glyph glyph-name="florin" unicode="&#x192;" horiz-adv-x="1052" 
d="M910 1638q-30 0 -58 26t-46 27q-50 0 -76 -249q-17 -159 -33 -226l-13 -46h225l-14 -92h-235l-135 -673q-50 -251 -124 -420q-115 -270 -264 -270q-64 0 -89.5 31.5t-25.5 49.5t4 32q26 81 105 80q28 0 44.5 -29t31.5 -34q68 -20 120 225q33 166 46 233l156 778h-244
l3 91h274l15 63q48 244 118 390q94 198 218 199q46 0 80.5 -32t20.5 -71t-44 -61t-60 -22z" />
    <glyph glyph-name="summation" unicode="&#x3a3;" horiz-adv-x="1647" 
d="M1397 1253q0 121 -63.5 178t-110 68t-129.5 11h-660l634 -765l-678 -758h906q81 0 148 52q107 78 107 196h50q-49 -144 -65 -257q-26 -135 -26 -237l-159 30h-1290l800 876l-785 978l146 -13h1220l2 -359h-47z" />
    <glyph glyph-name="Omega" unicode="&#x3a9;" horiz-adv-x="1738" 
d="M1660 -2h-660l33 324q313 138 313 553q0 208 -87 321q-111 146 -373 146t-385 -146q-105 -126 -105 -328q1 -408 314 -546l31 -324h-660v340h43q0 -44 22 -77q35 -57 118 -56h359v67q-214 37 -347.5 199.5t-133.5 382.5q0 260 204 408t534 148q332 0 525.5 -146
t193.5 -410q0 -222 -131.5 -383.5t-349.5 -198.5v-67h361q78 0 118 56q22 33 22 77h41v-340z" />
    <glyph glyph-name="pi" unicode="&#x3c0;" horiz-adv-x="1313" 
d="M960 0q-114 0 -167 107q-44 89 -44 233q0 50 7 100l54 501h-272l-94 -734q-9 -85 -49 -151t-101 -65q-9 0 -59 5.5t-67 73.5q-4 26 -4 52t34 65q102 113 108 127t21 52.5t17 62.5l57 501h-90q-37 0 -54 -1t-50 -15t-66.5 -54.5t-40.5 -66.5l-39 17l15 31q54 124 68 146
q83 142 263 142h835v-188h-303l-30 -553q0 -78 40 -137t101 -59t99 36t51 92l9 42h46l-4 -48q-15 -133 -96 -223.5t-195 -90.5z" />
    <glyph glyph-name="endash" unicode="&#x2013;" 
d="M954 547h-878v205h878v-205z" />
    <glyph glyph-name="emdash" unicode="&#x2014;" horiz-adv-x="1760" 
d="M1686 547h-1610v205h1610v-205z" />
    <glyph glyph-name="quoteleft" unicode="&#x2018;" horiz-adv-x="644" 
d="M390 1340q78 0 131.5 -64t53.5 -161t-70.5 -170.5t-180.5 -73.5t-178 98.5t-68 237.5t99.5 254.5t238.5 139.5l63 11l13 -89l-30 -4q-41 -7 -59 -17q-69 -40 -120 -127q-11 -31 -19 -59q83 24 126 24z" />
    <glyph glyph-name="quoteright" unicode="&#x2019;" horiz-adv-x="647" 
d="M268 1144q-78 0 -131.5 64t-53.5 161t70.5 170t180.5 73t178 -98t68 -238t-99.5 -255t-238.5 -139l-63 -11l-13 90l30 4q41 7 59 17q80 47 131 149q4 17 8 37q-83 -24 -126 -24z" />
    <glyph glyph-name="quotesinglbase" unicode="&#x201a;" horiz-adv-x="647" 
d="M83 228q0 96 70.5 169.5t180.5 73.5t178 -98q68 -97 68 -237t-99.5 -255.5t-238.5 -139.5l-63 -11l-13 89l30 5q41 7 59 17q67 37 120 126q9 31 19 59q-83 -24 -126 -24q-78 0 -131.5 65t-53.5 161z" />
    <glyph glyph-name="quotedblleft" unicode="&#x201c;" horiz-adv-x="1104" 
d="M364 1355q74 0 124 -59t50 -146q0 -235 -226 -235q-111 0 -175.5 92.5t-64.5 222.5t92.5 240t223.5 131l61 11l11 -85l-29 -2q-11 4 -21 9q-13 -7 -81 -61q-28 -26 -63 -85q-11 -28 -20 -55q110 22 118 22zM1035 1132q1 -216 -221 -217q-116 0 -180.5 92.5t-64.5 224.5
t92.5 240t225.5 129l59 11l13 -85l-29 -2q-11 2 -19 7q-24 -13 -83 -59q-31 -26 -65 -85q-11 -28 -20 -55q81 22 120 22q72 0 122 -59.5t50 -163.5z" />
    <glyph glyph-name="quotedblright" unicode="&#x201d;" horiz-adv-x="1176" 
d="M261 1144q-78 0 -131.5 64t-53.5 161t71 170t180 73t177 -98t69 -238q0 -140 -99 -255t-239 -139l-63 -11l-13 90l31 4q40 7 58 17q80 48 131 149q4 17 9 37q-83 -24 -127 -24zM791 1144q-78 0 -131.5 64t-53.5 161t70 170t180 73t178 -98t68 -238t-99 -255t-238 -139
l-63 -11l-14 90l31 4q41 7 59 17q80 47 131 149q4 17 8 37q-83 -24 -126 -24z" />
    <glyph glyph-name="quotedblbase" unicode="&#x201e;" horiz-adv-x="1176" 
d="M76 228q0 96 71 169.5t180 73.5t177 -98q68 -97 69 -237q0 -140 -99 -255.5t-239 -139.5l-63 -11l-13 89l31 5q40 7 58 17q68 39 120 126q9 31 20 59q-83 -24 -127 -24q-78 0 -131.5 65t-53.5 161zM606 228q0 96 70 169.5t180 73.5t178 -98q68 -97 68 -237t-99 -255.5
t-238 -139.5l-63 -11l-14 89l31 5q41 7 59 17q68 38 120 126q9 31 19 59q-83 -24 -126 -24q-78 0 -131.5 65t-53.5 161z" />
    <glyph glyph-name="dagger" unicode="&#x2020;" horiz-adv-x="1268" 
d="M1200 926h-468v-1384h-176v1384h-471l4 194h467v490h180v-490h464v-194z" />
    <glyph glyph-name="bullet" unicode="&#x2022;" horiz-adv-x="655" 
d="M332 608q-119 0 -185 75t-66 179t64 177.5t185 73.5q122 0 188 -74t66 -177t-66.5 -178.5t-185.5 -75.5z" />
    <glyph glyph-name="ellipsis" unicode="&#x2026;" horiz-adv-x="2130" 
d="M1810 471q122 -1 187 -75q66 -74 66 -176t-66 -178t-185 -75q-119 0 -186 75q-66 75 -66 178t64 177t186 74zM1073 471q121 -1 187 -75t67 -176q-1 -102 -67 -178t-185 -75q-119 0 -185 75t-66 178t64 177t185 74zM326 471q121 -1 187 -75q67 -74 67 -176t-66 -178
t-186 -75q-119 0 -185 75q-67 75 -67 178t64 177t186 74z" />
    <glyph glyph-name="trademark" unicode="&#x2122;" horiz-adv-x="1542" 
d="M1466 806h-78v715l-266 -713h-72l-255 715v-717h-80v804h124l250 -706l262 706h115v-804zM654 1547h-253v-741h-76v741h-251v65h580v-65z" />
    <glyph glyph-name="partialdiff" unicode="&#x2202;" horiz-adv-x="1139" 
d="M590 800q-110 0 -192 -90q-140 -154 -139 -390q0 -96 48 -181t148 -115q26 -9 59 -9q120 0 205 157q65 120 100 312l33 174l-61 57q-70 66 -122 75.5t-79 9.5zM1068 856q0 -322 -140 -592q-157 -305 -399 -305q-26 0 -39 2q-200 20 -310 138.5t-110 308.5t128.5 337.5
t317.5 147.5q85 0 145 -24t141 -82l67 -46l18 111q11 72 11 137q0 231 -94 388q-107 179 -294 179q-64 0 -120 -20l-98 -35l-41 -13l-85 105l95 28q107 33 210 33q272 0 442 -249q155 -227 155 -549z" />
    <glyph glyph-name="Delta" unicode="&#x2206;" horiz-adv-x="1590" 
d="M1255 107l-486 1146l-538 -1146h1024zM1545 0h-1467l783 1645z" />
    <glyph glyph-name="product" unicode="&#x220f;" horiz-adv-x="1928" 
d="M1850 -237h-702v41l57 4q50 0 76 5.5t55.5 35t29.5 47.5v1583h-821v-1470q0 -81 13 -112.5t42.5 -53.5t57.5 -27.5t76 -5.5h42v-47h-702v50h107q37 4 74 31t43.5 61t6.5 108v1338q0 96 -72 159q-61 45 -109 50l-37 2v48h1763v-50l-50 -2q-35 0 -54.5 -10t-71 -50.5
t-51.5 -179.5v-1322q0 -57 9 -91t36 -59q48 -44 129 -44l53 -2v-37z" />
    <glyph glyph-name="radical" unicode="&#x221a;" horiz-adv-x="1169" 
d="M1102 1800l-307 -1905l-510 1005l-193 -100l-33 67l298 142l410 -804l266 1606z" />
    <glyph glyph-name="infinity" unicode="&#x221e;" horiz-adv-x="1788" 
d="M422 784q-90 0 -158 -57.5t-68 -154.5t66 -166.5t190 -69.5t226 93l148 137l-159 120q-59 44 -83 57q-72 41 -162 41zM1383 784q-83 0 -129 -20t-121 -78l-159 -120l148 -137q102 -94 244 -93q107 0 173.5 68.5t66.5 170.5q-9 92 -74.5 150.5t-148.5 58.5zM1723 572
q0 -149 -102 -249.5t-238 -100.5q-89 0 -190 41.5t-186 119.5l-105 103l-109 -103q-81 -74 -185.5 -117.5t-191.5 -43.5q-136 0 -238 99t-102 249t102.5 245.5t244.5 95.5q176 0 344 -155l133 -118l133 118q174 155 331 155t258 -95t101 -244z" />
    <glyph glyph-name="integral" unicode="&#x222b;" horiz-adv-x="675" 
d="M309 1316q0 521 205 521q50 0 92 -29.5t36 -69.5t-34 -63.5t-56 -23.5t-54 21q-25 21 -38 25q-28 15 -40.5 -13t-12.5 -90q-1 -62 15 -234t16 -214v-695q0 -691 -229 -691q-68 0 -100.5 35t-32.5 73t24 62t56 24t55.5 -30.5t39.5 -34.5q37 -11 51 45.5t14 160.5t-7 251
v970z" />
    <glyph glyph-name="approxequal" unicode="&#x2248;" horiz-adv-x="1466" 
d="M458 423q-30 0 -91 -11.5t-145 -95.5l-41 -44l-105 68l35 35q65 72 148 116.5t179 44.5t222 -39l177 -53q68 -26 104.5 -38t68.5 -11t72 1q103 1 186 92l44 46l95 -61l-47 -57q-124 -141 -284 -141q-78 0 -141.5 18.5t-124.5 37.5l-200 57q-41 11 -81.5 23t-70.5 12z
M450 813q-123 0 -228 -109l-41 -44l-105 70l35 37q141 157 360 157q50 0 78 -6.5t111 -30.5l177 -55q74 -24 117.5 -36t97.5 -12q76 7 122 25.5t94 66.5l44 48l95 -61l-47 -55q-120 -143 -284 -143q-78 0 -141.5 19.5t-124.5 38.5l-200 57q-59 15 -92.5 24t-67.5 9z" />
    <glyph glyph-name="notequal" unicode="&#x2260;" horiz-adv-x="1346" 
d="M1270 708h-436l-185 -307h619v-133h-686l-199 -355l-113 65l161 290h-348v133h425l167 307h-592v133h671l207 368l111 -65l-170 -303h368v-133z" />
    <glyph glyph-name="lessequal" unicode="&#x2264;" horiz-adv-x="989" 
d="M928 0h-871v107h871v-107zM932 203l-882 390v154l880 379v-163l-719 -292l721 -312v-156z" />
    <glyph glyph-name="greaterequal" unicode="&#x2265;" horiz-adv-x="989" 
d="M928 0h-871v107h871v-107zM932 593l-882 -390v156l717 312l-715 292v163l880 -379v-154z" />
    <glyph glyph-name="lozenge" unicode="&#x25ca;" horiz-adv-x="1130" 
d="M939 810l-362 678l-363 -671l368 -719zM1065 810l-418 -810h-139l-425 821l425 785h139z" />
    </font>
</defs>
</svg>
