<?xml version="1.0" standalone="no"?>
<!DOCTYPE svg PUBLIC "-//W3C//DTD SVG 1.1//EN" "http://www.w3.org/Graphics/SVG/1.1/DTD/svg11.dtd" >
<svg xmlns="http://www.w3.org/2000/svg">
<metadata>
Created by FontPrep 20130207 at Fri Dec 11 21:04:23 2015
 By Francis Nguyen
Copyright (c) 1992 Image Club Graphics, Inc.
</metadata>
<defs>
<font id="32d823fa7c954282e54e31117f1eb85f" horiz-adv-x='1024' >
  <font-face 
    font-family="ModernHeavy"
    font-weight="5"
    font-stretch="normal"
    units-per-em="2048"
    panose-1="0 0 0 0 0 0 0 0 0 0"
    ascent="1638"
    descent="-410"
    x-height="1139"
    cap-height="1510"
    bbox="-247 -650 2533 2086"
    underline-thickness="40"
    underline-position="-369"
    unicode-range="U+0020-25CA"
  />
<missing-glyph horiz-adv-x="1510" 
d="M1322 94v1322h-1133v-1322h1133zM94 0v1510h1322v-1510h-1322z" />
    <glyph glyph-name=".notdef" horiz-adv-x="1510" 
d="M1322 94v1322h-1133v-1322h1133zM94 0v1510h1322v-1510h-1322z" />
    <glyph glyph-name=".null" unicode="&#xd7;" horiz-adv-x="0" 
 />
    <glyph glyph-name=".null" unicode="&#x141;" horiz-adv-x="0" 
 />
    <glyph glyph-name=".null" unicode="&#xfd;" horiz-adv-x="0" 
 />
    <glyph glyph-name="nonmarkingreturn" 
 />
    <glyph glyph-name="space" unicode=" " 
 />
    <glyph glyph-name="exclam" unicode="!" horiz-adv-x="655" 
d="M343.5 -36q-104.5 0 -162 65t-57.5 155.5t58 158.5t160.5 68t159.5 -67q58 -67 58 -159q0 -93 -56 -157t-160.5 -64zM350 1543q110 -1 174 -83t64 -183t-45.5 -226t-95.5 -261t-68 -258l-8 -53h-62l-8 53q-102 353 -205 706q-4 28 -4 42q0 104 73.5 183.5t184.5 79.5z
" />
    <glyph glyph-name="quotedbl" unicode="&#x22;" 
d="M232 1528q57 0 93 -34t36 -82q0 -10 -4 -30l-126 -483h-40l-105 483q-6 58 41.5 102t104.5 44zM609 1528q57 0 93 -34t36 -82q0 -10 -4 -30l-126 -483h-40l-105 483q-6 58 41.5 102t104.5 44z" />
    <glyph glyph-name="numbersign" unicode="#" horiz-adv-x="1339" 
d="M786 1099h-166l-54 -208h174zM1252 1256l-42 -159l-249 2l-52 -208l256 2l-40 -161h-264l-65 -297h-160l68 297h-182l-65 -297h-166l70 297h-267l38 161l275 -2l48 208l-274 -2l36 159h280l55 248h164l-62 -248h174l69 252h162l-60 -252h253z" />
    <glyph glyph-name="dollar" unicode="$" horiz-adv-x="1452" 
d="M760 40v494l-104 26v-520l50 -6zM867 62q64 0 147 76t83 161q0 84 -61.5 137.5t-168.5 66.5v-441zM385 1254q0 -74 78 -123q27 -16 81 -36v337q-52 -12 -79 -28q-80 -50 -80 -150zM738 1464h-36l-44 -6v-403l102 -20v425q-18 4 -22 4zM1378 503q0 -186 -130 -320
q-90 -95 -220 -145t-159 -50v-251h-109v227h-102v-227h-112v243l-95 26q-150 38 -256 129q-107 91 -107 193t62.5 152t139.5 50t128 -56.5t51 -122.5t-41 -113t-41 -84q0 -54 78 -82q26 -8 81 -18v532l-107 34q-146 46 -224.5 156.5t-78.5 264.5t107 279q76 88 179 137
t128 49v251h108v-231l102 8v223h107v-233q154 -32 230 -64q233 -98 233 -258q0 -70 -51 -123.5t-123 -53.5t-131.5 47.5t-59.5 117.5t56 132q38 45 -18 96q-38 34 -104 34l-32 2v-445l132 -42q177 -58 278 -168t101 -296z" />
    <glyph glyph-name="percent" unicode="%" horiz-adv-x="2557" 
d="M662 724q130 0 130 375t-126 375q-90 0 -108 -188q-6 -66 -6 -179q0 -383 110 -383zM2048 420q0 374 -126 374q-76 0 -101 -130q-12 -66 -12 -237q0 -379 109 -381q130 0 130 374zM1238 1094q0 -202 -183 -326q-166 -114 -392 -114q-225 0 -395 123t-170 323t176 321
t400 122t394 -123t170 -326zM1793 1510l-770 -1510h-227l773 1510h224zM2493 415q0 -201 -174 -321t-400 -120t-396 123q-169 123 -169 323t176 321t399 121q224 0 394 -122q170 -124 170 -325z" />
    <glyph glyph-name="ampersand" unicode="&#x26;" horiz-adv-x="2140" 
d="M536 616q0 -82 22 -151.5t112.5 -192t240.5 -124.5q48 0 90 16q36 21 38 21q-148 148 -353 431q-48 68 -106 160q-44 -78 -44 -160zM1015 991q154 101 154 264q0 164 -130 201q-24 6 -44 6q-60 0 -96 -46t-36 -130t112 -239zM445 1180q1 148 165 254q164 104 347 105
q126 0 232 -69q130 -82 131 -218q0 -78 -44 -140.5t-205 -160.5l-18 -12q141 -225 345 -440l24 43q66 124 135 250q106 175 284 175q77 -1 153 -61t76 -158t-63 -171.5t-161 -73.5t-154.5 88.5t-80.5 88.5q-46 0 -145 -203l-24 -38l145 -162q52 -60 95 -93t83 -26
q52 8 74 99q14 58 14 104v50h65l4 -32q2 -14 2 -28q0 -161 -88 -261q-115 -130 -326 -130q-152 0 -300 84q-48 28 -119 86q-275 -164 -492 -164q-216 0 -364.5 124.5t-148.5 308.5q0 148 98.5 264.5t254.5 160.5l97 26q-91 182 -91 330z" />
    <glyph glyph-name="quotesingle" unicode="'" horiz-adv-x="421" 
d="M236 1528q57 0 93 -34t36 -82q0 -10 -4 -30l-126 -483h-42l-103 483q-8 58 40.5 102t105.5 44z" />
    <glyph glyph-name="parenleft" unicode="(" horiz-adv-x="842" 
d="M92 643q0 749 417 936q112 50 223 50h19q7 0 9 -2v-46q-32 -8 -70 -23q-138 -55 -176 -389q-26 -237 -27 -529q0 -292 7 -421t44.5 -257t119.5 -187q22 -16 55 -24t49 -12v-50l-176 28q-197 64 -321 245q-173 251 -173 681z" />
    <glyph glyph-name="parenright" unicode=")" horiz-adv-x="822" 
d="M758 678q0 -453 -172 -704q-124 -179 -323 -245q-92 -30 -175 -30v50q24 6 53 13q189 46 204.5 339.5t15.5 623.5q0 631 -124 779q-37 48 -75 62t-72 23v48q108 0 173 -18q197 -54 321 -235q174 -253 174 -706z" />
    <glyph glyph-name="asterisk" unicode="*" horiz-adv-x="922" 
d="M209 871q-30 0 -69.5 20t-39.5 84t53 95t108 31l60 -2q24 0 38 4l30 6l24 -42l-22 -32q-30 -54 -47 -81t-61 -55t-74 -28zM355 850q0 52 21 92t39 73q4 14 12 26t12 20h48l24 -52q17 -24 35 -54t24 -90q0 -50 -25 -90.5t-69 -42.5t-82.5 32t-38.5 86zM94 1282q0 14 8 34
q26 52 103 52q28 0 50 -12q58 -32 94 -88q20 -38 42 -75l18 -28l-18 -32l-40 4q-64 2 -105 5t-84 27q-68 40 -68 113zM725 887q-31 0 -53 12q-56 34 -85 73t-57 79l-19 24l25 44l32 -4q14 -2 49 -1t59 1q99 0 130.5 -50t31.5 -76t-11 -48t-41 -38t-61 -16zM562 1389
q0 -53 -28 -106t-33 -69l-12 -39h-56l-18 43q-2 6 -36 63t-34 108t33 88t76 37t75.5 -36t32.5 -89zM830 1276q0 -64 -57 -100t-151 -35h-50l-38 -2l-25 34l25 35q12 16 41 63t73 75t90 28t69 -31t23 -67z" />
    <glyph glyph-name="plus" unicode="+" horiz-adv-x="1203" 
d="M1129 540h-463v-470h-114v472h-462v114h460v467h112v-467h467v-116z" />
    <glyph glyph-name="comma" unicode="," horiz-adv-x="615" 
d="M385 -26q0 26 -39 24t-79 -8q-74 16 -131.5 78t-57.5 140t61.5 153.5t147.5 75.5q121 1 189 -87t68 -207t-81.5 -246.5t-231.5 -223.5l-38 -24l-31 54l39 26q82 55 133 129t51 116z" />
    <glyph glyph-name="hyphen" unicode="-" horiz-adv-x="1000" 
d="M925 552h-839v248h839v-248z" />
    <glyph glyph-name="period" unicode="." horiz-adv-x="591" 
d="M526 212.5q0 -90.5 -58 -154.5t-161 -64q-104 0 -162.5 65t-58.5 155t57.5 154.5t161.5 64.5t162.5 -65t58.5 -155.5z" />
    <glyph glyph-name="slash" unicode="/" horiz-adv-x="1243" 
d="M1163 1555l-840 -1575h-245l849 1575h236z" />
    <glyph glyph-name="zero" unicode="0" horiz-adv-x="1662" 
d="M1069 783q0 205 -11 341t-55 228q-56 118 -163 118q-175 0 -212 -361q-14 -134 -14 -346t13 -358t59 -243q56 -120 158 -120t157 124q44 100 56 256.5t12 360.5zM1593 758q0 -317 -222 -554.5t-528 -237.5t-526.5 236.5t-220.5 554.5t217 550t529 232t531.5 -232
t219.5 -549z" />
    <glyph glyph-name="one" unicode="1" horiz-adv-x="1341" 
d="M1296 -2h-1214v70h14q16 -2 67 -2q170 0 219 50t64 105.5t15 135.5v688q0 100 -7 147.5t-35.5 74.5t-119.5 27h-197v62q278 0 512 183h339v-1168q0 -96 10 -158.5t55.5 -106.5t251.5 -44h18q2 0 8 2v-66z" />
    <glyph glyph-name="two" unicode="2" horiz-adv-x="1376" 
d="M82 46q0 83 80 205q38 56 218 218.5t258 272.5q128 181 128 365q0 128 -38 221q-58 142 -188 142q-72 0 -129.5 -32t-71.5 -88q-8 -30 102.5 -82t110.5 -175q0 -92 -76 -151t-164 -59q-87 0 -156.5 79t-69.5 181q0 207 199 317q152 84 347 85q267 0 441 -121
q191 -130 191 -353q0 -158 -121 -277q-94 -92 -280 -174l-255 -111q-64 -28 -127 -66l-54 -38h472q174 0 241 16.5t108 152.5q8 28 18 80h54l-44 -656h-1192q-2 20 -2 48z" />
    <glyph glyph-name="three" unicode="3" horiz-adv-x="1382" 
d="M622 1478q-163 0 -163 -90q0 -16 65.5 -73t65.5 -135t-63.5 -134.5t-153.5 -56.5t-159.5 65t-69.5 160q0 142 165.5 235.5t378.5 93.5t377 -73q223 -98 223 -301q0 -148 -139 -238q-100 -65 -225 -91t-176 -26q58 0 149 -18q170 -34 276 -106q151 -103 151 -269
q0 -219 -237 -339q-201 -102 -481 -102q-207 0 -339 72q-177 96 -177 297q0 64 76 140t185 77q72 0 135.5 -63.5t63.5 -138.5t-36 -117q-46 -46 -93 -91q-8 -44 41 -77t112 -33q142 0 206 131q48 98 48 256q0 355 -246 355q-28 0 -75 -17t-70 -17q-88 0 -88 54t80 55
q34 0 81.5 -16.5t71.5 -14.5q142 20 200 115q46 74 46 208t-44 219q-54 104 -162 104z" />
    <glyph glyph-name="four" unicode="4" horiz-adv-x="1596" 
d="M710 592v638l-489 -638h489zM1214 451v-190q0 -97 3 -111t29 -46q16 -18 85 -25t139 -13v-66h-1009v64q14 -4 114.5 9t116.5 45t19 59.5t3 83.5v186h-586l-52 99l766 997h364v-945h335l-37 -147h-290z" />
    <glyph glyph-name="five" unicode="5" horiz-adv-x="1420" 
d="M546 54q298 0 298 467q0 210 -50 303q-60 112 -202 112t-245 -128q-32 -42 -74 -128l-84 14l32 217l72 644q239 -51 443 -51t502 53q2 -22 2 -39q0 -142 -113 -280.5t-421 -138.5q-188 0 -375 66l-46 -327q64 62 116 93q156 92 355 92q265 0 437.5 -134t172.5 -347
q0 -261 -237 -418q-213 -140 -507 -140q-221 0 -367 86q-168 100 -169 285q0 104 75.5 162.5t165.5 58.5t158.5 -66.5t68.5 -154.5t-77.5 -143.5t-77.5 -75.5q0 -44 47 -63t100 -19z" />
    <glyph glyph-name="six" unicode="6" horiz-adv-x="1592" 
d="M600 471q0 -439 240 -439q140 0 185 145q26 83 26 281t-26 274q-49 136 -189 136t-194 -118q-42 -92 -42 -279zM1528 507q0 -241 -208 -390t-476 -149q-305 0 -529.5 216.5t-224.5 517.5q0 359 235 602t578 243q207 0 373 -83q197 -96 196 -258q0 -84 -68 -146.5
t-161 -62.5t-168.5 58.5t-75.5 134.5t60 136q30 30 30 44t-4 30q-14 36 -71 57t-139 21q-152 0 -219 -148q-56 -124 -56 -357l2 -191q61 164 296 164q234 1 420 -114q210 -128 210 -325z" />
    <glyph glyph-name="seven" unicode="7" horiz-adv-x="1432" 
d="M915 444q0 -133 6 -292q0 -98 -78.5 -148t-201.5 -50t-191 64t-69 142q0 211 147 444q102 162 232 279l217 198h-318q-318 0 -363 2t-82 -33t-53.5 -115t-12.5 -101h-68l30 426l12 250h1206l40 -76q-24 -20 -122 -133t-194 -278t-117 -305q-20 -141 -20 -274z" />
    <glyph glyph-name="eight" unicode="8" horiz-adv-x="1594" 
d="M1025 383q-1 357 -195 357q-112 0 -169 -72t-57 -254t30 -258q48 -118 184 -118t181 116q26 71 26 229zM816 1464q-188 0 -188 -309q0 -166 22 -228q40 -115 169 -115t172 117q24 69 24 239t-52 233t-147 63zM1530 403q0 -209 -234 -329q-205 -104 -481 -104t-486 112
q-239 126 -239 333q0 144 139 239q98 66 226 95t171 29q-34 0 -144 32t-193 99q-118 94 -119 232q0 185 215 297q191 100 439 100t438 -100q213 -114 212 -299q0 -230 -361 -337q-98 -28 -126 -28q50 0 173 -25t228 -95q142 -97 142 -251z" />
    <glyph glyph-name="nine" unicode="9" horiz-adv-x="1582" 
d="M1001 1064q0 216 -61 308t-170 92q-158 0 -188 -206q-10 -70 -10 -242t20 -238q42 -136 181 -136t190 118q38 88 38 304zM722 562q-229 0 -421 110q-217 124 -217 303q0 247 215 403t479 156q296 0 514 -236t218 -520q0 -349 -235.5 -580.5t-576.5 -231.5q-170 0 -345 82
q-217 102 -217 261q0 88 82.5 147.5t169.5 59.5t158.5 -63.5t71.5 -132.5t-44 -117.5t-44 -64.5q0 -108 202 -108q154 0 219 149q52 122 52 375l12 168q-142 -160 -293 -160z" />
    <glyph glyph-name="colon" unicode=":" horiz-adv-x="553" 
d="M292 0q-89 0 -139.5 56t-50.5 134t49.5 133.5t139.5 55.5t140 -56t50 -133t-50 -133.5t-139 -56.5zM292 495q-89 0 -139.5 56.5t-50.5 133.5t49.5 133.5t139.5 56.5t140 -56.5t50 -133.5t-50 -133.5t-139 -56.5z" />
    <glyph glyph-name="semicolon" unicode=";" horiz-adv-x="655" 
d="M399 -31q0 27 -22 27h-10q-14 0 -63 -9t-108.5 57t-59.5 132t52.5 129.5t140.5 63.5q87 -1 145 -73t58 -174t-69.5 -211.5t-195.5 -191.5l-32 -20l-24 46l32 22q68 48 112 111.5t44 90.5zM511 654q0 -76 -47 -130t-135 -55q-88 0 -136.5 54.5t-48.5 129.5t48.5 130
t135.5 55t135 -54t48 -130z" />
    <glyph glyph-name="less" unicode="&#x3c;" horiz-adv-x="1209" 
d="M1129 6l-1035 475v117l1035 493v-130l-882 -429l882 -406v-120z" />
    <glyph glyph-name="equal" unicode="=" horiz-adv-x="1025" 
d="M965 337h-895v100h895v-100zM965 588h-895v100h895v-100z" />
    <glyph glyph-name="greater" unicode="&#x3e;" horiz-adv-x="1195" 
d="M1125 481l-1035 -475v120l883 406l-883 429v130l1035 -493v-117z" />
    <glyph glyph-name="question" unicode="?" horiz-adv-x="1241" 
d="M798 186.5q0 -88.5 -56 -152.5t-159 -64t-159.5 63t-56.5 151t57 153.5t159.5 65.5t158.5 -64t56 -152.5zM625 1534q228 0 396 -101t168 -273t-136 -291q-193 -124 -383 -249q-30 -36 -46 -74q-14 -58 -14 -63h-64v33q0 80 26 164t42 120l24 59q84 198 84 326
q0 129 -68 201t-142 72t-116.5 -19t-42.5 -77q0 -14 78 -60t78 -148t-80 -154q-80 -51 -164 -51t-136.5 71t-52.5 157q0 158 160.5 257.5t388.5 99.5z" />
    <glyph glyph-name="at" unicode="@" horiz-adv-x="1596" 
d="M951 861q0 80 -31 130t-92 50q-100 0 -196 -169.5t-96 -329.5q0 -72 33 -121.5t107 -49.5q102 0 188 176t87 314zM1039 425q0 -64 40 -64q124 0 231.5 167.5t107.5 348.5q0 239 -176 373t-430 134t-439.5 -185.5t-185.5 -453.5t189.5 -463.5t459.5 -195.5q197 0 320 66
t186 151q22 38 44 78h134q-30 -52 -60 -102q-86 -120 -212 -193q-181 -104 -416 -104q-313 0 -534.5 223.5t-221.5 534.5t217.5 530.5t513.5 219.5q297 0 509 -167t212 -430q0 -229 -146 -409.5t-345 -180.5q-84 0 -126 84q-12 28 -24 84l-63 -70q-76 -90 -196.5 -90
t-198.5 96t-78 225q0 191 152 326t294 135t172 -94l20 -56l40 126l177 4l-159 -590q-8 -24 -8 -58z" />
    <glyph glyph-name="A" unicode="A" horiz-adv-x="1993" 
d="M1003 652l-181 501l-190 -501h371zM1920 -2h-923v68q136 -6 164 42q14 26 14 55t-16 72l-134 355h-415l-60 -189q-18 -60 -18 -120q0 -106 48 -159q30 -30 76 -40t90 -16v-68h-668v68l34 8q34 8 98 39t149 153q86 122 179 354l355 890h298l506 -1297q18 -46 35 -72.5
t56.5 -51.5t79.5 -25t52 2v-68z" />
    <glyph glyph-name="B" unicode="B" horiz-adv-x="1839" 
d="M1006 60q118 0 189 95t71 277q0 342 -329 342h-109v-441l-2 -84q0 -96 26 -135q36 -54 154 -54zM1238 1151q0 120 -63.5 204.5t-172.5 84.5t-141 -30q-33 -30 -33 -77v-59v-436h101q142 0 210 53q99 74 99 260zM1783 429q-1 -195 -185 -313t-437 -118h-1081v68
q66 2 136 7t94.5 34t24.5 88v517q0 516 1 555t-3 76t-19 59t-81.5 33t-95.5 11h-35q-2 0 -8 -2v66h1077q249 0 392 -70q173 -84 172 -261q0 -156 -138 -252q-97 -67 -223 -93t-176 -26q64 0 150 -14q177 -28 283 -98q152 -99 152 -267z" />
    <glyph glyph-name="C" unicode="C" horiz-adv-x="1544" 
d="M1476 578q0 -291 -156 -451q-156 -159 -435 -159q-331 0 -562 226.5t-231 548.5t242 562t553 240q96 0 195 -31.5t202 -63.5q26 0 49 28t43 56l46 3l12 -640h-46q-30 74 -60 150q-76 170 -159 281q-116 152 -224 152q-249 0 -307 -433q-18 -138 -18 -327q0 -377 95 -521
q95 -145 273 -145t282 135q76 98 106 252q6 68 14 137h86z" />
    <glyph glyph-name="D" unicode="D" horiz-adv-x="1911" 
d="M1330 809q0 256 -52 403q-86 244 -335 244q-77 0 -99 -34t-22 -79v-1008q0 -148 2 -162q14 -100 139 -101q177 0 265 119q72 96 92 274q10 88 10 344zM325 1290q0 26 -2 61t-26 65t-139 30h-30q-30 0 -38 -2l2 66h919q331 0 552 -154q278 -195 278 -586
q0 -329 -230.5 -549.5t-585.5 -220.5l-949 -2v68q12 -4 107.5 7t119.5 37.5t24 126.5l-2 82v971z" />
    <glyph glyph-name="E" unicode="E" horiz-adv-x="1640" 
d="M1567 0h-1485v66q135 0 176 23t51 62.5t10 75.5v44l2 989q0 72 -8 102t-30 49t-102.5 28t-92.5 5v68h1414l12 -569h-48q-36 96 -64 154q-86 173 -202 279q-86 78 -259 78q-82 0 -123 -34q-16 -16 -16 -75v-505q214 19 268 221q21 78 35 149h52v-809h-56q-17 162 -110 285
q-52 68 -96 82q-54 6 -95 12v-507q0 -82 9.5 -144.5t170.5 -62.5q162 0 306 137q123 117 228 459h53v-662z" />
    <glyph glyph-name="F" unicode="F" horiz-adv-x="1574" 
d="M1022 66h45v-68h-983l-2 68q137 0 182 25t54 53.5t9 124.5v989q0 80 -4 107t-27 46t-111.5 28t-102.5 5v66h1422v-605h-50q-36 104 -64 166q-88 185 -203 293q-92 84 -246 84q-86 0 -123 -30q-14 -12 -14 -52v-39q0 -39 2 -57v-418q72 0 120.5 17.5t95.5 68.5t95 292h50
v-831h-46q-6 60 -14 96q-28 111 -84 185t-104 92q-22 8 -105 20v-575q0 -48 8 -78.5t48 -51.5t152 -21z" />
    <glyph glyph-name="G" unicode="G" horiz-adv-x="1911" 
d="M905 52q254 0 254 373q0 57 -12 165q-8 90 -110 102q-74 6 -108 8l-2 58l934 2v-58q-170 -6 -206 -58q-26 -39 -26 -114v-530h-52q-23 60 -61 120t-80 61q-92 -77 -244 -137t-321 -60q-329 0 -559 222.5t-230 541.5t240 557t541 238q148 0 271.5 -35.5t235.5 -69.5
q47 15 86 101h50l12 -646h-62q6 17 -55 171t-153 258q-130 148 -293 148q-245 0 -319 -268q-36 -132 -36 -450t48 -469q72 -231 257 -231z" />
    <glyph glyph-name="H" unicode="H" horiz-adv-x="2050" 
d="M1986 -2h-925v68h22q56 0 80 6t53.5 32t29.5 92v586h-404v-535q0 -100 4 -115.5t32 -37.5t139 -28v-66h-921v66q70 4 107 8q110 16 128 50t18 71v1063q0 109 -16 138q-27 48 -195 48h-30v66h917v-66q-134 0 -164 -58q-19 -34 -19 -76v-462h404v234q0 234 1 267t-26 60
t-66.5 32t-42.5 5h-34q-9 0 -17 -2v66h921v-66h-28q-151 0 -189 -44q-16 -20 -20 -46t-4 -90v-1085q4 -30 26 -68.5t219 -44.5v-68z" />
    <glyph glyph-name="I" unicode="I" horiz-adv-x="1131" 
d="M1071 -2h-983v68q197 6 225 48q22 31 21 71t-1 56v529q0 528 1 554t-17 61q-25 47 -233 59v66h975v-66h-28q-153 0 -181 -41t-28 -149v-1017q0 -50 3 -70.5t25 -57.5t221 -43v-68z" />
    <glyph glyph-name="J" unicode="J" horiz-adv-x="1560" 
d="M1502 1444h-16q-20 0 -55 1t-76 -6t-61 -31t-25 -55t-5 -87l-6 -829q0 -237 -175 -361q-150 -108 -405 -108t-415 86q-177 94 -177 281q0 152 105 233q86 66 191 66q104 0 166 -72t62 -153q0 -126 -118.5 -173t-116.5 -78q6 -62 75 -94t134 -32q158 0 184 171q8 54 8 194
l-2 867q0 54 -3 78t-24 54t-87 37t-132 11v66h974v-66z" />
    <glyph glyph-name="K" unicode="K" horiz-adv-x="2104" 
d="M2030 0h-965v66q123 12 154 28t31 60q0 16 -8 31l-313 589l-101 -76l-2 -465q0 -44 5 -70.5t28 -50.5q24 -32 96 -42q22 -2 66 -4v-66l-925 -2v68h30q164 0 193 48q18 25 18 34v1154q0 66 -28.5 105t-176.5 39h-26q-10 0 -18 -2v66h981v-66h-10q-14 0 -53 1
q-123 3 -150 -38q-28 -41 -28 -86v-545l357 325q54 50 97.5 120.5t43.5 101.5t-6 47q-38 77 -134 75q-40 -1 -43 -1v66h761v-66q-202 12 -450 -184q-132 -104 -150 -133l461 -876q28 -52 38 -68q35 -61 73 -81q67 -36 107 -35q39 1 47 1v-68z" />
    <glyph glyph-name="L" unicode="L" horiz-adv-x="1596" 
d="M1520 -2h-1424v68q22 -2 57 -2t89.5 10t73.5 39t18 69q-1 39 -1 59v1043q0 50 -2 64t-12 34q-18 36 -128 52q-36 4 -107 10v66h991v-66q-34 0 -142.5 -4.5t-108.5 -167.5v-22l-2 -1013q0 -106 14 -129q28 -44 108 -44q305 0 472 433q24 64 56 173l48 -2v-670z" />
    <glyph glyph-name="M" unicode="M" horiz-adv-x="2226" 
d="M2168 66v-66h-991v66q158 0 209 30q20 12 27 39t7 100v1065l-367 -1300l-201 -2l-387 1324v-702q0 -195 10 -265q20 -140 93 -221q40 -42 88 -53t88 -15v-66h-664v66q38 4 80 14t83 48q70 68 103 199.5t33 288.5v332q0 332 2 365t-22 72q-32 53 -249 59v66h793l258 -888
l239 888h770v-66q-54 -4 -112 -10t-88 -24t-38 -45t-8 -63l-2 -1039q0 -76 11 -116.5t49 -56.5q62 -26 122 -25t64 1z" />
    <glyph glyph-name="N" unicode="N" horiz-adv-x="1861" 
d="M1793 1444q-34 0 -75 -9t-93 -57t-92 -176t-41 -388l2 -816h-286l-763 1155v-415q0 -479 92 -571t213 -101v-66h-674v66q46 10 92 22q48 18 90 56t75 174q32 136 32 414v530q-26 38 -61 83q-77 99 -204 99v66h688l632 -948l2 315q0 201 -35 332t-98 185t-136 54
q-20 0 -32 -4v66h672v-66z" />
    <glyph glyph-name="O" unicode="O" horiz-adv-x="1799" 
d="M921 1492q-307 0 -307 -734q0 -215 12 -317q43 -389 311 -389q130 0 196 121q55 98 69 245t14 394t-51 424q-68 239 -216 254q-8 2 -16 2h-12zM1739 752q0 -325 -242.5 -551.5t-567.5 -226.5t-582 233t-257 561t255 550q255 223 593 223t569.5 -232t231.5 -557z" />
    <glyph glyph-name="P" unicode="P" horiz-adv-x="1861" 
d="M865 1300v-516h128q150 0 225 105q52 74 52 166q0 144 -30 225q-54 144 -201 162l-54 4q-70 0 -95 -33t-25 -113zM1797 1095q0 -179 -134 -271q-108 -74 -313 -98q-122 -14 -347 -14h-138v-425q0 -108 19.5 -153t170.5 -62q30 -2 86 -6v-68h-1043v68q38 2 60 2
q138 10 164 42t26 41l1 1131q0 76 -16 108t-80.5 45t-110.5 13t-54 -4v66h999q293 0 476 -82q234 -106 234 -333z" />
    <glyph glyph-name="Q" unicode="Q" horiz-adv-x="1799" 
d="M668 293q0 -18 2 -28q20 -110 106 -175q28 -20 83 -42l8 275q1 34 -21 66t-64 38t-78 -34t-36 -100zM1216 800q0 670 -297 668q-134 0 -209 -114q-60 -92 -77 -241.5t-17 -375.5t10 -290q14 -24 14 -28q126 126 259.5 126.5t219.5 -90.5q28 -30 64 -92q10 30 21.5 176.5
t11.5 260.5zM1743 760q0 -231 -120.5 -416.5t-318.5 -279.5q12 -52 24 -78q42 -80 122 -80q115 0 161 114q24 60 24 142v19q0 2 -2 8h66l-2 -47q0 -197 -104 -331q-122 -156 -350 -156t-328 158q-32 52 -54 161q-291 0 -532 237t-241 561t244 543t573 219t583.5 -226.5
t254.5 -547.5z" />
    <glyph glyph-name="R" unicode="R" horiz-adv-x="1961" 
d="M905 790q130 0 201 66t71 228q0 161 -63 240.5t-161 79.5q-99 0 -125 -23t-26 -57v-534h103zM1190 90q-50 62 -56.5 250t-6.5 194q-20 114 -63 153t-181 39h-81v-507q0 -62 12 -85.5t39.5 -39.5t84.5 -21t107 -9v-64l-953 -2v66q165 6 198 33t33 80v1063q0 54 -3 80
t-18 42t-72.5 27t-91.5 11t-42 -4v64h987q261 0 417.5 -94t156.5 -250q0 -264 -425 -338q-104 -18 -151 -18q122 -10 189 -22q203 -40 273 -126q54 -72 69 -304t111 -232q52 0 87 74.5t35 170.5h61q-22 -148 -39 -183q-82 -164 -333 -164q-250 0 -344 116z" />
    <glyph glyph-name="S" unicode="S" horiz-adv-x="1436" 
d="M1380 518q0 -196 -160 -356q-189 -191 -492 -190q-138 0 -323 76q-78 34 -154 68q-24 10 -59 -31t-50 -85h-52v658h56q26 -80 53 -159q74 -181 180 -294q150 -160 339 -161q140 0 240 55t113 174q2 8 2 16v12q0 102 -106 158q-62 32 -277 89l-223 58q-179 46 -279 161
t-102 282q0 215 172 351t400 137q110 0 245 -43q42 -12 182 -70q22 -10 55 28t43 58h51v-529h-53q-26 64 -50 128q-175 369 -455 369q-114 0 -200 -54t-85 -158q0 -104 137 -153q52 -18 238 -66l209 -52q199 -49 302 -165t103 -312z" />
    <glyph glyph-name="T" unicode="T" horiz-adv-x="1618" 
d="M1510 873h-42q0 29 -65 191t-132 243t-103 109t-97 28h-24v-1213q0 -42 5 -64.5t26.5 -53.5t89.5 -38t134 -9v-68h-987v68q62 4 128 10t90.5 29t29.5 52.5t5 79.5v1207h-26q-62 0 -141 -86q-111 -121 -188 -341q-18 -54 -45 -146h-50v639h1392v-637z" />
    <glyph glyph-name="U" unicode="U" horiz-adv-x="1879" 
d="M1121 56q132 0 213 70q124 108 124 367v404q0 162 -35 288.5t-74 178.5q-63 82 -165 82h-39q-2 -2 -2 64h662v-66q-42 -4 -84 -6q-38 -8 -93 -66t-77.5 -164.5t-22.5 -312.5l2 -406q0 -279 -130 -399t-401 -120q-339 0 -509 125t-169 322l-2 831q2 44 2 73t-7 53
t-28.5 43t-85.5 22t-126 5v66h981v-66h-30q-168 0 -191.5 -35t-26.5 -57t-3 -76l4 -885q0 -335 313 -335z" />
    <glyph glyph-name="V" unicode="V" horiz-adv-x="1947" 
d="M1854 1446q-65 0 -149 -60t-157 -168t-118 -229l-369 -991h-275l-461 1264q-32 86 -36 92q-51 92 -167 92h-38q-2 0 -4 -2v66h907v-66q-44 0 -92.5 -3t-66.5 -25t-18 -49t34 -107l301 -827l193 550q58 165 58 251t-36 146q-22 36 -84 52q-64 10 -76 12v66h688v-66
q-14 2 -34 2z" />
    <glyph glyph-name="W" unicode="W" horiz-adv-x="2569" 
d="M1765 1446q-158 0 -158 -82q0 -23 38 -142l204 -692l167 513q26 99 26 168q0 127 -48 180t-159 53v66h674v-66q-90 -32 -121 -44t-81 -58q-49 -46 -123 -168t-106 -225l-321 -949l-251 -2l-284 929l-267 -927l-253 -2l-421 1256q-22 64 -40 102t-58 63t-91 25v66h797v-66
q-76 0 -98.5 -26t-22.5 -57t26 -101l237 -730l152 531l-58 187q-30 88 -44 122t-44 54t-96 20v66h850v-66q-2 2 -11 2h-15z" />
    <glyph glyph-name="X" unicode="X" horiz-adv-x="2054" 
d="M1132 1448q-119 0 -119 -82q0 -28 11 -48t29 -50l189 -305l74 116q88 150 88 235q0 52 -37.5 92t-110.5 40h-19q-7 0 -9 -2v66h647v-66q-74 -11 -196 -90q-58 -36 -118 -96t-81 -91l-200 -262l381 -642q86 -140 142 -173q37 -26 111 -26h23q9 0 15 2v-70h-989v70
q180 -26 180 74q0 22 -4 34t-40 69l-255 429l-176 -273q-24 -38 -44 -98t-20 -103q0 -90 86 -122q32 -12 58 -12h38q2 0 4 2v-66h-666v66q166 31 329 207q62 64 119 144l230 321l-297 498q-60 104 -100 140q-6 6 -55 37t-120 31h-27v66h980v-66q-16 4 -51 4z" />
    <glyph glyph-name="Y" unicode="Y" horiz-adv-x="1799" 
d="M1121 237q0 -60 4 -81.5t34.5 -47.5t94.5 -32t122 -8v-70h-995v68h8q22 -2 66 -2t88.5 8t64.5 35t25 55.5t5 80.5l2 419l-267 517q-44 91 -75 149t-63 79q-31 21 -79 27t-70 10v66h921v-66q-48 0 -109.5 -6.5t-61.5 -63.5q0 -39 51 -156l198 -420l131 255q36 82 53 127
q17 44 17 112t-43 110t-140 42v66h642v-66q-81 -8 -164 -71t-143 -133t-132 -201l-185 -327v-475z" />
    <glyph glyph-name="Z" unicode="Z" horiz-adv-x="1494" 
d="M177 1510h1175l50 -60l-760 -1378h130q138 0 218 42t157 128q108 119 191 428l64 -2v-670l-1278 2l-48 66l756 1384q-144 0 -239 -29t-163 -119t-110 -170q-41 -80 -79 -185l-12 -32l-52 -2v597z" />
    <glyph glyph-name="bracketleft" unicode="[" horiz-adv-x="790" 
d="M483 1416v-1488q0 -112 18 -143q6 -8 56 -31t113 -23q64 0 66 2v-66h-600v1970h602v-60q-16 6 -119 -9.5t-119 -45.5t-17 -106z" />
    <glyph glyph-name="backslash" unicode="\" horiz-adv-x="1179" 
d="M1107 -22h-194l-839 1579h189z" />
    <glyph glyph-name="bracketright" unicode="]" 
d="M708 -333h-602v66q2 -2 38 -2t76.5 5t78.5 23t42 24q18 28 18 145v727q0 727 1 783t-15 84t-90 38t-149 17v60h602v-1970z" />
    <glyph glyph-name="asciicircum" unicode="^" horiz-adv-x="936" 
d="M885 1099l-412 167l-395 -169l395 407z" />
    <glyph glyph-name="underscore" unicode="_" horiz-adv-x="1420" 
d="M1430 -265h-1430v137h1430v-137z" />
    <glyph glyph-name="grave" unicode="`" horiz-adv-x="704" 
d="M80 1419q0 59 39 98.5t101 39.5t117 -77q48 -76 98 -150q44 -56 78 -87t87 -54l44 -20l-4 -42l-28 4q-96 12 -199.5 40.5t-164 56.5t-114.5 80t-54 111z" />
    <glyph glyph-name="a" unicode="a" horiz-adv-x="1546" 
d="M564 291q0 -131 66 -131q71 0 120.5 91.5t49.5 181.5l2 187q-72 -8 -140 -62q-96 -78 -96 -203q-2 -36 -2 -64zM1326 96q78 0 96 211h64v-30q0 -151 -91 -223t-233 -72q-313 0 -346 178l-10 55l-46 -61q-46 -58 -150 -114t-207 -56q-158 0 -241.5 74t-83.5 191
q0 173 183 275q142 80 471 152l70 16v229q0 92 -27 133t-118 41t-119.5 -15t-38.5 -55q34 -32 64.5 -72t30.5 -105t-69.5 -113.5t-155.5 -48.5t-145.5 48t-59.5 133q0 148 169 228q142 68 339 68q596 0 596 -355v-603q0 -66 11 -87.5t47 -21.5z" />
    <glyph glyph-name="b" unicode="b" horiz-adv-x="1676" 
d="M1113 599q0 206 -18 296q-34 166 -136 166q-130 0 -191 -174q-46 -134 -46 -338t34 -310q50 -158 185 -159q90 0 136 175q36 138 36 344zM1619 601q1 -225 -141 -395t-383 -212q-34 -6 -64 -6q-116 0 -284.5 104.5t-251.5 104.5q-62 -6 -101 -50.5t-87 -150.5h-54v1274
q0 88 -6 121t-24 51q-32 38 -117 46q-14 0 -38 2v61l636 20l-2 -660l32 62q54 100 140.5 141t210.5 41q219 0 376.5 -165t157.5 -389z" />
    <glyph glyph-name="c" unicode="c" horiz-adv-x="1337" 
d="M618 610q0 -257 32 -359q56 -183 233 -183q138 0 232 114t95 215l2 56h70v-42q0 -195 -154 -314t-372 -119q-285 0 -476.5 179.5t-191.5 438.5t211 417t487 158q207 0 346 -84t140 -247q0 -92 -75.5 -154t-165.5 -62t-159.5 61t-69.5 144t50 134q56 42 113 86
q0 52 -86 52l-61 -2q-200 0 -200 -489z" />
    <glyph glyph-name="d" unicode="d" horiz-adv-x="1741" 
d="M995 602q0 191 -42 303q-52 140 -163 140q-92 0 -135 -145.5t-43 -361.5t16 -291q34 -160 146 -161q221 21 221 516zM668 -20q-235 0 -410.5 173.5t-175.5 409.5t171.5 415t424.5 179q182 0 285 -138l34 -46v323q0 126 -29 155t-71 35t-83 6v61l646 18v-1310
q0 -72 11 -114.5t47 -55.5t169 -25v-66l-686 -18l-4 207l-38 -61q-32 -50 -118.5 -99t-172.5 -49z" />
    <glyph glyph-name="e" unicode="e" horiz-adv-x="1424" 
d="M885 852q1 92 -35 172t-104 81q-78 0 -114 -128q-28 -97 -28 -201t8 -108l96 2h50q50 0 74.5 6t32.5 28q20 56 20 148zM780 -24q-307 0 -503.5 176.5t-196.5 438.5t204 420t466 158t436 -156q175 -156 176 -339l2 -72h-752v-72l-2 -105q0 -168 42 -252q64 -126 235 -127
q138 0 245.5 84.5t135.5 224.5l10 44h72l-12 -68q-30 -164 -181.5 -259.5t-376.5 -95.5z" />
    <glyph glyph-name="f" unicode="f" horiz-adv-x="1321" 
d="M1270 1410q0 -72 -55.5 -135t-137.5 -63t-146 56t-64 148q0 28 24 68t52 85q2 14 -10 17t-40 3q-56 0 -95.5 -63.5t-39.5 -173.5v-207h321v-64h-319v-838q0 -38 1 -75.5t17 -62.5t78 -31t121 -8v-68h-891v68q22 -2 52 -2q88 0 119 44q18 25 18 139v834h-187v64h187l10 87
q16 118 94 214q161 203 541 203q128 0 217 -40q133 -61 133 -199z" />
    <glyph glyph-name="g" unicode="g" horiz-adv-x="1666" 
d="M353 -331q0 -138 150 -207q114 -52 287 -52t291 46q175 69 175 223q0 130 -257 157q-82 8 -277 8l-88 2q-170 0 -225.5 -44.5t-55.5 -132.5zM650 744q0 -285 144 -287q88 0 121 105q22 70 22 155v103q0 130 -20 191q-31 90 -111 90t-118 -101t-38 -256zM810 273
q355 0 514 -84q178 -94 178 -325t-202.5 -372.5t-567.5 -141.5q-245 0 -425 72q-219 88 -219 245q0 100 109 160q78 44 180 55q-94 14 -166.5 84t-72.5 173t63.5 190.5t151.5 109.5l78 18q-74 26 -146 91q-108 96 -108 210q0 187 168 295t437 108t442 -100l-18 62
q-10 36 -10 70q0 89 56 153t152 64t149.5 -51t53.5 -123t-47.5 -128.5t-125.5 -56.5q-36 0 -84 15t-50 12t68 -141q42 -84 42 -173q0 -185 -206 -285q-168 -82 -388 -82l-226 4q-108 0 -165.5 -10t-63.5 -40q-8 -54 163 -70q84 -8 286 -8z" />
    <glyph glyph-name="h" unicode="h" horiz-adv-x="1851" 
d="M1787 -2h-804v68q121 0 130.5 70.5t9.5 128.5v503q0 162 -34 215q-20 32 -66 32q-109 1 -175 -153t-66 -312l-2 -65v-260q0 -58 5 -90.5t24 -47.5t57.5 -17t76.5 -4v-68h-847v68h24q114 0 149 48q26 33 26 151v1107q0 62 -15 84q-27 40 -112 40q-32 0 -48 -4v61l644 22
v-725l52 71q94 130 190 185t262 55q100 0 168 -24t118 -82t61.5 -135.5t11.5 -195.5v-463q0 -131 26 -165t94 -34q24 0 40 4v-68z" />
    <glyph glyph-name="i" unicode="i" horiz-adv-x="992" 
d="M931 -2h-845v68q26 0 83.5 2t91.5 48q22 33 22 149v680q0 40 -3 52t-21 34q-32 40 -161 48v60l660 22l-2 -900q0 -58 5 -90.5t27 -68.5t143 -36v-68zM530 1709q104 0 163 -66q59 -65 59 -155t-54 -151t-157 -61t-163 66t-61 154q0 88 54.5 150.5t158.5 62.5z" />
    <glyph glyph-name="j" unicode="j" horiz-adv-x="908" 
d="M806 -28q0 -160 -24 -264t-118 -183t-212 -109t-282 -30t-290 83t-127 250q0 74 72.5 136.5t167.5 62.5t154.5 -61.5t59.5 -143.5t-49 -132q-50 -42 -98 -86q4 -24 34 -37.5t64 -13.5t47 2q134 16 134 254v136l-2 978q0 136 -4 164.5t-25 56.5t-68 35t-92 9v60l658 22
v-1189zM577 1292q-101 0 -158.5 63t-57.5 149t56.5 151.5t158.5 65.5t158 -63t56 -151.5t-56 -151.5t-157 -63z" />
    <glyph glyph-name="k" unicode="k" horiz-adv-x="1803" 
d="M1113 975l-4 22q-16 44 -68 69t-88 13v60h686v-60q-78 -10 -92 -12q-27 -10 -79 -25t-164 -85t-157 -115l341 -615q36 -65 60 -95q52 -66 183 -66v-66l-666 -2l-289 564l-36 -28v-277q0 -74 3 -99.5t23.5 -59.5t134.5 -34h19q7 0 13 2v-66h-849v66q125 0 163 50
q22 33 22 149v1111q0 54 -42 90q-15 14 -65 18t-76 8v61h297q78 0 204 9t151 9v-955l239 182q136 102 136 177z" />
    <glyph glyph-name="l" unicode="l" horiz-adv-x="1008" 
d="M340 1553l163 2l241 16v-1310q0 -30 1 -71.5t26 -82.5t150 -41h26v-68h-867v68q149 12 187 62q18 23 18 137v1009q0 90 -11 127t-35 57q-54 40 -145 34v61h246z" />
    <glyph glyph-name="m" unicode="m" horiz-adv-x="2601" 
d="M896 1062q132 99 303 99t255 -84t95 -132l10 -36l16 26q151 228 401 228q92 0 170.5 -23t116.5 -67q60 -72 72 -130t12 -233l2 -467q0 -38 1 -74.5t17 -62.5t66 -32t100 -8v-66h-810v66q24 -2 53 2t50 32t21 80v592q0 58 -1 128.5t-25 91.5t-41 21t-37 -4
q-118 -18 -164 -255q-24 -122 -24 -240v-346q9 -82 65 -94q29 -6 57 -8v-66h-752v66q26 -2 56 2t51 32t21 80v701q0 78 -15 103t-22 29t-27 4q-112 0 -179 -173q-58 -150 -58 -337v-264q0 -40 1 -81.5t18.5 -69.5t83.5 -28h22q4 0 10 2v-66h-795v66q42 2 66 4q72 10 94 40
t23 137v640q0 124 -28.5 151t-70.5 33t-78 8v60l349 -4q91 0 289 22l8 -288l42 72q36 66 110 121z" />
    <glyph glyph-name="n" unicode="n" horiz-adv-x="1835" 
d="M1195 1151q169 0 252 -55t113.5 -125t30.5 -191v-535q0 -117 20 -151q21 -32 96 -32q32 0 52 4v-66l-804 -2v68q20 -6 35 -6q41 0 66 28.5t25 158.5v531q0 161 -19 193t-30 36t-37 4q-112 0 -181.5 -160.5t-69.5 -343.5v-264q0 -40 1 -80.5t18 -69.5t104 -29h30q4 0 12 2
v-66h-835v66h12q16 -2 46 -2q81 0 106 33t25 150v597q0 164 -30.5 192.5t-72.5 34.5t-80 8v60l351 -4q121 0 295 24l4 -333l48 95q32 68 140 149t277 81z" />
    <glyph glyph-name="o" unicode="o" horiz-adv-x="1590" 
d="M598 572q0 -534 212 -534q86 0 137 114q62 143 62 425q0 516 -191 516q-140 12 -190 -170q-30 -110 -30 -351zM90 546q0 264 221 442t497 178t500 -166q222 -165 222 -422q0 -258 -214 -430t-500 -172q-285 0 -495 146q-231 160 -231 424z" />
    <glyph glyph-name="p" unicode="p" horiz-adv-x="1723" 
d="M1145 626q0 207 -22 295q-38 152 -150 152t-173 -166q-50 -136 -50 -339t26 -291q44 -148 175 -171q104 -20 156 171q38 142 38 349zM1095 1175q251 0 413.5 -168t162.5 -399t-128 -401q-160 -213 -452 -213q-170 0 -315 154l-26 29v-532q4 -38 25 -72t196 -46v-65h-925
v65h26q144 0 176 43q22 30 23 159v1156q0 106 -10 132t-53.5 45t-75.5 19h-42q-2 -2 -2 58l321 8q102 0 329 22l-2 -224l28 40q72 98 146 144t185 46z" />
    <glyph glyph-name="q" unicode="q" horiz-adv-x="1737" 
d="M788 1093q-182 0 -182 -501v-91q0 -187 22 -266q36 -129 145 -129t171 158t63 358q0 199 -40 313q-56 158 -179 158zM1687 -536h-893v67q16 -4 74.5 5t88.5 25t38 55t8 97v80l2 420l-28 -36q-74 -102 -154.5 -140.5t-196.5 -38.5q-231 0 -385.5 166.5t-154.5 405.5
t186.5 421t401.5 182q162 0 319.5 -98t191.5 -92q148 24 211 122q26 56 32 64h52v-1339q0 -126 3 -178.5t26 -77.5t77 -32t101 -11v-67z" />
    <glyph glyph-name="r" unicode="r" horiz-adv-x="1372" 
d="M1300 961q0 -94 -60.5 -164.5t-147.5 -70.5q-177 0 -235 137q-13 26 -13 47t4 47q-6 -2 -10 -2q-40 -30 -63 -142.5t-23 -158.5v-393q0 -40 1 -78.5t24 -74.5t176 -42v-68h-873v68h24q113 0 145 48q18 24 18 151v646q0 86 -16 110q-26 18 -44 31q-17 13 -57 18t-62 9v60
l648 22v-232l30 54q98 189 301 188q108 0 170.5 -58t62.5 -152z" />
    <glyph glyph-name="s" unicode="s" horiz-adv-x="1221" 
d="M102 -2v471h48q22 -56 66 -149t131 -172q124 -112 281 -112q96 0 164.5 41t68.5 123q0 83 -135 123q-68 18 -134 38l-155 50q-158 50 -236 125q-99 92 -99 251t158 265t350 107q94 0 175 -23t126 -36t90 45h52v-367h-46q-50 108 -92 163q-126 162 -295 162
q-76 0 -132.5 -31t-56.5 -83t63 -85t174 -56l112 -34q162 -50 253 -128q120 -106 120 -276t-150 -302t-389 -132q-74 0 -163 26l-188 64q-55 0 -103 -68h-58z" />
    <glyph glyph-name="t" unicode="t" horiz-adv-x="1209" 
d="M1077 363v38h64v-32q0 -197 -88 -289q-108 -112 -377 -112q-197 0 -305 74t-108 219v810h-179v60q70 0 143.5 19t117.5 60q64 54 104 163t40 196l255 -2v-428h335v-72h-335v-812q0 -83 26 -133t107 -50q18 2 26 2q174 15 174 289z" />
    <glyph glyph-name="u" unicode="u" horiz-adv-x="1891" 
d="M1827 -2h-203q-204 0 -334 -10t-155 -10v325l-30 -48q-98 -164 -246 -235q-96 -46 -203 -46q-28 2 -38 2q-225 20 -307 152q-60 96 -60 297v470q0 104 -4 121t-27 36t-64.5 22t-77.5 5v60q96 0 224 6t137 6l319 22v-920q0 -54 34 -90.5t77 -36.5q10 0 16 2
q134 46 184 185.5t50 448.5v82q0 110 -5 144.5t-30.5 62.5t-140.5 28h-20v60l397 12l303 26v-988q4 -40 26.5 -75.5t177.5 -47.5v-68z" />
    <glyph glyph-name="v" unicode="v" horiz-adv-x="1586" 
d="M1532 1079q-100 0 -177 -88t-143 -235q-14 -32 -59 -148l-244 -608h-273l-351 889q-42 108 -80 142q-39 34 -71 40t-58 8v60h839v-60q-140 -6 -151 -52q-6 -24 6 -64q18 -42 20 -50l201 -520l120 319q50 135 50 213t-42.5 116t-113.5 38v60h527v-60z" />
    <glyph glyph-name="w" unicode="w" horiz-adv-x="2296" 
d="M852 1071q-106 0 -106 -72q0 -23 26 -94l197 -510l126 337l-86 233q-16 45 -64 75.5t-93 30.5zM78 1139h1563v-60q-18 8 -72.5 -12t-62.5 -36t-8 -36.5t34 -93.5l173 -498l118 317q30 85 30 146q0 99 -28.5 156t-121.5 57v60h524v-60q-88 -25 -145 -77
q-56 -51 -112 -146.5t-90 -197.5l-247 -660l-269 2l-237 624l-240 -626l-265 2l-339 891q-24 66 -42 99q-32 59 -125 81q-14 2 -38 8v60z" />
    <glyph glyph-name="x" unicode="x" horiz-adv-x="1646" 
d="M1575 0h-913v66q42 2 64 4q68 10 80 44q6 18 6 38t-16 47l-168 270l-129 -194q-22 -31 -22 -90t15.5 -81t45.5 -28t60 -10v-68h-522v68q74 13 130 39q55 25 123 83.5t112 122.5l147 227l-225 373q-44 72 -70 98t-56 41t-127 29v60h899v-60q-111 -6 -125 -28
q-13 -22 -13 -42t22 -54t24 -36l116 -187l92 137q30 43 30 92q0 50 -15 77t-42 32t-43 9v60h479v-60q-86 -6 -130 -41t-103 -89t-69 -66l-167 -217l279 -455q39 -67 83.5 -102t80 -39t67.5 -4v-66z" />
    <glyph glyph-name="y" unicode="y" horiz-adv-x="1556" 
d="M368 -604q-92 0 -164 59.5t-72 147.5t66 164q66 77 152 77q87 0 127.5 -23.5t63.5 -53.5t34 -90t17 -60q50 0 106 142q36 94 74 189l22 50h-164l-347 899q-38 96 -92 144q-28 26 -60.5 31t-60.5 7v60h831v-60q-44 0 -67 -2q-70 -10 -86 -50q-6 -16 -6 -29t11 -37t17 -42
l207 -500l108 273q46 120 46 197q0 78 -44 144q-14 24 -48 35t-62 11v60h519v-60q-76 -22 -112 -44.5t-108 -138.5q-72 -115 -101 -184l-308 -736q-89 -228 -171 -379q-38 -69 -137 -135t-191 -66z" />
    <glyph glyph-name="z" unicode="z" horiz-adv-x="1285" 
d="M632 1073q-42 0 -110 -19t-131 -83q-32 -30 -50 -50q-66 -74 -110 -219l-10 -30l-51 -2v469h1009l45 -74l-600 -999l38 -2q169 0 277 84q82 62 141 180t59 192l52 2v-522l-1061 -2l-42 76l602 999h-58z" />
    <glyph glyph-name="braceleft" unicode="{" horiz-adv-x="627" 
d="M403 1292v-464q0 -86 -33 -126t-50 -50t-55 -24l-28 -12l34 -14q54 -23 80 -62q36 -42 36 -91v-513q0 -104 41 -151q41 -46 88 -60l36 -12h-63q-130 0 -206 76q-52 48 -52 239v443q0 52 -38 91q-17 19 -75 44l-28 14l26 10q127 52 127 154l2 24v476q0 95 62.5 159.5
t175.5 64.5h81l-40 -14q-121 -45 -121 -202z" />
    <glyph glyph-name="bar" unicode="|" horiz-adv-x="391" 
d="M120 -542v2066h155l2 -2066h-157z" />
    <glyph glyph-name="braceright" unicode="}" horiz-adv-x="641" 
d="M427 471v-443q0 -187 -46 -233q-82 -82 -213 -82h-64l38 12q44 11 77 48q34 38 43 72.5t9 90.5v513q0 72 44 106.5t72 46.5l34 14l-30 12q-34 12 -50 20t-39 37t-35 76t-12 67v464q0 84 -36 134t-85 68l-40 14h81q114 0 176 -66t62 -158l-2 -476l2 -24q6 -50 36 -94
q31 -38 93 -60l26 -10l-28 -14q-20 -10 -40.5 -19t-34.5 -25q-38 -36 -38 -91z" />
    <glyph glyph-name="asciitilde" unicode="~" horiz-adv-x="1053" 
d="M642 1133q-60 -1 -172 55t-181 56q-70 0 -127 -51l-34 -32l-44 18l22 49q68 144 113 194q78 90 198 90q74 0 145 -30q220 -94 232 -97t36 -3q60 0 101 46l26 30l46 -20l-16 -40q-42 -102 -100 -162q-84 -86 -215 -101q-10 -2 -30 -2z" />
    <glyph glyph-name="nonbreakingspace" unicode="&#xa0;" horiz-adv-x="1604" 
 />
    <glyph glyph-name="exclamdown" unicode="&#xa1;" horiz-adv-x="647" 
d="M574 -190q0 -100 -63 -182t-175 -83q-112 0 -185 79t-73 179t133 476q52 150 76 277l8 52h62l8 -52q18 -120 68 -258t95.5 -263t45.5 -225zM328 676q-101 0 -159.5 68t-58.5 158t57.5 155.5t160.5 65.5t160 -65t57.5 -155.5t-57.5 -158.5t-160 -68z" />
    <glyph glyph-name="cent" unicode="&#xa2;" horiz-adv-x="1333" 
d="M604 738q0 -162 11 -261.5t59 -173.5v838q-70 -116 -70 -403zM1268 582v-42q0 -191 -145.5 -312.5t-352.5 -121.5v-208h-96v212q-263 24 -431.5 198.5t-168.5 412.5t176 388t424 183v226h94v-218q207 0 348 -84t142 -247q0 -92 -75.5 -154.5t-165.5 -62.5t-159.5 61.5
t-69.5 144.5t50 133q56 42 113 86q0 53 -86 53l-61 -2l-36 -6l2 -1003q51 -22 99 -22q138 0 232 113t95 216l2 56h70z" />
    <glyph glyph-name="sterling" unicode="&#xa3;" horiz-adv-x="1642" 
d="M296 217q-53 0 -86.5 -19.5t-41.5 -69.5t66 -94.5t221 26.5q87 42 95 66q-10 12 -106 52t-148 39zM1394.5 49.5q-140.5 -95.5 -332.5 -95.5t-426 122l-20 12l-30 -18q-162 -106 -262 -106t-169 60t-69 132q0 148 139 235q114 72 227 72q183 0 298 -48l18 -10l-12 26
q-22 42 -62 94t-54 73l-129 194h-292l56 165h190l-2 40q0 107 16 152q60 191 222 294.5t368 103.5q154 0 269 -67q148 -86 148 -250q0 -94 -67 -157.5t-148 -63.5t-151 57q-70 56 -71 138q0 82 49 135t49 82t-39 46t-77 17q-90 0 -147.5 -48t-57.5 -144q-2 -26 -2 -54
t12 -66t81 -175l20 -40h437l-50 -165h-329q12 -54 11 -88t-1 -62q-8 -78 -54 -162t-74 -119l34 -20q195 -108 226 -124q114 -54 197 -55q128 0 194 135l17 30l44 -12l-12 -38q-42 -132 -182.5 -227.5z" />
    <glyph glyph-name="yen" unicode="&#xa5;" horiz-adv-x="1791" 
d="M1123 690h195v-102h-199v-149h199v-102h-199v-100q0 -52 6 -78.5t35.5 -51.5t93.5 -31t122 -8v-70h-995v68h8q22 -2 66 -2t88.5 8t64.5 35t25 55.5t5 80.5v94h-217v102h213v149h-213v102h201l-249 489q-44 91 -75 149t-67 83t-145 37v62h921v-62q-141 -6 -156 -30
t-15 -53t51 -147l198 -420l131 255q36 82 53 127q17 44 17 112t-35 101t-80.5 47t-67.5 14v56h642v-58q-81 -15 -201 -107t-238 -306l-183 -327v-22z" />
    <glyph glyph-name="section" unicode="&#xa7;" horiz-adv-x="1059" 
d="M848 579q0 41 -38 95t-130 82l-373 121l-32 -37q-32 -34 -41 -70t-9 -96q0 -96 252 -187q179 -58 257 -84l46 -14l18 26q35 50 42 87q8 36 8 77zM470 -309q-192 0 -340 92l24 313h61v-108q0 -68 71 -122t128 -60t89 -7q149 -1 235 65t86 206q0 120 -415 263l-74 26
q-156 52 -213 132q-34 48 -34 127q-2 14 -2 22q0 119 141 245l22 20l-22 14q-36 26 -62.5 78t-26.5 106q0 167 116 307t306 141q104 0 172 -17l125 -38l20 -8l-25 -282l3 -23h-63l-16 171q-28 38 -114 74q-70 24 -156 24t-159.5 -53t-91.5 -159q-2 -10 -2 -28
q0 -143 293 -231l32 -8l30 -12q4 -2 71 -22t121 -42q185 -80 185 -279q0 -116 -114 -215l-43 -38q129 -77 129 -234t-147.5 -298.5t-339.5 -141.5z" />
    <glyph glyph-name="dieresis" unicode="&#xa8;" horiz-adv-x="924" 
d="M267 1167q-80 0 -126.5 52.5t-46.5 122.5t42.5 119t124.5 49t128 -52t46 -121t-44 -119.5t-124 -50.5zM702 1173q-80 0 -126 52.5t-46 122.5t42 119t124 49t128.5 -52t46.5 -121t-44.5 -119.5t-124.5 -50.5z" />
    <glyph glyph-name="copyright" unicode="&#xa9;" horiz-adv-x="1628" 
d="M852 329q-193 0 -326 108.5t-133 322.5q0 173 103 278q134 137 342 137q55 0 127 -12l152 -36l18 -4l-26 -174h-34v72l-2 12q0 26 -45 50t-93.5 34t-91.5 10t-73 -6q-130 -28 -191 -121t-61 -222v-34q4 -24 4 -34q16 -136 112 -228.5t232 -92.5t239 56l26 14l8 -12
l-20 -50l-26 -14q-34 -16 -107 -35t-134 -19zM826 96q312 0 486 195t174 463t-174 466q-174 196 -485 196q-312 0 -487 -196q-176 -196 -176 -465q0 -268 165 -452q185 -207 497 -207zM827 18q-350 0 -556 231q-185 207 -185 509t185 508q205 230 555 230t544 -220
q195 -220 195 -520.5t-183 -506.5q-205 -231 -555 -231z" />
    <glyph glyph-name="ordfeminine" unicode="&#xaa;" horiz-adv-x="661" 
d="M263 1219q0 -35 3 -62.5t28 -21.5t41 35.5t16 65.5v68q-26 -2 -57 -26t-31 -59zM604 1177q0 -108 -118 -108t-129 66l-4 20l-18 -22q-16 -20 -55 -42t-87 -22t-79.5 27t-31.5 81q0 53 59 87t184 62l26 6v84q0 30 -2 36q-8 28 -56 28q-46 6 -54 -26q8 -10 22 -24t14 -40
t-27 -45t-59 -15q-74 0 -75 66q0 54 58.5 82t156.5 28t146 -35t49 -97v-223q0 -24 4 -32t18 -8q20 0 30 38q2 12 6 40h22v-12zM594 969h-514v56h514v-56z" />
    <glyph glyph-name="guillemotleft" unicode="&#xab;" horiz-adv-x="1121" 
d="M522 800l-305 -220l299 -211v-223l-426 331v213l432 319v-209zM1063 800l-307 -220l299 -211v-223l-423 331v213l431 319v-209z" />
    <glyph glyph-name="logicalnot" unicode="&#xac;" horiz-adv-x="1634" 
d="M1563 0h-123v518h-1358v114h1481v-632z" />
    <glyph glyph-name="registered" unicode="&#xae;" horiz-adv-x="1628" 
d="M594 1085q-14 42 -97 42h-12v36h20l147 -6l215 4l20 2q180 0 224 -116q12 -36 12 -68q0 -104 -108 -175q-27 -17 -108 -42l-10 -4l260 -343l30 -22l31 -10h8v-34l-10 2l-69 4l-64 -6h-16l-323 419l4 18l42 -2q86 0 155.5 50.5t61.5 128.5q0 60 -39 107t-144 47
q-48 0 -120 -16v-650q0 -64 80 -64l28 -2v-34h-18q-8 0 -144 8l-145 -8h-20v36l33 2q44 0 60 19t16 43v634zM826 96q312 0 486 195t174 463t-174 466q-174 196 -485 196q-312 0 -487 -196q-176 -196 -176 -465q0 -268 165 -452q185 -207 497 -207zM827 18q-350 0 -556 231
q-185 207 -185 509t185 508q205 230 555 230t544 -220q195 -220 195 -520.5t-183 -506.5q-205 -231 -555 -231z" />
    <glyph glyph-name="degree" unicode="&#xb0;" horiz-adv-x="549" 
d="M289 1222q42 0 63 23t21 59t-24 64t-66 28t-63 -23t-21 -59t24 -64t66 -28zM297 1109q-94 0 -149.5 63.5t-55.5 143.5t47.5 133t141.5 53t149 -62t55 -143t-47 -134.5t-141 -53.5z" />
    <glyph glyph-name="plusminus" unicode="&#xb1;" horiz-adv-x="1041" 
d="M935 0h-821v122h821v-122zM935 614h-349v-347h-123v347h-349v124h349v347h123v-347h349v-124z" />
    <glyph glyph-name="acute" unicode="&#xb4;" horiz-adv-x="712" 
d="M646 1421q0 -59 -53 -112t-108.5 -79t-169.5 -56.5t-201 -42.5l-28 -4l-4 42l46 20q50 23 86 55t77 86q66 106 98 150q57 76 119 76t100 -38t38 -97z" />
    <glyph glyph-name="mu" unicode="&#xb5;" horiz-adv-x="1366" 
d="M468 -24q-60 0 -135 33q-76 33 -122 99v-84q0 -68 39 -173.5t39 -178.5t-30 -118t-80 -45t-81.5 41t-31.5 106t33 151.5t33 142.5l6 60v1133h193v-782q0 -96 58 -169.5t148.5 -73.5t187.5 75.5t97 165.5v784h187v-884q0 -70 32 -128.5t88 -58.5q12 0 18 2q78 18 101 101
l16 62h42l-16 -73q-16 -86 -98 -141t-157 -55q-12 2 -18 2q-76 12 -138.5 75t-62.5 146l-58 -57q-66 -66 -148 -112t-142 -46z" />
    <glyph glyph-name="paragraph" unicode="&#xb6;" horiz-adv-x="1299" 
d="M879 1430h-135l2 -1594l131 2zM317 1174q0 -112 69 -198.5t182 -108.5l18 -4l2 567l-34 4q-100 0 -168 -74t-69 -186zM1033 -104q0 -85 152 -85l43 -2v-58h-37q-264 8 -414 8t-360 -8h-34v60l50 4q36 2 68.5 6t51.5 24.5t24 37.5t5 49l4 850h-22q-38 0 -116 21
t-165.5 68.5t-143 138t-55.5 170.5q0 336 415 336h31q229 -14 412 -14q184 0 270 8h28v-62h-24q-137 0 -160 -40t-23 -94v-1418z" />
    <glyph glyph-name="periodcentered" unicode="&#xb7;" horiz-adv-x="591" 
d="M526 816.5q0 -90.5 -58 -154.5t-161 -64q-104 0 -162.5 65t-58.5 154t57.5 154.5t161.5 65.5t162.5 -65t58.5 -155.5z" />
    <glyph glyph-name="periodcentered" unicode="&#x2219;" horiz-adv-x="591" 
d="M526 816.5q0 -90.5 -58 -154.5t-161 -64q-104 0 -162.5 65t-58.5 154t57.5 154.5t161.5 65.5t162.5 -65t58.5 -155.5z" />
    <glyph glyph-name="ordmasculine" unicode="&#xba;" horiz-adv-x="669" 
d="M255 1288q0 -197 76 -197q76 -1 76 193t-70 194q-52 6 -67 -50t-15 -140zM598 1289q0 -95 -77.5 -157.5t-184.5 -62.5q-106 0 -186 55q-80 54 -80 152t81.5 163t182.5 65t182.5 -60t81.5 -155zM616 969h-516v56h516v-56z" />
    <glyph glyph-name="guillemotright" unicode="&#xbb;" horiz-adv-x="1123" 
d="M518 477l-426 -331v223l301 211l-307 220v209l432 -319v-213zM1059 477l-425 -331v223l299 211l-305 220v209l431 -319v-213z" />
    <glyph glyph-name="questiondown" unicode="&#xbf;" horiz-adv-x="1247" 
d="M1193 -66q0 -160 -159 -260t-389 -99q-231 0 -399 101q-168 100 -168 272t139 295q191 124 383 250q32 38 46 75q6 30 14 62h64v-32q0 -83 -26 -167t-42 -118l-26 -60q-68 -172 -76 -242.5t-8 -94.5q0 -118 68 -190t142 -73q74 0 116 19t43 77q0 14 -77.5 59.5
t-77.5 149.5t76 155t160 51t141 -71q56 -71 56 -159zM685 708q-103 0 -159.5 63t-56.5 151t57.5 153.5t160.5 65.5t159.5 -63t56.5 -151t-57.5 -153.5t-160.5 -65.5z" />
    <glyph glyph-name="Agrave" unicode="&#xc0;" horiz-adv-x="1973" 
d="M796 1896q0 48 32.5 80t84.5 32t98 -64q40 -62 82 -125q34 -44 63 -71t74 -47l36 -16l-4 -34l-22 2q-286 37 -398 148q-46 47 -46 95zM1003 652l-181 501l-190 -501h371zM1920 -2h-923v68q136 -6 164 42q14 26 14 55t-16 72l-134 355h-415l-60 -189q-18 -60 -18 -120
q0 -106 48 -159q30 -30 76 -40t90 -16v-68h-668v68l34 8q34 8 98 39t149 153q86 122 179 354l355 890h298l506 -1297q18 -46 35 -72.5t56.5 -51.5t79.5 -25t52 2v-68z" />
    <glyph glyph-name="Aacute" unicode="&#xc1;" horiz-adv-x="2005" 
d="M1003 652l-181 501l-190 -501h371zM1920 -2h-923v68q136 -6 164 42q14 26 14 55t-16 72l-134 355h-415l-60 -189q-18 -60 -18 -120q0 -106 48 -159q30 -30 76 -40t90 -16v-68h-668v68l51 12q17 4 81 35t149 153q86 122 179 354l355 890h298l506 -1297q18 -47 35 -73
t56 -51q40 -25 80 -25t52 2v-68zM1368 1927q0 -59 -53 -113t-108 -79q-55 -26 -169 -56t-202 -42l-28 -4l-4 42l46 20q50 22 86 54t77 86q66 106 98 151q57 76 119 76t100 -38t38 -97z" />
    <glyph glyph-name="Acircumflex" unicode="&#xc2;" horiz-adv-x="2005" 
d="M1003 652l-181 501l-190 -501h371zM1920 -2h-923v68q136 -6 164 42q14 26 14 55t-16 72l-134 355h-415l-60 -189q-18 -60 -18 -120q0 -106 48 -159q30 -30 76 -40t90 -16v-68h-668v68l51 12q17 4 81 35t149 153q86 122 179 354l355 890h298l506 -1297q18 -47 35 -73
t56 -51q40 -25 80 -25t52 2v-68zM1462 1653l-411 166l-395 -168l395 407z" />
    <glyph glyph-name="Atilde" unicode="&#xc3;" horiz-adv-x="1975" 
d="M1133 1667q-50 0 -151 50q-102 50 -166 50t-118 -44l-30 -30l-40 16l20 44q62 130 102 177q70 82 179 82q66 0 132 -28q195 -84 208 -87t35 -3q50 0 90 42l24 26l42 -18l-14 -36q-40 -98 -92 -153q-82 -86 -203 -86q-14 -2 -18 -2zM1003 652l-181 501l-190 -501h371z
M1920 -2h-923v68q136 -6 164 42q14 26 14 55t-16 72l-134 355h-415l-60 -189q-18 -60 -18 -120q0 -106 48 -159q30 -30 76 -40t90 -16v-68h-668v68l34 8q34 8 98 39t149 153q86 122 179 354l355 890h298l506 -1297q18 -46 35 -72.5t56.5 -51.5t79.5 -25t52 2v-68z" />
    <glyph glyph-name="Adieresis" unicode="&#xc4;" horiz-adv-x="1989" 
d="M856 1645q-77 0 -119.5 48t-42.5 115t40 112.5t117 45.5t119.5 -48.5t42.5 -115.5t-40 -112t-117 -45zM1263 1651q-77 0 -119.5 48t-42.5 115t39.5 112.5t117.5 45.5t120 -48.5t42 -115.5t-40 -112t-117 -45zM1003 652l-181 501l-190 -501h371zM1920 -2h-923v68
q136 -6 164 42q14 26 14 55t-16 72l-134 355h-415l-60 -189q-18 -60 -18 -120q0 -106 48 -159q30 -30 76 -40t90 -16v-68h-668v68l34 8q34 8 98 39t149 153q86 122 179 354l355 890h298l506 -1297q18 -46 35 -72.5t56.5 -51.5t79.5 -25t52 2v-68z" />
    <glyph glyph-name="Aring" unicode="&#xc5;" horiz-adv-x="1987" 
d="M1045 1745q72 0 72 72q0 32 -20 55.5t-57 23.5t-55 -20.5t-18 -50.5t21 -55t57 -25zM1051 1647q-80 0 -128 54t-48 123t41 116.5t123 47.5t128.5 -53t46.5 -123t-41.5 -117.5t-121.5 -47.5zM1003 652l-181 501l-190 -501h371zM1920 -2h-923v68q136 -6 164 42q14 26 14 55
t-16 72l-134 355h-415l-60 -189q-18 -60 -18 -120q0 -106 48 -159q30 -30 76 -40t90 -16v-68h-668v68l34 8q34 8 98 39t149 153q86 122 179 354l355 890h298l506 -1297q18 -46 35 -72.5t56.5 -51.5t79.5 -25t52 2v-68z" />
    <glyph glyph-name="AE" unicode="&#xc6;" horiz-adv-x="2565" 
d="M1252 652v501l-373 -501h373zM2507 -2h-1506l26 64q46 0 97 6q52 6 80 36q48 51 48 131v355h-420l-130 -189q-82 -123 -82 -224q0 -32 12 -55q20 -32 60 -45t80 -21l-22 -58h-660l20 62l133 46q203 86 317 236.5t210 277.5l464 616q24 44 24 94t-29 75t-87 33t-113 12v60
h1414l12 -569h-48q-36 96 -64 154q-86 173 -203 279q-86 78 -258 78q-82 0 -123 -34q-16 -16 -16 -75v-505q213 18 268 221q21 78 35 149h50v-809h-56q-8 56 -16 92q-28 109 -86 185t-103 90q-56 6 -96 12v-507q0 -72 11.5 -139.5t155.5 -67.5q176 0 313 130
q136 130 234 466h54v-662z" />
    <glyph glyph-name="Ccedilla" unicode="&#xc7;" horiz-adv-x="1534" 
d="M883 -32h-47q-29 0 -96 10l-4 -12q-10 -22 17 -45t49 -23q90 -6 183 -14q177 -26 198 -171q2 -8 2 -24q0 -88 -85 -144t-165 -56h-48q-118 0 -199 30l-22 10l10 56l28 -12q48 -16 114 -16t74.5 28t8.5 42q0 54 -117.5 125t-117.5 138q0 43 16 80l6 24q-285 70 -441 255
q-157 185 -157 501t242 555.5t553 239.5q96 0 195 -31.5t202 -63.5q26 0 49 28t43 56l46 3l12 -640h-46q-30 74 -60 150q-78 175 -159 281q-116 152 -226 152q-248 0 -305 -433q-18 -138 -18 -327q0 -377 95 -521q95 -145 273 -145t282 135q74 94 104 252q8 68 16 137h86
q0 -291 -156 -451q-156 -159 -435 -159z" />
    <glyph glyph-name="Egrave" unicode="&#xc8;" horiz-adv-x="1648" 
d="M1567 0h-1485v66q135 0 176 23t51 62t10 75v45l2 989q0 72 -8 102t-30 49t-102 28t-93 5v68h1414l12 -569h-48q-36 96 -64 154q-86 173 -202 279q-86 78 -259 78q-82 0 -123 -34q-16 -16 -16 -75v-505q214 19 268 221q21 78 35 149h52v-809h-56q-17 162 -110 285
q-52 68 -96 82q-54 6 -95 12v-507q0 -83 6 -123q13 -84 174 -84q162 0 306 137q123 117 228 459h53v-662zM586 1948q0 60 39 99t101 39t116 -76q48 -76 99 -151q44 -56 78 -87t86 -53l44 -20l-4 -42l-28 4q-96 12 -199 40q-104 28 -164 56t-114 80q-54 51 -54 111z" />
    <glyph glyph-name="Eacute" unicode="&#xc9;" horiz-adv-x="1626" 
d="M1567 0h-1485v66q135 0 176 23t51 62t10 75v45l2 989q0 72 -8 102t-30 49t-102 28t-93 5v68h1414l12 -569h-48q-36 96 -64 154q-86 173 -202 279q-86 78 -259 78q-82 0 -123 -34q-16 -16 -16 -75v-505q214 19 268 221q21 78 35 149h52v-809h-56q-17 162 -110 285
q-52 68 -96 82q-54 6 -95 12v-507q0 -83 6 -123q13 -84 174 -84q162 0 306 137q123 117 228 459h53v-662zM1159 1947q0 -59 -53 -113t-108 -79q-56 -26 -170 -56t-200 -42l-28 -4l-4 42l46 20q50 22 85 54t77 86q66 106 99 151q56 76 118 76t100 -38t38 -97z" />
    <glyph glyph-name="Ecircumflex" unicode="&#xca;" horiz-adv-x="1648" 
d="M1567 0h-1485v66q135 0 176 23t51 62t10 75v45l2 989q0 72 -8 102t-30 49t-102 28t-93 5v68h1414l12 -569h-48q-36 96 -64 154q-86 173 -202 279q-86 78 -259 78q-82 0 -123 -34q-16 -16 -16 -75v-505q214 19 268 221q21 78 35 149h52v-809h-56q-17 162 -110 285
q-52 68 -96 82q-54 6 -95 12v-507q0 -83 6 -123q13 -84 174 -84q162 0 306 137q123 117 228 459h53v-662zM1366 1653l-411 166l-395 -168l395 407z" />
    <glyph glyph-name="Edieresis" unicode="&#xcb;" horiz-adv-x="1636" 
d="M1567 0h-1485v66q135 0 176 23t51 62t10 75v45l2 989q0 72 -8 102t-30 49t-102 28t-93 5v68h1414l12 -569h-48q-36 96 -64 154q-86 173 -202 279q-86 78 -259 78q-82 0 -123 -34q-16 -16 -16 -75v-505q214 19 268 221q21 78 35 149h52v-809h-56q-17 162 -110 285
q-52 68 -96 82q-54 6 -95 12v-507q0 -83 6 -123q13 -84 174 -84q162 0 306 137q123 117 228 459h53v-662zM676 1649q-80 0 -126 52t-47 122q1 69 43 119t124 50t128 -52t46 -122t-44 -119q-44 -50 -124 -50zM1111 1655q-80 0 -126 52t-46 122q0 69 42 119t124 50
q83 0 129 -52t46 -122t-44 -119q-44 -50 -125 -50z" />
    <glyph glyph-name="Igrave" unicode="&#xcc;" horiz-adv-x="1167" 
d="M1071 -2h-983v68q197 6 225 48q22 31 21 71t-1 56v1043q0 14 1 40t-17 61q-25 47 -233 59v66h975v-66h-28q-153 0 -181 -41t-28 -149v-1017q0 -51 3 -71t21 -51q25 -43 225 -49v-68zM321 1948q0 60 39 99t101 39t117 -76q48 -76 98 -151q44 -56 78 -87t86 -53l45 -20
l-4 -42l-29 4q-96 12 -199 40t-163 56t-115 80q-54 51 -54 111z" />
    <glyph glyph-name="Iacute" unicode="&#xcd;" horiz-adv-x="1155" 
d="M1071 -2h-983v68q197 6 225 48q22 31 21 71t-1 56v1043q0 14 1 40t-17 61q-25 47 -233 59v66h975v-66h-28q-153 0 -181 -41t-28 -149v-1017q0 -51 3 -71t21 -51q25 -43 225 -49v-68zM748 2086q62 0 100 -38t39 -97t-53 -113t-109 -79q-55 -26 -169 -56t-201 -42l-28 -4
l-4 42l46 20q50 22 85 54t78 86q66 106 98 151q56 76 118 76z" />
    <glyph glyph-name="Icircumflex" unicode="&#xce;" horiz-adv-x="1167" 
d="M1071 -2h-983v68q197 6 225 48q22 31 21 71t-1 56v1043q0 14 1 40t-17 61q-25 47 -233 59v66h975v-66h-28q-153 0 -181 -41t-28 -149v-1017q0 -51 3 -71t21 -51q25 -43 225 -49v-68zM1005 1653l-411 166l-395 -168l395 407z" />
    <glyph glyph-name="Idieresis" unicode="&#xcf;" horiz-adv-x="1167" 
d="M1071 -2h-983v68q197 6 225 48q22 31 21 71t-1 56v1043q0 14 1 40t-17 61q-25 47 -233 59v66h975v-66h-28q-153 0 -181 -41t-28 -149v-1017q0 -51 3 -71t21 -51q25 -43 225 -49v-68zM387 1649q-80 0 -126 52t-46 122q0 69 42 119t124 50t128 -52q47 -52 47 -122t-44 -119
q-44 -50 -125 -50zM822 1655q-80 0 -126 52t-46 122q0 69 42 119t124 50t128 -52t47 -122q-1 -70 -45 -119q-44 -50 -124 -50z" />
    <glyph glyph-name="Ntilde" unicode="&#xd1;" horiz-adv-x="1839" 
d="M1793 1444q-34 0 -75 -9t-93 -57t-92 -176t-41 -388l2 -816h-286l-763 1155v-415q0 -479 113 -592q71 -71 192 -80v-66h-674v66q46 10 92 22q48 18 90 56t75 174q32 136 32 414v530q-26 38 -61 83q-77 99 -204 99v66h688l632 -948l2 315q0 201 -35 332t-98 185t-136 54
q-20 0 -32 -4v66h672v-66zM1071 1643q-60 0 -171 55q-112 55 -182 55t-126 -50l-34 -32l-44 18l22 48q68 144 112 195q78 90 198 90q74 0 145 -30q221 -94 233 -97t36 -3q60 0 100 46l26 30l46 -20l-16 -40q-42 -102 -113 -176t-202 -87q-10 -2 -30 -2z" />
    <glyph glyph-name="Ograve" unicode="&#xd2;" horiz-adv-x="1841" 
d="M921 1492q-307 0 -307 -734q0 -215 12 -317q43 -389 311 -389q130 0 196 121q55 98 69 245t14 394t-51 424q-68 239 -216 254q-8 2 -16 2h-12zM1739 752q0 -326 -243 -552q-244 -226 -568 -226t-581 233t-257 561t255 550q255 223 593 223t570 -232t231 -557zM646 1936
q0 60 39 99t101 39t117 -76q48 -76 98 -151q44 -56 78 -87t86 -53l45 -20l-4 -42l-29 4q-96 12 -199 40q-104 28 -164 56t-114 80q-54 51 -54 111z" />
    <glyph glyph-name="Oacute" unicode="&#xd3;" horiz-adv-x="1829" 
d="M921 1492q-307 0 -307 -734q0 -215 12 -317q43 -389 311 -389q130 0 196 121q55 98 69 245t14 394t-51 424q-68 239 -216 254q-8 2 -16 2h-12zM1739 752q0 -326 -243 -552q-244 -226 -568 -226t-581 233t-257 561t255 550q255 223 593 223t570 -232t231 -557zM1151 1951
q0 -59 -53 -113t-108 -79q-56 -26 -170 -56t-200 -42l-28 -4l-4 42l46 20q50 22 85 54t77 86q66 106 99 151q56 76 118 76t100 -38t38 -97z" />
    <glyph glyph-name="Ocircumflex" unicode="&#xd4;" horiz-adv-x="1841" 
d="M921 1492q-307 0 -307 -734q0 -215 12 -317q43 -389 311 -389q130 0 196 121q55 98 69 245t14 394t-51 424q-68 239 -216 254q-8 2 -16 2h-12zM1739 752q0 -326 -243 -552q-244 -226 -568 -226t-581 233t-257 561t255 550q255 223 593 223t570 -232t231 -557zM1270 1653
l-411 166l-396 -168l396 407z" />
    <glyph glyph-name="Otilde" unicode="&#xd5;" horiz-adv-x="1795" 
d="M983 1663q-49 0 -151 50t-166 50t-118 -44l-30 -30l-41 16l20 44q62 130 103 177q70 82 178 82q66 0 133 -28q195 -84 207 -87t35 -3q50 0 91 42l24 26l42 -18l-14 -36q-40 -98 -92 -153q-82 -86 -203 -86q-14 -2 -18 -2zM911 1492q-307 0 -307 -734q0 -215 12 -317
q43 -389 311 -389q130 0 196 121q55 98 69 245t14 394t-51 424q-68 239 -216 254q-8 2 -16 2h-12zM1729 752q0 -325 -242.5 -551.5t-567.5 -226.5t-582 233t-257 561t255 550q255 223 593 223t569.5 -232t231.5 -557z" />
    <glyph glyph-name="Odieresis" unicode="&#xd6;" horiz-adv-x="1815" 
d="M720 1647q-76 0 -120 50t-44 115t41 112.5t118 47.5t121.5 -49.5t44.5 -114.5t-42.5 -113t-118.5 -48zM1133.5 1653q-76.5 0 -120.5 50t-44 115t41 112.5t118 47.5t121.5 -50t44.5 -116t-42 -112.5t-118.5 -46.5zM921 1492q-307 0 -307 -734q0 -215 12 -317
q43 -389 311 -389q130 0 196 121q55 98 69 245t14 394t-51 424q-68 239 -216 254q-8 2 -16 2h-12zM1739 752q0 -325 -242.5 -551.5t-567.5 -226.5t-582 233t-257 561t255 550q255 223 593 223t569.5 -232t231.5 -557z" />
    <glyph glyph-name="Oslash" unicode="&#xd8;" horiz-adv-x="1795" 
d="M1179 374q14 148 14 343q0 196 -22 338l-411 -1007q62 -40 155 -40q130 0 196 120q54 98 68 246zM899 1448q-307 0 -307 -734q0 -160 8 -271.5t38 -207.5l449 1091q-60 108 -160 120q-8 2 -16 2h-12zM1717 704q0 -321 -242.5 -547.5t-565.5 -226.5q-100 0 -189 20
l-42 -102h-201l69 162q-213 100 -345 291t-133 423q0 327 255 550t596 222q102 0 224 -36l32 79h195l-60 -149q189 -102 298 -282.5t109 -403.5z" />
    <glyph glyph-name="Ugrave" unicode="&#xd9;" horiz-adv-x="1877" 
d="M1121 56q132 0 213 70q124 108 124 367v404q0 162 -35 288q-35 127 -74 179q-61 82 -165 82h-39q-2 -2 -2 64h662v-66q-42 -4 -84 -6q-38 -8 -93 -66t-77 -164t-23 -313l2 -406q0 -279 -130 -399t-401 -120q-339 0 -509 125t-169 322l-2 831q2 44 2 73t-7 53t-29 43
q-21 19 -85 22t-126 5v66h981v-66h-30q-167 0 -197 -43q-18 -27 -21 -49t-3 -76l4 -885q0 -335 313 -335zM778 1936q0 60 39 99t101 39t117 -76q48 -76 98 -151q45 -56 79 -87t86 -53l44 -20l-4 -42l-28 4q-96 12 -200 40t-163 56q-61 28 -115 80q-54 51 -54 111z" />
    <glyph glyph-name="Uacute" unicode="&#xda;" horiz-adv-x="1877" 
d="M1121 56q132 0 213 70q124 108 124 367v404q0 162 -35 288q-35 127 -74 179q-61 82 -165 82h-39q-2 -2 -2 64h662v-66q-42 -4 -84 -6q-38 -8 -93 -66t-77 -164t-23 -313l2 -406q0 -279 -130 -399t-401 -120q-339 0 -509 125t-169 322l-2 831q2 44 2 73t-7 53t-29 43
q-21 19 -85 22t-126 5v66h981v-66h-30q-167 0 -197 -43q-18 -27 -21 -49t-3 -76l4 -885q0 -335 313 -335zM1380 1939q0 -59 -53 -113t-108 -79q-55 -26 -169 -56t-202 -42l-28 -4l-4 42l47 20q50 22 85 54t77 86q66 106 98 151q57 76 119 76t100 -38t38 -97z" />
    <glyph glyph-name="Ucircumflex" unicode="&#xdb;" horiz-adv-x="1877" 
d="M1121 56q132 0 213 70q124 108 124 367v404q0 162 -35 288q-35 127 -74 179q-61 82 -165 82h-39q-2 -2 -2 64h662v-66q-42 -4 -84 -6q-38 -8 -93 -66t-77 -164t-23 -313l2 -406q0 -279 -130 -399t-401 -120q-339 0 -509 125t-169 322l-2 831q2 44 2 73t-7 53t-29 43
q-21 19 -85 22t-126 5v66h981v-66h-30q-167 0 -197 -43q-18 -27 -21 -49t-3 -76l4 -885q0 -335 313 -335zM1474 1653l-411 166l-395 -168l395 407z" />
    <glyph glyph-name="Udieresis" unicode="&#xdc;" horiz-adv-x="1873" 
d="M868.5 1651q-76.5 0 -120.5 50t-44 115t41 112.5t119 47.5t121.5 -49t43.5 -115t-42 -113.5t-118.5 -47.5zM1282 1657q-76 0 -120.5 50t-44.5 115t41.5 112.5t118.5 47.5t121 -50t44 -116t-42 -112.5t-118 -46.5zM1121 56q132 0 213 70q124 108 124 367v404
q0 162 -35 288.5t-74 178.5q-63 82 -165 82h-39q-2 -2 -2 64h662v-66q-42 -4 -84 -6q-38 -8 -93 -66t-77.5 -164.5t-22.5 -312.5l2 -406q0 -279 -130 -399t-401 -120q-339 0 -509 125t-169 322l-2 831q2 44 2 73t-7 53t-28.5 43t-85.5 22t-126 5v66h981v-66h-30
q-168 0 -191.5 -35t-26.5 -57t-3 -76l4 -885q0 -335 313 -335z" />
    <glyph glyph-name="germandbls" unicode="&#xdf;" horiz-adv-x="1801" 
d="M1751 425q0 -195 -179 -325t-362 -130t-307 54q-154 68 -155 197q2 16 2 24q8 66 64.5 107t132.5 41t121 -47t45 -105q0 -30 -38 -68.5t-30 -65.5q18 -61 116 -81q10 -2 30 -2q72 0 127.5 59t55.5 138q0 116 -138 210q-30 20 -145 85l-92 52q-115 64 -177 132t-62 170
t61.5 175.5t161.5 105.5l46 14q-40 9 -79 49t-39 98t49 100t49 46q6 30 -29 35t-55 5h-28q-95 0 -139 -90t-44 -217v-1191h-626v50q14 -6 69.5 5t83.5 27t28 80v843l-181 2v52h185l2 52q4 42 67 241.5t580 201.5q188 0 292 -62t104 -151t-133 -184q-64 -46 -64 -110t60 -112
q36 -30 161 -89l58 -26q189 -92 245 -142q106 -95 106 -253z" />
    <glyph glyph-name="agrave" unicode="&#xe0;" horiz-adv-x="1550" 
d="M600 1621q48 0 92 -60q38 -60 78 -121q68 -85 133 -110l34 -16l-4 -34l-22 2q-68 10 -159.5 35t-133.5 45t-85 61t-43 88t31 78.5t79 31.5zM564 291q0 -131 66 -131q71 0 120.5 91.5t49.5 181.5l2 187q-72 -8 -140 -62q-96 -78 -96 -203q-2 -36 -2 -64zM1326 96
q78 0 96 211h64v-30q0 -151 -91 -223t-233 -72q-313 0 -346 178l-10 55l-46 -61q-46 -58 -150 -114t-207 -56q-158 0 -241.5 74t-83.5 191q0 173 183 275q142 80 471 152l70 16v229q0 92 -27 133t-118 41t-119.5 -15t-38.5 -55q34 -32 64.5 -72t30.5 -105t-69.5 -113.5
t-155.5 -48.5t-145.5 48t-59.5 133q0 148 169 228q142 68 339 68q596 0 596 -355v-603q0 -66 11 -87.5t47 -21.5z" />
    <glyph glyph-name="aacute" unicode="&#xe1;" horiz-adv-x="1542" 
d="M937 1510q0 -48 -43 -91t-87.5 -63t-138.5 -46t-165 -34l-22 -4l-4 34l39 16q44 18 69 41t63 73q54 86 90 136t86 49q50 0 81.5 -31.5t31.5 -79.5zM564 291q0 -131 66 -131q71 0 120.5 91.5t49.5 181.5l2 187q-72 -8 -140 -62q-96 -78 -96 -203q-2 -36 -2 -64zM1326 96
q78 0 96 211h64v-30q0 -151 -91 -223t-233 -72q-313 0 -346 178l-10 55l-46 -61q-46 -58 -150 -114t-207 -56q-158 0 -241.5 74t-83.5 191q0 173 183 275q142 80 471 152l70 16v229q0 92 -27 133t-118 41t-119.5 -15t-38.5 -55q34 -32 64.5 -72t30.5 -105t-69.5 -113.5
t-155.5 -48.5t-145.5 48t-59.5 133q0 148 169 228q142 68 339 68q596 0 596 -355v-603q0 -66 11 -87.5t47 -21.5z" />
    <glyph glyph-name="acircumflex" unicode="&#xe2;" horiz-adv-x="1556" 
d="M564 268q0 -106 66 -108q71 0 121 92q49 92 49 181l2 187q-72 -8 -140 -62q-96 -78 -96 -203q-2 -36 -2 -87zM1326 96q78 0 96 211h64v-30q0 -151 -91 -223t-233 -72q-313 0 -346 178l-10 55l-46 -61q-46 -58 -150 -114t-207 -56q-158 0 -242 74q-83 74 -83 191
q0 173 183 275q142 80 471 152l70 16v229q0 92 -27 133t-118 41t-119 -15t-39 -55q35 -32 65 -72t30 -105q0 -66 -69 -114t-155 -48t-146 48q-59 48 -60 133q0 148 169 228q142 68 339 68q596 0 596 -355v-603q0 -65 11 -87t47 -22zM1131 1258l-411 166l-395 -168l395 407z
" />
    <glyph glyph-name="atilde" unicode="&#xe3;" horiz-adv-x="1558" 
d="M776 1270q-50 0 -151 50t-165 50t-119 -44l-30 -30l-40 16l20 44q62 130 102 176q70 82 179 83q66 0 132 -28q195 -83 208 -87t35 -4q50 0 90 43l24 26l42 -18l-14 -37q-97 -238 -295 -238q-14 -2 -18 -2zM564 291q0 -131 66 -131q71 0 120.5 91.5t49.5 181.5l2 187
q-72 -8 -140 -62q-96 -78 -96 -203q-2 -36 -2 -64zM1326 96q78 0 96 211h64v-30q0 -151 -91 -223t-233 -72q-313 0 -346 178l-10 55l-46 -61q-46 -58 -150 -114t-207 -56q-158 0 -241.5 74t-83.5 191q0 173 183 275q142 80 471 152l70 16v229q0 92 -27 133t-118 41
t-119.5 -15t-38.5 -55q34 -32 64.5 -72t30.5 -105t-69.5 -113.5t-155.5 -48.5t-145.5 48t-59.5 133q0 148 169 228q142 68 339 68q596 0 596 -355v-603q0 -66 11 -87.5t47 -21.5z" />
    <glyph glyph-name="adieresis" unicode="&#xe4;" horiz-adv-x="1544" 
d="M602 1274q-66 0 -104.5 42t-38.5 101t36.5 99.5t102.5 40.5t104 -42.5t38 -101.5t-36 -99t-102 -40zM961 1278q-66 0 -104.5 44t-38.5 101t34.5 97.5t102.5 40.5t106 -42.5t38 -101.5t-36 -99t-102 -40zM564 291q0 -131 66 -131q71 0 120.5 91.5t49.5 181.5l2 187
q-72 -8 -140 -62q-96 -78 -96 -203q-2 -36 -2 -64zM1326 96q78 0 96 211h64v-30q0 -151 -91 -223t-233 -72q-313 0 -346 178l-10 55l-46 -61q-46 -58 -150 -114t-207 -56q-158 0 -241.5 74t-83.5 191q0 173 183 275q142 80 471 152l70 16v229q0 92 -27 133t-118 41
t-119.5 -15t-38.5 -55q34 -32 64.5 -72t30.5 -105t-69.5 -113.5t-155.5 -48.5t-145.5 48t-59.5 133q0 148 169 228q142 68 339 68q596 0 596 -355v-603q0 -66 11 -87.5t47 -21.5z" />
    <glyph glyph-name="aring" unicode="&#xe5;" horiz-adv-x="1542" 
d="M700 1350q56 0 56 56q0 22 -17 41t-45 19q-54 0 -54 -54q0 -26 15 -44t45 -18zM703 1274q-63 0 -99 41t-36 96t32 91.5t95 36.5t99 -41.5t36 -96.5t-32 -91t-95 -36zM564 291q0 -131 66 -131q71 0 120.5 91.5t49.5 181.5l2 187q-72 -8 -140 -62q-96 -78 -96 -203
q-2 -36 -2 -64zM1326 96q78 0 96 211h64v-30q0 -151 -91 -223t-233 -72q-313 0 -346 178l-10 55l-46 -61q-46 -58 -150 -114t-207 -56q-158 0 -241.5 74t-83.5 191q0 173 183 275q142 80 471 152l70 16v229q0 92 -27 133t-118 41t-119.5 -15t-38.5 -55q34 -32 64.5 -72
t30.5 -105t-69.5 -113.5t-155.5 -48.5t-145.5 48t-59.5 133q0 148 169 228q142 68 339 68q596 0 596 -355v-603q0 -66 11 -87.5t47 -21.5z" />
    <glyph glyph-name="ae" unicode="&#xe6;" horiz-adv-x="2186" 
d="M652 160q70 0 119 90.5t49 182.5l2 187q-70 -8 -138 -62q-96 -78 -96 -203l-2 -68q0 -56 13 -91.5t53 -35.5zM1595 852q0 92 -35 172t-104 81q-78 0 -114 -128q-28 -97 -28 -201t8 -108l98 -2h24q120 0 131 38q20 56 20 148zM1476 1169q246 0 422 -155t176 -340v-72h-752
v-72l-2 -103q0 -173 40 -252q64 -128 239 -129q136 0 243.5 85.5t135.5 223.5l10 44h72l-12 -68q-28 -166 -179.5 -260.5t-405.5 -94.5t-376 44q-80 30 -202 140l-57 55l-48 -61q-44 -58 -148 -114t-207 -56q-158 0 -242.5 74t-84.5 191q0 173 183 275q142 80 471 152l70 16
v229q0 96 -20 126q-32 48 -118 48t-100 -4q-50 -14 -64 -66q34 -32 65 -73t31 -105t-69.5 -112.5t-156.5 -48.5t-146 48t-59 133q0 148 168 228q143 68 313 68t225.5 -10t197.5 -84q140 100 387 100z" />
    <glyph glyph-name="ccedilla" unicode="&#xe7;" horiz-adv-x="1351" 
d="M824 1087q-202 0 -202 -487q0 -255 32 -359q58 -185 233 -185q138 0 232 114t95 217l2 54h70v-40q0 -199 -152 -316t-372 -117h-30l-58 4l-4 -16q-6 -24 20 -45t46 -23q229 -22 241 -26q122 -34 140 -157q2 -8 2 -26q0 -86 -85 -142t-165 -57h-49q-114 0 -198 31l-22 8
l10 56l30 -10q45 -16 110 -16q66 0 80 38q4 12 4 32q0 54 -116 124t-116 139q0 26 7 52.5t11 47.5q-231 28 -378.5 201.5t-147.5 416.5t210 402t486 159q207 0 346 -84t140 -249q0 -90 -76.5 -152t-166.5 -62t-158.5 60t-68.5 138q0 110 81.5 166.5t81.5 62.5q-2 30 -23 39
t-61 8t-61 -1z" />
    <glyph glyph-name="egrave" unicode="&#xe8;" horiz-adv-x="1418" 
d="M625 1619q51 0 95 -62q38 -62 78 -123q40 -50 66 -73t69 -41l36 -16l-4 -34l-22 4q-281 36 -388 143q-43 43 -43 91t31 79.5t82 31.5zM885 852q1 92 -35 172t-104 81q-78 0 -114 -128q-28 -97 -28 -201t8 -108l96 2h50q50 0 74.5 6t32.5 28q20 56 20 148zM780 -24
q-307 0 -503.5 176.5t-196.5 438.5t204 420t466 158t436 -156q175 -156 176 -339l2 -72h-752v-72l-2 -105q0 -168 42 -252q64 -126 235 -127q138 0 245.5 84.5t135.5 224.5l10 44h72l-12 -68q-30 -164 -181.5 -259.5t-376.5 -95.5z" />
    <glyph glyph-name="eacute" unicode="&#xe9;" horiz-adv-x="1440" 
d="M1073 1517q0 -49 -44 -93t-89 -65t-144.5 -48t-165.5 -35l-22 -2l-4 34l38 16q46 20 71 43t65 75q54 88 81 125q46 64 98 64t84 -32.5t32 -81.5zM885 852q1 92 -35 172t-104 81q-78 0 -114 -128q-28 -97 -28 -201t8 -108l96 2h50q50 0 74.5 6t32.5 28q20 56 20 148z
M780 -24q-307 0 -503.5 176.5t-196.5 438.5t204 420t466 158t436 -156q175 -156 176 -339l2 -72h-752v-72l-2 -105q0 -168 42 -252q64 -126 235 -127q138 0 245.5 84.5t135.5 224.5l10 44h72l-12 -68q-30 -164 -181.5 -259.5t-376.5 -95.5z" />
    <glyph glyph-name="ecircumflex" unicode="&#xea;" horiz-adv-x="1426" 
d="M885 852q1 92 -35 172t-104 81q-78 0 -114 -128q-28 -97 -28 -201t8 -108l96 2h50q50 0 74 6t33 28q20 56 20 148zM780 -24q-308 0 -504 176t-196 439q0 262 204 420t466 158t436 -156q175 -156 176 -339l2 -72h-752v-72l-2 -105q0 -168 42 -252q64 -126 235 -127
q138 0 245 84t136 225l10 44h72l-12 -68q-30 -163 -182 -259t-376 -96zM1187 1272l-411 166l-395 -168l395 407z" />
    <glyph glyph-name="edieresis" unicode="&#xeb;" horiz-adv-x="1424" 
d="M600 1272q-66 0 -103.5 43t-37.5 99t36.5 96.5t101.5 40.5t103 -42.5t38 -99.5t-36 -97t-102 -40zM955 1276q-66 0 -103.5 43t-37.5 99t35.5 97.5t101.5 41.5t104 -42.5t38 -100.5t-36 -98t-102 -40zM885 852q1 92 -35 172t-104 81q-78 0 -114 -128q-28 -97 -28 -201
t8 -108l96 2h50q50 0 74.5 6t32.5 28q20 56 20 148zM780 -24q-307 0 -503.5 176.5t-196.5 438.5t204 420t466 158t436 -156q175 -156 176 -339l2 -72h-752v-72l-2 -105q0 -168 42 -252q64 -126 235 -127q138 0 245.5 84.5t135.5 224.5l10 44h72l-12 -68
q-30 -164 -181.5 -259.5t-376.5 -95.5z" />
    <glyph glyph-name="igrave" unicode="&#xec;" horiz-adv-x="982" 
d="M229 1510q0 48 31 79.5t82 31.5t95 -62q38 -62 79 -123q40 -50 66 -73t68 -41l36 -16l-4 -34l-22 4q-281 36 -388 143q-43 43 -43 91zM929 -2h-845v64q135 0 173 54q24 31 24 149v676q0 48 -2 58t-20 28q-35 46 -165 52v54l660 28v-900q0 -58 5 -90.5t24 -63.5t84 -41
q20 -2 62 -4v-64z" />
    <glyph glyph-name="iacute" unicode="&#xed;" horiz-adv-x="972" 
d="M682 1505q0 -47 -42 -89t-85.5 -62t-134.5 -45t-161 -35l-22 -2l-2 34l36 16q42 18 63 36t65 74q52 84 78 119q45 62 95 62t80 -30.5t30 -77.5zM915 -2h-847v64q134 0 175 54q24 31 24 149v646q0 72 -2 84t-29.5 44t-155.5 40v54l660 28v-900q0 -58 5 -90.5t24 -63.5
t61 -37t85 -8v-64z" />
    <glyph glyph-name="icircumflex" unicode="&#xee;" horiz-adv-x="968" 
d="M848 1274l-411 166l-395 -168l395 407zM921 -2h-845v64q134 0 175 54q22 33 22 149v680q0 40 -3 52t-21 34q-32 40 -161 48v54l660 28l-2 -900q0 -58 5 -90.5t24 -63.5t84 -41q20 -2 62 -4v-64z" />
    <glyph glyph-name="idieresis" unicode="&#xef;" horiz-adv-x="978" 
d="M267 1274q-66 0 -103.5 43t-37.5 99t36.5 96.5t101.5 40.5t103 -42.5t38 -99.5t-36 -97t-102 -40zM622 1278q-66 0 -103.5 43t-37.5 99t35.5 97.5t101.5 41.5t104 -42.5t38 -100.5t-36 -98t-102 -40zM929 -2h-847v64q134 0 175 54q24 31 24 149v646q0 72 -2 84t-29.5 44
t-155.5 40v54l660 28v-900q0 -58 5 -90.5t24 -63.5t84 -41q20 -2 62 -4v-64z" />
    <glyph glyph-name="ntilde" unicode="&#xf1;" horiz-adv-x="1833" 
d="M1023 1272q-49 0 -151 50t-166 50t-118 -44l-30 -30l-40 16l20 44q62 130 102 176q70 82 178 83q66 0 133 -28q195 -83 207 -87t35 -4q50 0 91 43l24 26l42 -18l-14 -37q-97 -238 -295 -238q-14 -2 -18 -2zM1251 1151q169 0 252 -55t113.5 -125t30.5 -191v-535
q0 -117 20 -151q21 -32 96 -32q32 0 52 4v-66l-804 -2v68q20 -6 35 -6q41 0 66 28.5t25 158.5v531q0 161 -19 193t-30 36t-37 4q-112 0 -181.5 -160.5t-69.5 -343.5v-264q0 -40 1 -80.5t18 -69.5t104 -29h30q4 0 12 2v-66h-835v66h12q16 -2 46 -2q80 0 106 33q25 33 25 150
v597q0 164 -30 192.5t-72 34.5t-81 8v60l351 -4q121 0 295 24l4 -333l48 95q32 68 140 149t277 81z" />
    <glyph glyph-name="ograve" unicode="&#xf2;" horiz-adv-x="1568" 
d="M582 1520q0 48 32 80.5t84 32.5t98 -64q40 -62 83 -125q34 -44 63 -71t73 -47l36 -16l-4 -34l-22 2q-286 37 -397 148q-46 46 -46 94zM598 572q0 -534 212 -534q86 0 137 114q62 143 62 425q0 516 -191 516q-140 12 -190 -170q-30 -110 -30 -351zM90 546q0 264 221 442
t497 178t500 -166q222 -165 222 -422q0 -258 -214 -430t-500 -172q-285 0 -495 146q-231 160 -231 424z" />
    <glyph glyph-name="oacute" unicode="&#xf3;" horiz-adv-x="1584" 
d="M1005 1525q0 -49 -44 -93t-89 -65t-144.5 -48t-165.5 -35l-22 -2l-4 34l38 16q46 20 71 43t65 75q54 88 80 125q46 64 98 64t84.5 -32.5t32.5 -81.5zM578 572q0 -534 212 -534q86 0 137 114q62 143 62 425q0 516 -191 516q-140 12 -190 -170q-30 -110 -30 -351zM70 546
q0 264 221 442t497 178t500 -166q222 -165 222 -422q0 -258 -214 -430t-500 -172q-285 0 -495 146q-231 160 -231 424z" />
    <glyph glyph-name="ocircumflex" unicode="&#xf4;" horiz-adv-x="1580" 
d="M580 572q0 -534 212 -534q86 0 137 114q62 143 62 425q0 516 -191 516q-140 12 -190 -170q-30 -110 -30 -351zM72 546q0 264 221 442t497 178t500 -166q222 -165 222 -422q0 -258 -214 -430t-500 -172q-285 0 -495 146q-231 160 -231 424zM1218 1272l-412 166l-395 -168
l395 407z" />
    <glyph glyph-name="otilde" unicode="&#xf5;" horiz-adv-x="1584" 
d="M873 1276q-49 0 -151 50t-166 50t-119 -44l-30 -30l-40 16l20 44q62 130 102 177q70 82 179 82q66 0 132 -28q195 -83 208 -87t35 -4q50 0 90 43l24 26l43 -18l-15 -37q-97 -238 -294 -238q-14 -2 -18 -2zM598 572q0 -534 212 -534q86 0 137 114q62 143 62 425
q0 516 -191 516q-140 12 -190 -170q-30 -110 -30 -351zM90 546q0 264 221 442t497 178t500 -166q222 -165 222 -422q0 -258 -214 -430t-500 -172q-285 0 -495 146q-231 160 -231 424z" />
    <glyph glyph-name="odieresis" unicode="&#xf6;" horiz-adv-x="1584" 
d="M620 1270q-66 0 -104.5 44t-38.5 102t36.5 98.5t103.5 40.5t105 -42.5t38 -101.5t-37 -100t-103 -41zM980 1274q-67 0 -105.5 44t-38.5 102t36.5 98.5t103.5 40.5t105 -44.5t38 -102.5t-36 -98t-103 -40zM594 572q0 -534 212 -534q86 0 137 114q62 143 62 425
q0 516 -191 516q-140 12 -190 -170q-30 -110 -30 -351zM86 546q0 264 221 442t497 178t500 -166q222 -165 222 -422q0 -258 -214 -430t-500 -172q-285 0 -495 146q-231 160 -231 424z" />
    <glyph glyph-name="divide" unicode="&#xf7;" horiz-adv-x="1382" 
d="M689 156q-65 0 -100 39.5t-35 94.5t36 95t98 40t98 -40t36 -95t-34 -94.5t-99 -39.5zM1330 548h-1256l-2 142h1256zM689 814q-65 0 -100 39.5t-35 94.5t36 95t98 40t98 -40t36 -95t-34 -94.5t-99 -39.5z" />
    <glyph glyph-name="oslash" unicode="&#xf8;" horiz-adv-x="1574" 
d="M1009 590q0 74 -10 170l-333 -626q54 -96 142 -96t139 114q62 143 62 438zM598 572q0 -24 2 -80.5t2 -86.5l329 612q-49 76 -113 76q-140 12 -190 -170q-30 -110 -30 -351zM1530 582q0 -262 -214 -434t-496 -172q-120 0 -224 26l-64 -120h-211l98 184q-146 76 -237 198
t-92 276q0 270 221 448t513 177q84 0 173 -22l56 103h205l-89 -165q161 -75 261 -205t100 -294z" />
    <glyph glyph-name="ugrave" unicode="&#xf9;" horiz-adv-x="1867" 
d="M664 1520q0 48 32 80.5t84 32.5t99 -64q40 -62 82 -125q34 -44 63 -71t73 -47l36 -16l-4 -34l-22 2q-286 37 -397 148q-46 46 -46 94zM1827 -2h-203q-204 0 -334 -10t-155 -10v325l-30 -48q-98 -164 -246 -235q-96 -46 -203 -46q-28 2 -38 2q-225 20 -307 152
q-60 96 -60 297v470q0 104 -4 121t-27 36t-64.5 22t-77.5 5v60q96 0 224 6t137 6l319 22v-920q0 -54 34 -90.5t77 -36.5q10 0 16 2q134 46 184 185.5t50 448.5v82q0 110 -5 144.5t-30.5 62.5t-140.5 28h-20v60l397 12l303 26v-988q4 -40 26.5 -75.5t177.5 -47.5v-68z" />
    <glyph glyph-name="uacute" unicode="&#xfa;" horiz-adv-x="1873" 
d="M1165 1518q0 -48 -43 -91t-87 -63t-138.5 -46t-164.5 -34l-22 -4l-4 34l38 16q44 18 69 41t64 73q54 86 90 136t86 49q50 0 81 -31.5t31 -79.5zM1827 -2h-203q-204 0 -334 -10t-155 -10v325l-30 -48q-98 -164 -246 -235q-96 -46 -203 -46q-28 2 -38 2q-225 20 -307 152
q-60 96 -60 297v470q0 104 -4 121t-27 36t-64.5 22t-77.5 5v60q96 0 224 6t137 6l319 22v-920q0 -54 34 -90.5t77 -36.5q10 0 16 2q134 46 184 185.5t50 448.5v82q0 110 -5 144.5t-30.5 62.5t-140.5 28h-20v60l397 12l303 26v-988q4 -40 26.5 -75.5t177.5 -47.5v-68z" />
    <glyph glyph-name="ucircumflex" unicode="&#xfb;" horiz-adv-x="1871" 
d="M1827 -2h-179q-228 0 -358 -10t-155 -10v325l-30 -48q-98 -164 -246 -235q-96 -46 -203 -46q-28 2 -38 2q-225 20 -307 152q-60 96 -60 297v470q0 104 -4 121t-27 36q-22 19 -64 22t-78 5v60q96 0 224 6t137 6l319 22v-920q0 -55 34 -91t77 -36q10 0 16 2q134 46 184 186
t50 448v82q0 110 -5 144t-24 56q-32 35 -147 35h-20v60l397 12l303 26v-988q4 -40 26 -76t178 -47v-68zM1278 1282l-411 166l-396 -168l396 407z" />
    <glyph glyph-name="udieresis" unicode="&#xfc;" horiz-adv-x="1873" 
d="M757 1272q-67 0 -103 42t-36 99t34 97.5t100 40.5t103.5 -43.5t37.5 -100.5t-34.5 -96t-101.5 -39zM1108 1278q-65 0 -102 43t-37 99t34 95.5t100 39.5t104.5 -42.5t38.5 -98.5t-36.5 -96t-101.5 -40zM1827 -2h-203q-204 0 -334 -10t-155 -10v325l-30 -48
q-98 -164 -246 -235q-96 -46 -203 -46q-28 2 -38 2q-225 20 -307 152q-60 96 -60 297v470q0 104 -4 121t-27 36t-64.5 22t-77.5 5v60q96 0 224 6t137 6l319 22v-920q0 -54 34 -90.5t77 -36.5q10 0 16 2q134 46 184 185.5t50 448.5v82q0 110 -5 144.5t-30.5 62.5t-140.5 28
h-20v60l397 12l303 26v-988q4 -40 26.5 -75.5t177.5 -47.5v-68z" />
    <glyph glyph-name="ydieresis" unicode="&#xff;" horiz-adv-x="1550" 
d="M368 -604q-92 0 -164 59.5t-72 147.5t66 164q66 77 152 77q87 0 127.5 -23.5t63.5 -53.5t34 -90t17 -60q50 0 106 142q36 94 74 189l22 50h-164l-347 899q-38 96 -92 144q-28 26 -60.5 31t-60.5 7v60h831v-60q-44 0 -67 -2q-70 -10 -86 -50q-6 -16 -6 -29t11 -37t17 -42
l207 -500l108 273q46 120 46 197q0 78 -44 144q-14 24 -48 35t-62 11v60h519v-60q-76 -22 -112 -44.5t-108 -138.5q-72 -115 -101 -184l-308 -736q-89 -228 -171 -379q-38 -69 -137 -135t-191 -66zM644 1286q-72 0 -111.5 45t-39.5 106t38.5 105.5t109.5 44.5t111 -45.5
t40 -107.5t-38 -105t-110 -43zM1024 1292q-71 0 -111 45t-40 105t38 104.5t109 44.5t111 -44.5t40 -105.5t-38 -105t-109 -44z" />
    <glyph glyph-name="OE" unicode="&#x152;" horiz-adv-x="2453" 
d="M1137 269v989q0 84 -49 154t-131 78q-139 0 -213 -109t-98 -269t-24 -365q0 -206 12 -306q22 -183 84 -277q76 -116 225 -116q94 0 144 58.5t50 162.5zM937 -26q-339 0 -590 230.5t-251 562.5t247 553t604 221q95 0 224 -31h1150l12 -569h-50q-108 288 -267 433
q-82 78 -257 78q-82 0 -122 -34q-18 -15 -18 -126v-22l2 -432q211 19 267 221q22 78 36 149h50v-809h-56q-8 56 -16 92q-28 109 -86 185t-103 90q-56 6 -96 12v-507q0 -72 12 -139.5t172.5 -67.5t296.5 130t233 466h54l-2 -662h-1218q-150 -24 -228 -24z" />
    <glyph glyph-name="oe" unicode="&#x153;" horiz-adv-x="2431" 
d="M598 572q0 -534 212 -534q86 0 137 114q62 143 62 425q0 516 -191 516q-140 12 -190 -170q-30 -110 -30 -351zM1823 852q0 92 -35 172t-103 81q-78 0 -114 -128q-28 -97 -28 -201t8 -108l96 2h50q50 0 74 6t32 28q20 56 20 148zM1694 1169q256 0 431 -156t176 -339l2 -72
h-752v-72l-2 -105q0 -168 42 -252q64 -126 234 -127q138 0 245.5 84.5t135.5 224.5l10 44h73l-12 -68q-30 -164 -181.5 -259.5t-394.5 -95.5t-437 134q-205 -134 -444 -134q-289 0 -499 146q-231 160 -231 424t221 442t513 177q226 0 430 -132q184 136 440 136z" />
    <glyph glyph-name="Ydieresis" unicode="&#x178;" horiz-adv-x="1817" 
d="M1121 237q0 -59 4 -81t35 -48q30 -26 94 -32t122 -8v-70h-995v68h8q22 -2 66 -2q45 0 89 8t64 35t25 55t5 81l2 419l-267 517q-44 91 -75 149t-63 79q-31 21 -79 27t-70 10v66h921v-66q-48 0 -97 -5q-74 -8 -74 -65q0 -39 51 -156l198 -420l131 255q36 82 53 127
q17 44 17 112t-43 110t-140 42v66h642v-66q-81 -8 -164 -71t-143 -133t-132 -201l-185 -327v-475zM748 1649q-80 0 -126 52t-46 122q0 69 42 119t124 50t128 -52t47 -122q-1 -70 -45 -119q-44 -50 -124 -50zM1183 1655q-80 0 -126 52t-46 122q0 69 42 119t124 50
q83 0 129 -52t46 -122t-44 -119q-44 -50 -125 -50z" />
    <glyph glyph-name="florin" unicode="&#x192;" horiz-adv-x="1020" 
d="M776 1551q-46 0 -72 -227q-18 -154 -30 -207l-10 -42h203l-10 -84h-215l-124 -618q-133 -636 -356 -636q-57 0 -80.5 29t-23.5 48t2 26q26 74 96 74q26 0 41.5 -26t29.5 -30q62 -18 110 206q30 152 42 215l143 714h-225l6 84h251l10 54q116 544 311 544q32 0 64 -24
t32 -54q0 -6 -4 -18q-26 -76 -106 -77q-17 0 -39 20t-28 24.5t-18 4.5z" />
    <glyph glyph-name="summation" unicode="&#x3a3;" horiz-adv-x="1568" 
d="M1356 1522v-333h-42q0 110 -58 163.5t-105.5 64.5t-117.5 11h-614l590 -710l-630 -708h841q74 0 138 50q100 76 100 183h46q-84 -244 -84 -460l-148 28h-1198l742 815l-728 911l135 -15h1133z" />
    <glyph glyph-name="Omega" unicode="&#x3a9;" horiz-adv-x="1590" 
d="M1534 -4h-603l30 301q285 131 285 483q0 213 -79 317q-100 135 -342 135t-352 -133q-96 -115 -96 -301q0 -371 287 -501l30 -301h-606v317h38q0 -82 46.5 -103t82.5 -21h331v62q-199 34 -321.5 182.5t-122.5 350.5q0 239 187 374.5t491 135.5t482 -133.5t178 -376.5
q0 -203 -122 -351t-321 -182v-62h333q74 0 106 52q20 30 20 72h38v-317z" />
    <glyph glyph-name="pi" unicode="&#x3c0;" horiz-adv-x="1345" 
d="M993 -22q-116 0 -171 112q-44 92 -44 241q0 52 6 100l56 510h-276l-97 -750q-8 -86 -50 -156.5t-101 -70.5t-92 25t-39 49t-6 58t34 74q108 128 117 148q33 75 33 103l56 510h-89q-36 0 -77 -2.5t-103 -71.5q-30 -36 -40 -65l-40 16l18 34q66 152 94 188t95 70
q66 33 148 33h855v-192h-309l-32 -566q0 -78 42 -139t104 -61t101.5 37t53.5 99l10 40h44l-6 -52q-16 -137 -98 -229t-197 -92z" />
    <glyph glyph-name="endash" unicode="&#x2013;" horiz-adv-x="1333" 
d="M1266 568h-1182v246h1182v-246z" />
    <glyph glyph-name="emdash" unicode="&#x2014;" horiz-adv-x="1979" 
d="M1916 568h-1832v246l1832 -2v-244z" />
    <glyph glyph-name="quoteleft" unicode="&#x2018;" horiz-adv-x="661" 
d="M596 896q0 -87 -71.5 -138.5t-174.5 -51.5q-104 0 -184 101t-80 202q0 159 114 317t271 233l30 14l33 -55l-33 -16q-88 -44 -164 -139t-76 -172q0 -46 25 -73t73 -27q42 4 64 4t65 -13t75.5 -56t32.5 -130z" />
    <glyph glyph-name="quoteright" unicode="&#x2019;" horiz-adv-x="643" 
d="M588 1256q0 -160 -115.5 -319t-269.5 -231l-30 -14l-33 54l33 16q88 42 164 138.5t76 168.5t-35 87t-70 13t-57 -2t-44 6q-64 20 -96.5 65.5t-32.5 131.5t72.5 137.5t174.5 51.5q103 1 183 -101t80 -202z" />
    <glyph glyph-name="quotesinglbase" unicode="&#x201a;" horiz-adv-x="643" 
d="M588 82q0 -160 -115.5 -318.5t-269.5 -230.5l-30 -14l-33 54l33 16q88 42 164 138t76 168q0 107 -105 101q-35 -2 -57 -2t-44 6q-64 20 -96.5 65t-32.5 131t72.5 137.5t174.5 51.5q103 1 183 -101t80 -202z" />
    <glyph glyph-name="quotedblleft" unicode="&#x201c;" horiz-adv-x="1119" 
d="M532 954q0 -77 -63.5 -121.5t-152.5 -44.5t-160.5 90.5t-71.5 174.5q0 143 100 279t237 200l26 13l28 -47l-28 -14q-76 -36 -143 -119t-67 -137t24 -78.5t62 -22.5t57 2t37 -6q58 -16 86.5 -54t28.5 -115zM1065 954q0 -77 -63 -121.5t-151 -44.5t-159.5 90.5t-71.5 174.5
q0 142 100 279.5t237 199.5l26 13l28 -47l-28 -14q-80 -38 -146.5 -120t-66.5 -152q0 -38 24 -62.5t62 -22.5t58 2q19 0 37 -6q58 -16 86 -54t28 -115z" />
    <glyph glyph-name="quotedblright" unicode="&#x201d;" horiz-adv-x="1247" 
d="M72 1384q0 86 72.5 137.5t175.5 51.5q104 1 184 -101t80 -202q0 -162 -115.5 -319t-271.5 -231l-29 -14l-32 54l32 16q88 44 164.5 139.5t76.5 173.5q0 44 -27 71t-71 27l-66 -4q-20 0 -63 13q-42 14 -76 58t-34 130zM684 1385q0 87 71 137.5t175 50.5q104 1 183 -101
q80 -102 80 -202q0 -160 -115 -318t-270 -232l-30 -14l-32 54l32 16q88 42 164.5 138.5t76.5 172.5q0 46 -25 73t-36 27l-101 -4q-19 0 -63 13q-44 14 -77 58t-33 131z" />
    <glyph glyph-name="quotedblbase" unicode="&#x201e;" horiz-adv-x="1247" 
d="M72 190q0 86 72.5 137.5t175.5 51.5q104 1 184 -101t80 -202q0 -162 -115.5 -318.5t-271.5 -230.5l-29 -14l-32 54l32 16q88 44 164.5 139t76.5 174q0 44 -27 71t-71 27l-66 -4q-20 0 -63 13q-42 13 -76 57t-34 130zM684 192q0 88 71 137.5t175 49.5q104 1 183 -101
q80 -102 80 -202q0 -160 -115 -317.5t-270 -231.5l-30 -14l-32 54l32 16q88 42 164.5 138t76.5 173q0 46 -25 73t-36 27l-101 -4q-19 0 -63 13t-77 57t-33 132z" />
    <glyph glyph-name="dagger" unicode="&#x2020;" horiz-adv-x="1061" 
d="M997 867h-12q-112 14 -185 14l-172 6h-12v-390q0 -126 16 -433v-26h-189l2 26q16 299 16 433v390h-12l-172 -6q-66 0 -185 -14h-10v8l4 74l-4 78v8h10q112 -16 181 -16h184v30l-6 185q0 68 -9 159t-9 101l-2 22l14 -2l99 -2l88 2l14 2v-22q-22 -198 -22 -260l-4 -185v-30
h184q64 0 181 16h12v-8l-6 -78q0 -44 6 -74v-8z" />
    <glyph glyph-name="bullet" unicode="&#x2022;" horiz-adv-x="657" 
d="M84 928.5q0 106.5 70 184.5t193 78t191 -76t68 -181t-69.5 -184.5t-192.5 -79.5q-124 0 -192 76t-68 182.5z" />
    <glyph glyph-name="ellipsis" unicode="&#x2026;" horiz-adv-x="1945" 
d="M1811 223q0 -91 -57 -155t-161 -64t-163 65q-58 65 -58 155t57 154q57 65 161 65t163 -65q58 -65 58 -155zM1165 213q0 -91 -57 -155t-161 -64t-163 65q-58 65 -58 155t57 154q57 65 161 65t163 -65q58 -65 58 -155zM311 -6q-104 0 -163 65q-58 65 -58 155t57 154
q57 65 161 65t163 -65t59 -155q0 -91 -58 -155t-161 -64z" />
    <glyph glyph-name="trademark" unicode="&#x2122;" horiz-adv-x="1721" 
d="M429 869q0 -47 27 -52t43 -5l25 -4v-30h-17l-128 6l-130 -6h-18v32l30 2q16 2 29 3t26 16t13 38v583l-165 -4q-18 -2 -24 -9t-10 -27l-10 -76h-32l-6 172l18 -2l281 -4l279 4l18 4l-6 -174h-30l-8 68q-4 26 -12 36q-10 10 -28 10l-165 2v-583zM814 869v545q0 30 -12 45
t-74 15h-12v32h18l70 -6l103 6h12l272 -581l109 222q26 55 67 139t61 128l28 74l8 18h14l89 -6l84 6h12v-32q-24 0 -50 -2q-50 -4 -50 -58v-545q0 -47 29 -52t43 -5l26 -4v-30h-18l-129 6l-130 -6h-18v32l30 2q18 2 26 2q42 5 42 55v507l-287 -608h-22l-284 606v-505
q0 -47 28 -52t44 -5l24 -4v-30h-16q-39 0 -129 6l-88 -6h-18v32l30 2q68 0 68 57z" />
    <glyph glyph-name="partialdiff" unicode="&#x2202;" horiz-adv-x="1071" 
d="M253 298q0 -89 49.5 -176.5t112 -97.5t74.5 -10q110 0 191 146q60 112 94 289l30 163l-56 52q-86 80 -188 80t-178 -83t-102 -179q-27 -96 -27 -184zM1003 798q0 -301 -128 -551q-146 -285 -372 -285q-24 0 -36 2q-185 18 -287 129t-102 287t120.5 312t294.5 136
q78 0 133.5 -22t129.5 -74l64 -46l16 106q10 70 10 131q0 213 -86 357q-100 166 -275 166q-52 0 -102 -17t-100 -35l-38 -10l-79 96l89 26q106 33 196 33q253 0 410 -231q142 -209 142 -510z" />
    <glyph glyph-name="Delta" unicode="&#x2206;" horiz-adv-x="1494" 
d="M1169 98l-449 1063l-499 -1063h948zM1438 -2h-1358l724 1526z" />
    <glyph glyph-name="product" unicode="&#x220f;" horiz-adv-x="1787" 
d="M1725 -193h-652v41l54 2q46 0 70.5 5t46.5 27t27 43t5 52v1425h-762v-1366q0 -115 49 -152q29 -22 55 -27t70 -5h40v-45h-652v49h52q50 0 69.5 3t45.5 24t36 49t10 106v1244q0 90 -66 148q-46 43 -101 46l-34 2v44h1637v-46l-46 -2q-30 0 -49 -8t-53 -36
q-61 -50 -61 -180v-1228q0 -50 7 -81t45 -65t109 -34l48 -2v-33z" />
    <glyph glyph-name="radical" unicode="&#x221a;" horiz-adv-x="1087" 
d="M1021 1651l-283 -1749l-467 924l-177 -90l-28 62l273 129l375 -736l243 1470z" />
    <glyph glyph-name="infinity" unicode="&#x221e;" horiz-adv-x="1652" 
d="M390 722q-74 0 -134.5 -54t-68.5 -140q0 -92 59 -155.5t174 -63.5t208 86l136 127l-146 108q-66 50 -110 71t-118 21zM1276 722q-74 0 -118 -21t-111 -71l-146 -108l136 -127q93 -86 207 -86t174 62.5t60 156.5q-8 84 -68 139t-134 55zM1587 528q0 -136 -93.5 -229.5
t-217.5 -93.5q-82 0 -174.5 38t-170.5 110l-99 92l-98 -92q-76 -70 -170.5 -109t-174.5 -39q-124 0 -217 91q-94 90 -94 228t94.5 226t236.5 88t301 -142l122 -110l123 110q159 142 302 142t236.5 -87t93.5 -223z" />
    <glyph glyph-name="integral" unicode="&#x222b;" horiz-adv-x="645" 
d="M285 1206q0 479 188 479q46 0 84.5 -27t33.5 -63t-31 -58.5t-50 -22.5t-44 12q-19 12 -43 31q-26 14 -37 -11.5t-11 -82.5t14 -215t14 -197v-638q0 -634 -210 -634q-64 0 -93.5 32.5t-29.5 65.5t22 55t52 22t51.5 -26t37.5 -30q58 -18 58 166q0 76 -6 255v887z" />
    <glyph glyph-name="approxequal" unicode="&#x2248;" horiz-adv-x="1341" 
d="M425 389q-22 0 -54 -4q-88 -18 -162 -94l-39 -40l-94 62l30 34q58 60 136 102t195 42q46 0 71.5 -6t101.5 -28l162 -48q132 -44 199 -44q114 0 196 84l41 42l88 -56l-44 -50q-111 -130 -264 -130q-73 0 -128.5 17t-111.5 35l-184 50q-38 10 -77.5 21t-61.5 11zM973 610
q-52 0 -110.5 18t-114.5 36l-184 50q-38 10 -77.5 21t-61.5 11t-54 -4q-88 -18 -162 -94l-39 -40l-94 62l30 34q60 62 135.5 104t189.5 42q41 0 71 -7t108 -29l162 -48q120 -46 154 -45q35 1 45 1q114 0 196 84l41 42l88 -56l-44 -50q-114 -132 -279 -132z" />
    <glyph glyph-name="notequal" unicode="&#x2260;" horiz-adv-x="1147" 
d="M1037 277h-517l-137 -257l-108 58l106 199h-267v122h331l121 225h-452v124h516l138 255l109 -56l-107 -199h267v-124h-333l-120 -225h453v-122z" />
    <glyph glyph-name="lessequal" unicode="&#x2264;" horiz-adv-x="998" 
d="M909 0h-819v122h819v-122zM909 247l-819 361v136l819 361v-132l-670 -297l670 -297v-132z" />
    <glyph glyph-name="greaterequal" unicode="&#x2265;" horiz-adv-x="1025" 
d="M917 0h-819v122h819v-122zM917 608l-819 -361v132l670 297l-670 297v132l819 -361v-136z" />
    <glyph glyph-name="lozenge" unicode="&#x25ca;" horiz-adv-x="1047" 
d="M881 756l-339 636l-339 -628l343 -672zM999 756l-391 -758h-129l-399 770l399 734h129z" />
    </font>
</defs>
</svg>
