<svg id="method-08" xmlns="http://www.w3.org/2000/svg" viewBox="0 0 100 100"><title>method</title><ellipse cx="50.5" cy="72.9" rx="11" ry="1.7" style="fill:#ffcd73"/><path d="M60.5,91.8c3.2,0,4.1-1.1,6.2-3a15.4,15.4,0,0,0,1.9-8.3,4.6,4.6,0,0,0-4.6-4.6c-1.9,0-3.5.9-3.5,2" style="fill:none;stroke:#ffe0a6;stroke-miterlimit:10;stroke-width:1.3455605506896973px"/><path d="M39.5,72.9c0,1,4.9,1.7,11,1.7s11-.8,11-1.7V96.7c0,1.1-4.9,2-11,2s-11-.9-11-2V72.9Z" style="fill:#ffe0a6"/><circle cx="50.5" cy="85.8" r="5.1" style="fill:#67997f"/><polyline points="55 83.7 47.8 90 45.8 87.7 53.1 81.4" style="fill:#ef9147"/><ellipse cx="49.9" cy="12.1" rx="11.4" ry="1.1" style="fill:#283d1e"/><path d="M58,26.5c0,1-.4,1.8-0.9,1.8H42.6c-0.5,0-.9-0.8-0.9-1.8v-12c0-1,.4-1.8.9-1.8H57.2c0.5,0,.9.8,0.9,1.8v12Z" style="fill:#ffe0a6"/><path d="M59.6,68a0.8,0.8,0,0,1-.8.9H41.3a0.8,0.8,0,0,1-.8-0.9V29.1a0.8,0.8,0,0,1,.8-0.9H58.8a0.8,0.8,0,0,1,.8.9V68Z" style="fill:#ffcd73"/><path d="M63.7,70.3c0,2.1-4.3,3.7-13.1,3.7s-13.8-1.7-13.8-3.9c0,0-2.1,0,2.3.5V68.3a0.6,0.6,0,0,1,.6-0.6H60.6a0.6,0.6,0,0,1,.6.6v2.2Z" style="fill:#f1a92c"/><circle cx="50.1" cy="52.1" r="1.3" style="fill:#283d1e"/><circle cx="50.1" cy="43.4" r="1.3" style="fill:#283d1e"/><circle cx="50.1" cy="34.7" r="1.3" style="fill:#283d1e"/><circle cx="50.1" cy="60.8" r="1.3" style="fill:#283d1e"/><path d="M44.3,48.7l-2.9,5.8a20.8,20.8,0,0,0,17.1,0l-2.6-5.8C51.1,50,49,50,44.3,48.7Z" style="fill:#ef9147;opacity:0.7000000000000001"/><line x1="45.4" y1="13.5" x2="45.4" y2="48.2" style="fill:#3b5f45;stroke:#231f20;stroke-miterlimit:10;stroke-width:0.6727802753448486px;opacity:0.6000000000000001"/><line x1="55.1" y1="13.5" x2="55.1" y2="48.2" style="fill:#3b5f45;stroke:#231f20;stroke-miterlimit:10;stroke-width:0.6727802753448486px;opacity:0.6000000000000001"/></svg>