<svg id="method-04" xmlns="http://www.w3.org/2000/svg" viewBox="0 0 100 100"><title>method</title><path d="M28.5,24.6c0.7,1.9,9.7,3.1,21.6,3.1s21.6-1.4,21.6-3.1S62,21.4,50.1,21.4,28.5,22.8,28.5,24.6Z" style="fill:#ffcd73"/><path d="M31.9,35.9c-2.3-.7-4.2-1.8-4.2-3.4h0c0-1.1.9-.8,3.1-1.7Z" style="fill:#d8bea2"/><path d="M68.9,29.9c3.1,1,3.5,1.5,3.5,2.9h0c0,1.3-1.7,2.5-4.7,3.5h0.1Z" style="fill:#d8bea2"/><path d="M72.4,50c-0.7,0-3-1.1-3-6s2.3-11.5,3-11.5c0,3.1-10,5.7-22.3,5.7s-22.3-2.5-22.3-5.7c0.7,0,3,6.7,3,11.5s-2.3,6-3,6V49.7c0,1,1.1,2,3,2.9h0.1c3.9,1.7,11.1,2.8,19.3,2.8s16-1.2,19.8-3H69.8c1.6-.8,2.6-1.7,2.6-2.6" style="fill:#d8bea2"/><path d="M67.9,36.3c-4.1,1.3-10.5,2.2-17.6,2.2s-13.7-.9-17.7-2.2H32.1c-1.7-5.1-1.3-8.6-1.8-10.3a1.2,1.2,0,0,0-1.5-1.2c0,1.9,8.5,2.5,21.2,2.5,9.1,0,16.1-.5,19.4-1.5" style="fill:#ffe0a6"/><path d="M69.5,52.2c-3.7,1.8-11.2,3-19.8,3s-15.4-1.1-19.3-2.8v0.2c-3.4,8.5-4.4,19.9-4.4,27.5,0,15.4,11.2,18.6,23.8,18.6s23.6-6.4,23.6-21.8c0-7.2-.8-17.1-3.7-24.7" style="fill:#ffe0a6"/><path d="M27.7,42.8c1.7,0,3,.6,3,1.2l-0.3-.4a64.9,64.9,0,0,0,39-.8" style="fill:none;stroke:#283d1e;stroke-miterlimit:10;stroke-width:1.3455605506896973px"/><path d="M25.3,46.4h0.6A4.1,4.1,0,0,0,27,44.6a10.6,10.6,0,0,0,.6-2.1c0.1-.6.1-1,0.1-1s0.1,0.4.1,1a11,11,0,0,1-.2,2.3,5,5,0,0,1-1,2.3l-0.4.4-0.5.2H25.4Z" style="fill:#283d1e"/><path d="M30.8,44.1h0.1a0.3,0.3,0,0,1,0,.3l-0.2.5-0.4.4-0.5.2H28.6l-0.6.3-0.6.3-0.6.2a2.2,2.2,0,0,1-1.1,0,2.7,2.7,0,0,1-1.1-.5h0l0.3-.2,0.7-.4,1-.2h1.2a1.1,1.1,0,0,0,1.1-.2l0.4-.4,0.4-.2h1Z" style="fill:#283d1e"/><ellipse cx="31.3" cy="44.5" rx="2.3" ry="2.2" style="fill:#67997f"/></svg>