<svg id="curlybrace_md" data-name="curlybrace_md" xmlns="http://www.w3.org/2000/svg" viewBox="0 0 160.9 9.6"><title>curlybrace_md</title><path d="M416.1,298.4a43.3,43.3,0,0,0,13.3,3.5c9.3,0.9,35.2.5,45.2,0.5a52.6,52.6,0,0,1,12.9,1.2c3.9,1,9.1,4.4,9.1,4.4h-3.4a81.8,81.8,0,0,0-9.3-3c-7.8-1.3-30.8-.3-41.9-0.5-3.8-.1-11.3.1-17.2-1.2a61.2,61.2,0,0,1-8.6-2.9,60.9,60.9,0,0,1-8.6,2.9c-5.9,1.3-13.5,1.2-17.2,1.3-11.2.2-34.1-.8-41.9,0.5a81.6,81.6,0,0,0-9.3,3h-3.4s5.2-3.4,9.1-4.4a52.6,52.6,0,0,1,12.9-1.2c10,0.1,35.9.5,45.2-.5A43.2,43.2,0,0,0,416.1,298.4Z" transform="translate(-335.6 -298.4)" style="fill:#f1a92c"/></svg>