<svg id="curlybrace_sm" data-name="curlybrace_sm" xmlns="http://www.w3.org/2000/svg" viewBox="0 0 88 9.6"><title>curlybrace_sm</title><path d="M82.6,298.4a16.8,16.8,0,0,0,7.3,3.5c5.1,0.9,19.3.5,24.7,0.5a16.3,16.3,0,0,1,7.1,1.2c2.1,1,5,4.4,5,4.4h-1.9a33.4,33.4,0,0,0-5.1-3c-4.3-1.3-16.8-.3-22.9-0.5-2.1-.1-6.2.1-9.4-1.2a25.5,25.5,0,0,1-4.7-2.9,25.4,25.4,0,0,1-4.7,2.9c-3.2,1.3-7.4,1.2-9.4,1.3-6.1.2-18.7-.8-22.9,0.5a33.2,33.2,0,0,0-5.1,3H38.6s2.8-3.4,5-4.4a16.3,16.3,0,0,1,7.1-1.2c5.5,0.1,19.6.5,24.7-.5A16.7,16.7,0,0,0,82.6,298.4Z" transform="translate(-38.6 -298.4)" style="fill:#f1a92c"/></svg>