<svg id="method-07" xmlns="http://www.w3.org/2000/svg" viewBox="0 0 100 100"><title>method</title><path d="M84.9,95.1a3.5,3.5,0,0,1-3.5,3.5h-62a3.5,3.5,0,0,1-3.5-3.5V26.3a3.5,3.5,0,0,1,3.5-3.5h62a3.5,3.5,0,0,1,3.5,3.5V95.1Z" style="fill:#ffe0a6"/><rect x="15.9" y="80.1" width="69" height="18.61" rx="3.5" ry="3.5" style="fill:#ffcd73"/><rect x="19.9" y="84" width="62.1" height="11.47" rx="3.5" ry="3.5" style="fill:#f1a92c"/><line x1="24.1" y1="87.9" x2="50.4" y2="87.9" style="fill:none;stroke:#3b5f45;stroke-miterlimit:10;stroke-width:1.3455605506896973px"/><line x1="24.1" y1="91.7" x2="66.5" y2="91.7" style="fill:none;stroke:#3b5f45;stroke-miterlimit:10;stroke-width:1.3455605506896973px"/><path d="M43.5,44.3a2.1,2.1,0,0,1,.1.5h0A2.2,2.2,0,0,1,41.4,47H25.7a2.2,2.2,0,0,1-2.2-2.2h0a2.2,2.2,0,0,1,0-.4h0.3a2.8,2.8,0,0,0,1.4.3H41.8l1.2-.3Z" style="fill:#283d1e"/><path d="M39.3,46.7a19.8,19.8,0,0,1-1.5,7.5H29.3a19.8,19.8,0,0,1-1.5-7.5H39.3Z" style="fill:#283d1e"/><path d="M24.8,50.7a1.5,1.5,0,0,1-1.5,1.5H13.6a1.5,1.5,0,0,1-1.5-1.5h0a1.5,1.5,0,0,1,1.5-1.5h9.7a1.5,1.5,0,0,1,1.5,1.5h0Z" style="fill:#ef9147"/><polygon points="29.1 50.7 29.1 50.7 22.9 50.7 22.9 50.7 22.9 50.7 22.9 50.7 29.1 50.7 29.1 50.7 29.1 50.7" style="fill:none;stroke:#ef9147;stroke-miterlimit:10;stroke-width:1.3455605506896973px"/><path d="M63.6,42.5S68.2,49.1,69,49s4.2-.7,4.2-0.1,0.1,6.2,2.6,7.7" style="fill:none;stroke:#283d1e;stroke-miterlimit:10;stroke-width:2.018340826034546px"/><path d="M84.9,39.7a3.5,3.5,0,0,1-3.5,3.5H19.5a3.5,3.5,0,0,1-3.5-3.5V26.3a3.5,3.5,0,0,1,3.5-3.5H81.4a3.5,3.5,0,0,1,3.5,3.5V39.7Z" style="fill:#ffcd73"/><line x1="45.4" y1="38.9" x2="75.2" y2="38.9" style="fill:none;stroke:#3b5f45;stroke-miterlimit:10;stroke-width:1.3455605506896973px"/><circle cx="23.7" cy="28.5" r="2.1" style="fill:#283d1e"/><circle cx="23.7" cy="33.7" r="2.1" style="fill:#283d1e"/><circle cx="23.7" cy="38.9" r="2.1" style="fill:#283d1e"/><circle cx="79.5" cy="38.9" r="2.1" style="fill:#283d1e"/><path d="M23.9,44.5c-0.9-.1-1.5-0.3-1.5-0.6h0c0-.4,1.3-0.7,2.8-0.7H41.8c1.6,0,2.8.3,2.8,0.7h0c0,0.3-.6.5-1.6,0.6l-1.2.3H25.2a2.8,2.8,0,0,1-1.4-.3" style="fill:#ef9147"/><path d="M76.7,57.5a3,3,0,0,1-1.2,1.5h0a3,3,0,0,1,.7-1.8l0.3-.6a3,3,0,0,1,1.2-1.5h0a3,3,0,0,1-.7,1.8Z" style="fill:#283d1e;stroke:#283d1e;stroke-miterlimit:10;stroke-width:1.3455605506896973px"/><polyline points="15.9 71.8 68.5 71.8 84.9 71.8" style="fill:none;stroke:#ffcd73;stroke-miterlimit:10;stroke-width:1.3455605506896973px"/><line x1="83.1" y1="71.8" x2="83.1" y2="82" style="fill:none;stroke:#ffcd73;stroke-miterlimit:10;stroke-width:0.6727802753448486px"/><line x1="80.4" y1="71.8" x2="80.4" y2="82" style="fill:none;stroke:#ffcd73;stroke-miterlimit:10;stroke-width:0.6727802753448486px"/><line x1="77.7" y1="71.8" x2="77.7" y2="82" style="fill:none;stroke:#ffcd73;stroke-miterlimit:10;stroke-width:0.6727802753448486px"/><line x1="75.1" y1="71.8" x2="75.1" y2="82" style="fill:none;stroke:#ffcd73;stroke-miterlimit:10;stroke-width:0.6727802753448486px"/><line x1="72.4" y1="71.8" x2="72.4" y2="82" style="fill:none;stroke:#ffcd73;stroke-miterlimit:10;stroke-width:0.6727802753448486px"/><line x1="69.7" y1="71.8" x2="69.7" y2="82" style="fill:none;stroke:#ffcd73;stroke-miterlimit:10;stroke-width:0.6727802753448486px"/><line x1="67" y1="71.8" x2="67" y2="82" style="fill:none;stroke:#ffcd73;stroke-miterlimit:10;stroke-width:0.6727802753448486px"/><line x1="64.3" y1="71.8" x2="64.3" y2="82" style="fill:none;stroke:#ffcd73;stroke-miterlimit:10;stroke-width:0.6727802753448486px"/><line x1="61.6" y1="71.8" x2="61.6" y2="82" style="fill:none;stroke:#ffcd73;stroke-miterlimit:10;stroke-width:0.6727802753448486px"/><line x1="58.9" y1="71.8" x2="58.9" y2="82" style="fill:none;stroke:#ffcd73;stroke-miterlimit:10;stroke-width:0.6727802753448486px"/><line x1="56.2" y1="71.8" x2="56.2" y2="82" style="fill:none;stroke:#ffcd73;stroke-miterlimit:10;stroke-width:0.6727802753448486px"/><line x1="53.5" y1="71.8" x2="53.5" y2="82" style="fill:none;stroke:#ffcd73;stroke-miterlimit:10;stroke-width:0.6727802753448486px"/><line x1="50.8" y1="71.8" x2="50.8" y2="82" style="fill:none;stroke:#ffcd73;stroke-miterlimit:10;stroke-width:0.6727802753448486px"/><line x1="48.1" y1="71.8" x2="48.1" y2="82" style="fill:none;stroke:#ffcd73;stroke-miterlimit:10;stroke-width:0.6727802753448486px"/><line x1="45.5" y1="71.8" x2="45.5" y2="82" style="fill:none;stroke:#ffcd73;stroke-miterlimit:10;stroke-width:0.6727802753448486px"/><line x1="42.8" y1="71.8" x2="42.8" y2="82" style="fill:none;stroke:#ffcd73;stroke-miterlimit:10;stroke-width:0.6727802753448486px"/><line x1="40.1" y1="71.8" x2="40.1" y2="82" style="fill:none;stroke:#ffcd73;stroke-miterlimit:10;stroke-width:0.6727802753448486px"/><line x1="37.4" y1="71.8" x2="37.4" y2="82" style="fill:none;stroke:#ffcd73;stroke-miterlimit:10;stroke-width:0.6727802753448486px"/><line x1="34.7" y1="71.8" x2="34.7" y2="82" style="fill:none;stroke:#ffcd73;stroke-miterlimit:10;stroke-width:0.6727802753448486px"/><line x1="32" y1="71.8" x2="32" y2="82" style="fill:none;stroke:#ffcd73;stroke-miterlimit:10;stroke-width:0.6727802753448486px"/><line x1="29.3" y1="71.8" x2="29.3" y2="82" style="fill:none;stroke:#ffcd73;stroke-miterlimit:10;stroke-width:0.6727802753448486px"/><line x1="26.6" y1="71.8" x2="26.6" y2="82" style="fill:none;stroke:#ffcd73;stroke-miterlimit:10;stroke-width:0.6727802753448486px"/><line x1="23.9" y1="71.8" x2="23.9" y2="82" style="fill:none;stroke:#ffcd73;stroke-miterlimit:10;stroke-width:0.6727802753448486px"/><line x1="21.2" y1="71.8" x2="21.2" y2="82" style="fill:none;stroke:#ffcd73;stroke-miterlimit:10;stroke-width:0.6727802753448486px"/><line x1="18.5" y1="71.8" x2="18.5" y2="82" style="fill:none;stroke:#ffcd73;stroke-miterlimit:10;stroke-width:0.6727802753448486px"/><path d="M30.3,70.1s3.6-.9,3.3.4-4.2,3.4-4.2,3.4" style="fill:none;stroke:#283d1e;stroke-miterlimit:10;stroke-width:1.3455605506896973px"/><path d="M31.5,68.9c-1.3,3.8-1.5,6.9-2.5,7.9H24.4c-1-1-1.1-4.1-2.4-7.9h9.6Z" style="fill:#67997f"/><path d="M46.3,70.1s3.6-.9,3.3.4-4.2,3.4-4.2,3.4" style="fill:none;stroke:#283d1e;stroke-miterlimit:10;stroke-width:1.3455605506896973px"/><path d="M47.5,68.9c-1.3,3.8-1.5,6.9-2.5,7.9H40.4c-1-1-1.1-4.1-2.4-7.9h9.6Z" style="fill:#67997f"/></svg>