<svg id="method-01" xmlns="http://www.w3.org/2000/svg" viewBox="0 0 100 100"><title>method</title><polygon points="64.3 45.6 68.6 45.1 66.9 50.1 63.9 48.9 62.1 47 64.3 45.6" style="fill:#ffe0a6"/><path d="M62.1,47a18.1,18.1,0,0,0,4.8,3.1l0.2-.5L63.2,60.9V97c-10.5,3.2-24.8.9-25.8,0.6s0-50.7,0-50.7H62.1Z" style="fill:#ffe0a6"/><ellipse cx="50.2" cy="65.7" rx="11.2" ry="1.9" style="fill:#9c7452"/><path d="M60.8,82.1l0.5-15.5v0.3c0,1-5,1.9-11.2,1.9S39,68,39,66.9V66.6l0.5,15.5V81.2c0,1,5,1.9,11.2,1.9s10.2-.8,10.2-1.9" style="fill:#9c7452"/><line x1="50.2" y1="24.2" x2="50.1" y2="58.6" style="fill:#67997f;stroke:#231f20;stroke-miterlimit:10;stroke-width:1.3455605506896973px"/><path d="M63.3,87.8c-11.4,1.6-26.3.3-26.3,0.3v0.2c0,0.1-.1,4.3-0.1,4.3s14.8,1.3,26.3-.3V87.8" style="fill:#283d1e"/><circle cx="50.2" cy="24.2" r="4.4" style="fill:#283d1e"/><path d="M38.2,44.8a12.8,12.8,0,0,1,11.9-8.6,12.6,12.6,0,0,1,12,8.6H38.2Z" style="fill:#f1a92c"/><path d="M64.3,45.6A1.4,1.4,0,0,1,63,47H37.4A1.4,1.4,0,0,1,36,45.6h0a1.4,1.4,0,0,1,1.4-1.4H63a1.4,1.4,0,0,1,1.4,1.4h0Z" style="fill:#f1a92c"/><path d="M63.3,58.1a1.3,1.3,0,0,1-1.3,1.4H38.4a1.3,1.3,0,0,1-1.3-1.4h0a1.3,1.3,0,0,1,1.3-1.4H62.1a1.3,1.3,0,0,1,1.3,1.4h0Z" style="fill:#f1a92c"/></svg>