<svg id="method-03" xmlns="http://www.w3.org/2000/svg" viewBox="0 0 100 100"><title>method</title><ellipse cx="50.2" cy="30.7" rx="17.7" ry="5.3" style="fill:#ffcd73"/><path d="M50.2,57.4S32.3,35.2,32.5,30.7c0,2.9,7.9,5.3,17.7,5.3s18-1.7,17.7-5.3C67.4,35.5,50.2,57.4,50.2,57.4Z" style="fill:#ffe0a6"/><ellipse cx="50.2" cy="72.9" rx="11" ry="1.7" style="fill:#ffcd73"/><path d="M61.5,91.8c3.2,0,4.1-1.1,6.2-3a15.4,15.4,0,0,0,1.9-8.3A4.6,4.6,0,0,0,65,75.8c-1.9,0-3.5.9-3.5,2" style="fill:none;stroke:#ffe0a6;stroke-miterlimit:10;stroke-width:1.3455605506896973px"/><path d="M39.2,72.9c0,1,4.9,1.7,11,1.7s11-.8,11-1.7V96.7c0,1.1-4.9,2-11,2s-11-.9-11-2V73.8" style="fill:#ffe0a6"/><circle cx="50.2" cy="85.8" r="5.1" style="fill:#67997f"/><polyline points="54.7 83.7 47.5 90 45.5 87.7 52.8 81.4" style="fill:#ef9147"/><path d="M50.2,36c9.8,0,17.7-2.4,17.7-5.3,0.5,4.6-17.7,26.7-17.7,26.7" style="fill:#ffe0a6"/></svg>