<svg id="method-09" xmlns="http://www.w3.org/2000/svg" viewBox="0 0 100 100"><title>method</title><line x1="26.4" y1="98.7" x2="73.1" y2="98.7" style="fill:none;stroke:#283d1e;stroke-miterlimit:10;stroke-width:1.3202388820131716px"/><line x1="30" y1="64.2" x2="30" y2="13.8" style="fill:none;stroke:#283d1e;stroke-miterlimit:10;stroke-width:1.3202388820131716px"/><line x1="30" y1="67" x2="30" y2="64.2" style="fill:none;stroke:#d8bea2;stroke-miterlimit:10;stroke-width:1.3202388820131716px"/><line x1="30" y1="98.7" x2="30" y2="67" style="fill:none;stroke:#283d1e;stroke-miterlimit:10;stroke-width:1.3202388820131716px"/><line x1="69.9" y1="63.8" x2="69.9" y2="13.8" style="fill:none;stroke:#283d1e;stroke-miterlimit:10;stroke-width:1.3202388820131716px"/><line x1="69.9" y1="67" x2="69.9" y2="63.7" style="fill:none;stroke:#d8bea2;stroke-miterlimit:10;stroke-width:1.3202388820131716px"/><line x1="69.9" y1="98.7" x2="69.9" y2="67.6" style="fill:none;stroke:#283d1e;stroke-miterlimit:10;stroke-width:1.3202388820131716px"/><line x1="26.4" y1="67" x2="33.9" y2="67" style="fill:none;stroke:#d8bea2;stroke-miterlimit:10;stroke-width:1.3202388820131716px"/><line x1="26.4" y1="64.2" x2="33.9" y2="64.2" style="fill:none;stroke:#d8bea2;stroke-miterlimit:10;stroke-width:1.3202388820131716px"/><line x1="66" y1="64.2" x2="73.4" y2="64.2" style="fill:none;stroke:#d8bea2;stroke-miterlimit:10;stroke-width:1.3202388820131716px"/><line x1="66" y1="67" x2="73.4" y2="67" style="fill:none;stroke:#d8bea2;stroke-miterlimit:10;stroke-width:1.3202388820131716px"/><circle cx="30" cy="14.3" r="2.1" style="fill:#67997f"/><circle cx="69.9" cy="14.3" r="2.1" style="fill:#67997f"/><line x1="30" y1="35.5" x2="69.9" y2="35.5" style="fill:none;stroke:#283d1e;stroke-miterlimit:10;stroke-width:1.3202388820131716px"/><path d="M39.4,34.8a16.5,16.5,0,1,1,21.2-.1H39.4Z" style="fill:#ffcd73"/><rect x="34.9" y="82" width="11.3" height="16.06" rx="1.4" ry="1.4" style="fill:#ffcd73"/><path d="M64.6,96.7a1.4,1.4,0,0,1-1.4,1.4H54.7a1.4,1.4,0,0,1-1.4-1.4V83.4A1.4,1.4,0,0,1,54.7,82h8.5a1.4,1.4,0,0,1,1.4,1.4V96.7Z" style="fill:#ffcd73"/><rect x="36.5" y="68.4" width="8.2" height="14.29" rx="1.4" ry="1.4" style="fill:#ffe0a6"/><rect x="54.9" y="68.5" width="8.2" height="14.29" rx="1.4" ry="1.4" style="fill:#ffe0a6"/><ellipse cx="49.9" cy="45.8" rx="5.7" ry="5.2" style="fill:#f1a92c"/><line x1="49.9" y1="51" x2="49.9" y2="56.1" style="fill:none;stroke:#ffe0a6;stroke-miterlimit:10;stroke-width:1.3202388820131716px"/><path d="M59.2,65c-0.3-1.5-.5-2.9-0.7-4.4s0-.7,0-1.1V56.1l0.7,0.7H40.8l0.7-.7v3.3a9,9,0,0,1,0,1.1c-0.2,1.5-.4,2.9-0.6,4.4-0.3-1.5-.4-2.9-0.6-4.4a9.1,9.1,0,0,1,0-1.1v-4H59.8v4c0,0.4,0,.7,0,1.1S59.4,63.5,59.2,65Z" style="fill:#ffe0a6"/><path d="M60.1,36.4a1.8,1.8,0,0,1,.9,1.8c0,2.6-4.9,4.8-11,4.8s-11-2.1-11-4.8a2.7,2.7,0,0,1,.9-1.9H60.1Z" style="fill:#ffe0a6"/><rect x="47.8" y="54.2" width="4.5" height="3.67" rx="1.4" ry="1.4" style="fill:#ffcd73"/></svg>