<svg id="method-10" xmlns="http://www.w3.org/2000/svg" viewBox="0 0 100 100"><title>method</title><path d="M78.5,92.6c0,3.4-3.4,6.1-7.7,6.1H28.4c-4.3,0-7.7-2.7-7.7-6.1V28.7c0-3.4,3.4-6.1,7.7-6.1H70.8c4.3,0,7.7,2.7,7.7,6.1V92.6Z" style="fill:#ffe0a6"/><path d="M63.9,87.9c0-.9,2.2-3.3,5.7-3.3a45.4,45.4,0,0,0,.4-6.8c0-.7-3.4-1.9-5.3-1.9" style="fill:none;stroke:#f1a92c;stroke-miterlimit:10;stroke-width:1.3455605506896973px"/><path d="M78.5,36.9A7.2,7.2,0,0,1,71.2,44H28a7.2,7.2,0,0,1-7.3-7.1V29.8A7.2,7.2,0,0,1,28,22.7H71.2a7.2,7.2,0,0,1,7.3,7.1v7.1Z" style="fill:#ffcd73"/><path d="M69.3,40.7A3.3,3.3,0,0,1,66,44H33.2a3.3,3.3,0,0,1-3.3-3.3V35.2a3.3,3.3,0,0,1,3.3-3.3H66a3.3,3.3,0,0,1,3.3,3.3v5.6Z" style="fill:#ffe0a6"/><path d="M67.6,43.9L61.6,61.3a37.7,37.7,0,0,1-11.3,1.6A45.6,45.6,0,0,1,39,61.5L32.9,44.1H67.6" style="fill:#283d1e"/><path d="M55.9,39a1,1,0,0,1-1,1H44.3a1,1,0,0,1-1-1h0a1,1,0,0,1,1-1H54.9a1,1,0,0,1,1,1h0Z" style="fill:#283d1e"/><path d="M78.5,94.8a3.9,3.9,0,0,1-3.9,3.9h-50a3.9,3.9,0,0,1-3.9-3.9h0a3.9,3.9,0,0,1,3.9-3.9h50a3.9,3.9,0,0,1,3.9,3.9h0Z" style="fill:#ffcd73"/><path d="M65,90.5a0.8,0.8,0,0,1-.9.6H38.9c-0.5,0-3.7.1-3.7-.3V73.4a0.8,0.8,0,0,1,.9-0.6H64.2a0.8,0.8,0,0,1,.9.6V90.5Z" style="fill:#d6d6d6"/><path d="M66,72.8a0.6,0.6,0,0,1-.7.5H35.2a0.6,0.6,0,0,1-.7-0.5h0c0-.3.3-0.5,0-0.4H64.7c1-.2,1.3.1,1.3,0.4h0Z" style="fill:#283d1e"/></svg>