<svg id="thermostat" xmlns="http://www.w3.org/2000/svg" viewBox="0 0 150 75"><title>parameters</title><path d="M85.1,28V18.8a0.7,0.7,0,0,1,.7-0.7h3.8a0.7,0.7,0,0,1,.7.7V28h9.2a0.7,0.7,0,0,1,.7.7v3.8a0.7,0.7,0,0,1-.7.7H90.3v9.2a0.7,0.7,0,0,1-.7.7H85.8a0.7,0.7,0,0,1-.7-0.7V33.2H75.9a0.7,0.7,0,0,1-.7-0.7V28.7a0.7,0.7,0,0,1,.7-0.7h9.2Z" style="fill:#67997f"/><ellipse cx="29.3" cy="54.4" rx="17.7" ry="5.4" style="fill:#ffe0a6"/><path d="M41.3,13.8a16.7,16.7,0,0,0-9.2-7l-1.9-.6V3.2a1.7,1.7,0,0,0-1.7-1.8H27.1a1.7,1.7,0,0,0-1.7,1.8V6.4a18.4,18.4,0,0,0-10.3,8.2A24,24,0,0,0,41.3,13.8Z" style="fill:#ef9147"/><path d="M59.7,16.6c-1.6-2.3-5.5-4.3-9.3-4.2a48.7,48.7,0,0,0-9.2,1.5H41.2a24.3,24.3,0,0,1-13.5,4.2,24.3,24.3,0,0,1-12.5-3.6c-3.2,8.6-4.4,20-4.4,26.6l-0.6-.6c-2.3-2.5-2.8-6.9-1.6-13,1.1-3.4,4-13.6,0-18C7.2,8.2,5,6.9,1,8.1l1.7,6A2.8,2.8,0,0,1,4.2,14c0.2,0.3.7,1.9,0.1,5.9a45.1,45.1,0,0,1-1.4,5.8v0.4C1,34.6,2.1,40.9,5.8,45a13.3,13.3,0,0,0,5.9,3.7,18.5,18.5,0,0,0-.1,5.7c0.3,4.7,15,5.6,18.9,5.4,8.6-.3,15.9-2.1,16.5-5.4-0.1-1.4-1.3-6.1-1.3-6.1s0.5-3.5,5.2-7.9C54.7,37.7,64.3,22.9,59.7,16.6ZM49.3,41.4l1.1-.6Zm-4.2-1.7C45.4,35.2,43,21.2,43,21.2,68.8,12.3,45.2,39.6,45.2,39.6ZM47,54.4c-0.1-1.4-1.3-6.1-1.3-6.1" style="fill:#ffcd73;opacity:0.68"/><path d="M130.1,36.9a12.9,12.9,0,1,1-10.2.1V4.1A4.1,4.1,0,0,1,124.1,0h2.1a4.1,4.1,0,0,1,4.1,4.1V36.9" style="fill:#ffcd73"/><line x1="124.7" y1="11.3" x2="122" y2="11.3" style="fill:none;stroke:#ef9147;stroke-linecap:square;stroke-miterlimit:10;stroke-width:1.60557532310486px"/><polyline points="126.3 6.7 121 6.7 121 16.4 126.3 16.4 121 16.4 121 26.1 126.3 26.1" style="fill:none;stroke:#ef9147;stroke-linecap:square;stroke-miterlimit:10;stroke-width:1.60557532310486px"/><line x1="121" y1="21.1" x2="123.7" y2="21.1" style="fill:none;stroke:#ef9147;stroke-linecap:square;stroke-miterlimit:10;stroke-width:1.60557532310486px"/></svg>