<svg id="plus" xmlns="http://www.w3.org/2000/svg" viewBox="0 0 150 75"><title>parameters</title><path d="M88,27.6V18.4a0.7,0.7,0,0,1,.7-0.7h3.8a0.7,0.7,0,0,1,.7.7v9.2h9.2a0.7,0.7,0,0,1,.7.7v3.8a0.7,0.7,0,0,1-.7.7H93.2V42a0.7,0.7,0,0,1-.7.7H88.7A0.7,0.7,0,0,1,88,42V32.8H78.8a0.7,0.7,0,0,1-.7-0.7V28.3a0.7,0.7,0,0,1,.7-0.7H88Z" style="fill:#67997f"/><path d="M26.2,1.6s-0.3.2-.3,2c1.3,0,4.6,20,4.6,20l0.3,35.8H60.9a2,2,0,0,0,1.9-2.3s0-30-.1-35.9S59,7.3,59,7.3V6Z" style="fill:#ffe0a6"/><path d="M59.7,33.1a13,13,0,1,1-13-13A13,13,0,0,1,59.7,33.1Z" style="fill:#ef9147"/><circle cx="46.7" cy="33.1" r="11.7" style="fill:#ffcd73"/><path d="M55.7,27.7h-18A10.5,10.5,0,0,1,55.7,27.7Z" style="fill:#283d1e"/><path d="M55.1,39.3H38.3a10.4,10.4,0,0,0,8.4,4.3A11,11,0,0,0,55.1,39.3Z" style="fill:#283d1e"/><path d="M30.5,23.7S26.8,0.9,25.6,3.9c0,0-4.4,10.1-4.6,17.7S21,57.8,21,57.8s-0.2,2.1,4.3,1.8a51.7,51.7,0,0,0,5.4-.1Z" style="fill:#ffcd73"/><polygon points="138.4 18.3 137.5 23 123.9 23 122.9 18.3 138.4 18.3" style="fill:#ffcd73"/><path d="M143.1,54.3a3.4,3.4,0,0,1-3.4,3.4H122.2a3.4,3.4,0,0,1-3.4-3.4V26.4a3.4,3.4,0,0,1,3.4-3.4h17.5a3.4,3.4,0,0,1,3.4,3.4V54.3Z" style="fill:#ffe0a6"/><path d="M145,10.4c0,5.2-6.5,9.4-14.4,9.4s-14.4-4.2-14.4-9.4H145Z" style="fill:#ffcd73"/><path d="M145.8,9.8a1.5,1.5,0,0,1-1.4,1.5H117a1.5,1.5,0,0,1-1.4-1.5h0A1.5,1.5,0,0,1,117,8.3h27.3a1.5,1.5,0,0,1,1.4,1.5h0Z" style="fill:#f1a92c"/><line x1="130.6" y1="8.3" x2="130.6" y2="3.8" style="fill:none;stroke:#283d1e;stroke-miterlimit:10;stroke-width:2.527433931827545px"/><path d="M150,3.6a1.1,1.1,0,0,1-1.1,1.1H125a1.1,1.1,0,0,1-1.1-1.1h0A1.1,1.1,0,0,1,125,2.6h24A1.1,1.1,0,0,1,150,3.6h0Z" style="fill:#283d1e"/><path d="M140,49.8a3.5,3.5,0,0,1-3.6,3.4h-11a3.5,3.5,0,0,1-3.6-3.4V46.6a3.5,3.5,0,0,1,3.6-3.4h11a3.5,3.5,0,0,1,3.6,3.4v3.2Z" style="fill:#ef9147"/><circle cx="131.1" cy="46.6" r="1.7" style="fill:#ffcd73"/><circle cx="131.1" cy="33.1" r="4.3" style="fill:#ef9147"/></svg>