<svg id="method-06" xmlns="http://www.w3.org/2000/svg" viewBox="0 0 100 100"><title>method</title><path d="M61.7,15.3a4,4,0,0,1,2.9-2.9H38.2a4,4,0,0,1,2.9,2.9,15.6,15.6,0,1,0,20.6,0h0Z" style="fill:#ffe0a6;opacity:0.8"/><path d="M64.9,64.9a14.7,14.7,0,1,1,1.1-5.7,14.7,14.7,0,0,1-1.1,5.7" style="fill:#ffe0a6;opacity:0.8"/><path d="M41.9,43.5s-7.3,4.8-8.9,6.8-1.7,3-1.7,3-7.8,0-8.4,1.5,3.8,12,3.3,18.4c6.1-.1,2.2-0.1,7.8-0.1,0.7,8,.7,10.5.7,10.5s-2,6.2-7.8,7.8c0.1,3.5-1.4,3.7.1,4.4s2.3-1,10.5,1.7,22.6,2,28.2-1.6V94.6s-24.4-.1-21.5-4.1c2.8-.1,1.5-1,21.5-0.1,0.3-3.3,0-3.6,0-3.6s-28.2-.7-27.4-2.6A49.3,49.3,0,0,1,37.7,74c0-3.2-2.8-.9-4.4-11.3s8-15,8.9-15.4c3,1.3,9.1,2.5,11.2,1.3s2.9-2.9,12.6-2.3c4.4,2.8,3.2-2.1,7.9,12.9,2,1.9,2.8,4.5,4.3-.4-0.5-5-6.3-16.6-9.9-16S41.9,43.5,41.9,43.5Z" style="fill:#ffcd73"/><ellipse cx="51.4" cy="40.4" rx="7.2" ry="1" style="fill:#283d1e"/><path d="M58.6,40.4c0,2-.9,5-2.2,5.6a4.5,4.5,0,0,1-2.2.6H48.7a4.5,4.5,0,0,1-2.2-.6c-1.3-.5-2.2-3.5-2.2-5.6H58.6Z" style="fill:#283d1e"/><path d="M40.5,15.9H61.7V15.3a4,4,0,0,1,2.9-2.9H38.2a4,4,0,0,1,2.9,2.9Z" style="fill:#67997f"/><ellipse cx="53.3" cy="82.6" rx="9.8" ry="2.5" style="fill:#ef9147"/><ellipse cx="53.3" cy="82.3" rx="7.6" ry="1.3" style="fill:#ffe0a6"/><path d="M61.7,82.6a13.7,13.7,0,0,1-8.4,2.2c-2.8.4-7.9-.9-8.4-2.2-0.2.6,1.5,9.5,2.3,9.5a16.8,16.8,0,0,0,6.1,1.5,15.1,15.1,0,0,0,6.1-1.5C60.2,92.1,61.7,85.4,61.7,82.6Z" style="fill:#ef9147"/><rect x="48.9" y="89.6" width="1" height="2.35" style="fill:#d6d6d6"/><rect x="50.7" y="89.6" width="1" height="2.68" style="fill:#d6d6d6"/><rect x="52.2" y="89.6" width="1" height="2.68" style="fill:#d6d6d6"/><rect x="53.9" y="89.3" width="1" height="3.23" style="fill:#d6d6d6"/><rect x="55.7" y="89.6" width="1" height="2.68" style="fill:#d6d6d6"/><rect x="57.5" y="89.6" width="1" height="2.27" style="fill:#d6d6d6"/><path d="M52.6,81.8L52.3,81a13.4,13.4,0,0,1-.6-1.7,6.5,6.5,0,0,1-.3-0.9,1.4,1.4,0,0,1,.3-0.8l0.6-.6,0.3-.2h0.3l0.3,0.2,0.6,0.6a1.4,1.4,0,0,1,.3.8,6.5,6.5,0,0,1-.3.9,13.3,13.3,0,0,1-.6,1.7l-0.3.8H52.6Z" style="fill:#ef9147"/></svg>