<svg id="method-02" xmlns="http://www.w3.org/2000/svg" viewBox="0 0 100 100"><title>method</title><path d="M63.4,54.8c-0.3,0-.9,9.1-0.9,10.6,1.2,0,3.3,2.1,3.3,3.3s-0.4,29-1.3,28.7C64,99,49.8,98.7,49.8,98.7H49.7S35.5,99,35,97.5c-0.9.3-1.2-28.7-1.3-28.7s2.1-3.3,3.3-3.3c0-1.5-1.6-10.9-1.9-10.9" style="fill:#d6d6d6"/><rect x="42.9" y="54.8" width="14.1" height="8.49" style="fill:#ffcd73"/><rect x="34" y="53.3" width="4.2" height="10.01" style="fill:#ffcd73"/><rect x="61.3" y="53.3" width="4.2" height="10.01" style="fill:#ffcd73"/><ellipse cx="49.7" cy="24" rx="19.9" ry="2.9" style="fill:#ffcd73"/><path d="M69.7,24a173.7,173.7,0,0,0-19.4-1.2,189.1,189.1,0,0,0-20.5,1.3l4.3,30.3A71,71,0,0,0,49.6,56c8.6,0.2,9.6.1,16-1.7Z" style="fill:#ffe0a6"/><ellipse cx="49.7" cy="79" rx="13.2" ry="1.9" style="fill:#9c7452"/><path d="M62.4,95.5L63,80v0.3c0,1-5.9,1.9-13.2,1.9s-13.2-.8-13.2-1.9V80l0.5,15.5V94.6c0,1,5.9,1.9,13.2,1.9s12.1-.8,12.1-1.9" style="fill:#9c7452"/><path d="M67.9,36.3c0-.3-8.6-1.8-18.6-1.9a145.6,145.6,0,0,0-20.2,1.2v0.7a46.3,46.3,0,0,0,.8,7.8,5.7,5.7,0,0,0-3.5-1.6c1.6-1.9-1.7-8-2.1-8,2.7,0,7.4-1.7,7.4-2.7,4.3-1.1,12.2-1.6,18.7-1.6a110.8,110.8,0,0,1,18.1,1.6" style="fill:#283d1e"/></svg>