<svg id="method-05" xmlns="http://www.w3.org/2000/svg" viewBox="0 0 100 100"><title>method</title><ellipse cx="50" cy="28.8" rx="18.6" ry="4.3" style="fill:#ffcd73"/><path d="M62.9,42.5c4.1,1.8,9,5.8,9,8.5,0,5.3-9.7,9.6-21.7,9.6S28.4,56.3,28.4,51c0-2.7,4.9-6.7,8.9-8.4" style="fill:#d8bea2"/><ellipse cx="50.4" cy="72.9" rx="11" ry="1.7" style="fill:#ffcd73"/><path d="M61.7,91.8c3.2,0,4.1-1.1,6.2-3a15.4,15.4,0,0,0,1.9-8.3,4.6,4.6,0,0,0-4.6-4.6c-1.9,0-3.5.9-3.5,2" style="fill:none;stroke:#ffe0a6;stroke-miterlimit:10;stroke-width:1.3455605506896973px"/><path d="M39.4,72.9c0,1,4.9,1.7,11,1.7s11-.8,11-1.7V96.7c0,1.1-4.9,2-11,2s-11-.9-11-2V73.8" style="fill:#ffe0a6"/><circle cx="50.4" cy="85.8" r="5.1" style="fill:#67997f"/><polyline points="54.9 83.7 47.7 89.9 45.7 87.7 53 81.4" style="fill:#ef9147"/><path d="M63,39.9c1.8-1.1,7.3-2.2,8.9-5.8s0.9-1.8-.6-2.9-4.9.5-4.9,1.6" style="fill:none;stroke:#ffe0a6;stroke-miterlimit:10;stroke-width:1.3455605506896973px"/><path d="M64.9,46.9V50c0,1.7-6.6,3.2-14.8,3.2S35.2,51.7,35.2,50V46.9c0-.5,1.9-1.4,3-1.8l-3,1.8c0,0.9,1.8,1.7,4.8,2.3a54,54,0,0,0,10,.8,54.5,54.5,0,0,0,9.9-.8c3-.6,4.9-1.4,4.9-2.3s-1-1.3-2.7-1.8" style="fill:#f1a92c"/><path d="M40.1,49.1a53.9,53.9,0,0,0,10,.8,70.7,70.7,0,0,0,9.9-.7h0L68.7,29c-0.3.7-8.3,4.1-18.6,4.1S31.8,29.9,31.4,29l8.7,20.2" style="fill:#ffe0a6"/></svg>